{"glyphs":{"0":{"ha":929,"x_min":35,"x_max":894,"o":"m 469 -18 q 324 5 392 -18 q 203 70 257 28 q 113 173 150 113 q 55 308 75 233 q 35 472 35 383 q 55 635 35 560 q 113 771 75 711 q 203 874 150 831 q 322 939 256 917 q 467 961 389 961 q 609 938 543 961 q 728 873 675 915 q 818 770 781 831 q 875 635 856 710 q 894 471 894 560 q 875 308 894 383 q 819 172 856 232 q 730 69 782 113 q 612 4 678 26 q 469 -18 546 -18 m 464 213 q 531 224 500 213 q 588 258 563 236 q 631 310 613 279 q 658 381 649 342 q 667 465 667 419 l 667 472 q 642 608 667 550 q 572 699 617 667 q 465 732 526 732 q 360 699 406 732 q 289 608 314 667 q 264 471 264 550 q 289 335 264 393 q 359 244 314 276 q 464 213 404 213 z "},"1":{"ha":689,"x_min":31,"x_max":649,"o":"m 522 -15 q 425 13 453 -15 q 397 111 397 40 l 397 835 q 425 932 397 904 q 524 960 453 960 q 621 931 593 960 q 649 832 649 903 l 649 110 q 621 13 649 40 q 522 -15 593 -15 m 244 429 q 160 388 199 386 q 76 438 121 390 q 34 528 31 486 q 92 621 38 569 l 407 918 q 492 957 451 961 q 575 906 532 953 q 615 817 619 858 q 557 724 611 775 l 244 429 z "},"2":{"ha":1049,"x_min":35,"x_max":1014,"o":"m 161 -15 q 72 24 110 -15 q 35 114 35 63 q 50 179 35 149 q 93 236 65 210 q 157 286 121 263 q 292 357 217 325 q 442 419 367 389 q 583 481 518 450 q 686 549 647 513 q 725 628 725 585 q 708 663 725 642 q 645 702 692 685 q 508 719 599 719 q 418 710 458 719 q 349 683 378 700 q 304 642 319 665 q 289 590 289 618 q 283 534 289 561 q 251 490 278 507 q 161 472 225 472 q 72 491 99 472 q 40 540 46 510 q 35 600 35 569 q 65 730 35 664 q 154 851 94 796 q 302 940 214 906 q 507 974 390 974 q 756 924 650 974 q 922 792 863 875 q 981 607 981 710 q 945 483 981 539 q 853 384 910 428 q 734 309 797 340 q 613 258 671 278 q 517 228 556 238 q 474 218 479 218 l 488 240 l 888 240 q 949 235 919 240 q 996 202 978 229 q 1014 111 1014 175 q 995 23 1014 50 q 947 -10 976 -4 q 885 -15 917 -15 l 161 -15 z "},"3":{"ha":1107,"x_min":63,"x_max":1058,"o":"m 558 -29 q 362 -7 453 -29 q 204 56 271 15 q 100 153 138 96 q 63 282 63 211 q 201 369 63 369 q 264 360 244 369 q 293 334 283 350 q 315 297 303 318 q 381 244 339 261 q 471 224 422 228 q 560 219 519 219 q 681 229 625 219 q 770 257 736 239 q 804 299 804 275 q 771 344 804 326 q 685 371 738 363 q 572 379 632 379 q 513 383 542 379 q 465 413 483 388 q 446 500 446 438 q 465 588 446 564 q 513 616 483 613 q 574 619 543 619 q 677 623 629 619 q 754 636 725 626 q 783 664 783 646 q 753 699 783 685 q 675 722 724 714 q 572 729 626 729 q 431 721 476 729 q 370 699 386 713 q 347 674 354 686 q 275 603 321 615 q 172 625 229 592 q 104 701 113 661 q 124 797 96 742 q 133 813 124 796 q 167 857 142 831 q 242 910 193 883 q 368 956 290 938 q 558 974 446 974 q 784 946 692 974 q 933 874 876 918 q 1014 776 989 829 q 1039 669 1039 722 q 1014 581 1039 617 q 957 526 989 546 q 904 497 925 506 q 944 472 919 489 q 996 431 969 456 q 1040 374 1022 407 q 1058 301 1058 342 q 1005 131 1058 206 q 840 14 951 57 q 558 -29 729 -29 z "},"4":{"ha":1039,"x_min":35,"x_max":963,"o":"m 833 -11 q 744 8 771 -11 q 713 56 718 26 q 707 117 707 86 l 707 261 l 161 261 q 72 280 99 261 q 40 328 46 299 q 35 389 35 358 q 35 414 35 404 q 39 433 36 424 l 174 865 q 229 957 197 939 q 331 956 261 975 q 409 912 382 942 q 425 849 436 882 l 317 500 l 707 500 l 707 840 q 713 898 707 871 q 745 943 718 925 q 836 961 772 961 q 925 942 899 961 q 957 894 951 924 q 963 833 963 865 l 963 115 q 956 54 963 83 q 924 7 950 25 q 833 -11 897 -11 z "},"5":{"ha":1006,"x_min":35,"x_max":971,"o":"m 494 -31 q 322 -14 397 -31 q 194 25 246 3 q 115 64 142 47 q 88 81 88 81 q 51 119 67 99 q 35 165 35 139 q 47 210 35 188 q 86 260 60 233 q 128 295 107 283 q 172 307 150 307 q 215 297 193 307 q 267 261 236 286 q 310 229 288 247 q 374 197 333 211 q 486 183 414 183 q 633 203 585 183 q 699 251 682 222 q 715 304 715 279 q 698 356 715 328 q 633 406 681 385 q 490 426 585 426 q 389 415 432 426 q 322 392 346 404 q 297 379 299 381 q 265 356 283 367 q 219 346 247 346 q 176 353 199 346 q 129 374 154 360 q 67 415 85 397 q 50 456 50 433 l 101 836 q 113 887 104 857 q 147 940 121 917 q 229 963 174 963 l 825 961 q 885 956 857 961 q 933 923 914 950 q 951 831 951 896 q 934 745 951 771 q 889 715 917 719 q 832 710 861 710 l 340 710 l 324 578 q 384 603 353 593 q 447 619 415 614 q 507 625 479 625 l 600 625 q 731 601 665 625 q 851 535 797 578 q 938 435 906 492 q 971 314 971 379 q 920 139 971 217 q 765 15 869 61 q 494 -31 660 -31 z "},"6":{"ha":1032,"x_min":35,"x_max":997,"o":"m 525 -29 q 238 19 346 -29 q 83 156 131 67 q 35 369 35 246 q 88 584 35 489 q 228 749 140 679 q 424 867 317 819 q 642 937 532 914 q 849 960 753 960 q 907 954 879 960 q 953 922 935 949 q 971 832 971 896 q 952 743 971 769 q 904 712 933 717 q 843 706 875 707 q 708 696 775 703 q 577 676 640 689 q 459 645 514 664 q 363 599 404 626 q 299 535 322 572 l 296 526 q 316 533 296 519 q 388 562 336 546 q 535 578 440 578 q 794 538 692 578 q 947 432 896 497 q 997 289 997 367 q 947 128 997 200 q 792 13 897 56 q 525 -29 688 -29 m 519 208 q 668 216 619 208 q 731 240 717 224 q 746 282 746 257 q 730 318 746 303 q 667 342 714 333 q 528 350 621 350 q 381 342 431 350 q 313 319 331 333 q 296 285 296 304 q 310 241 296 258 q 372 216 325 224 q 519 208 419 208 z "},"7":{"ha":1058,"x_min":35,"x_max":1024,"o":"m 435 -12 q 346 1 372 -12 q 313 41 319 15 q 307 99 307 67 q 335 238 307 171 q 407 365 363 304 q 501 480 451 426 q 598 577 551 533 q 677 653 644 621 q 717 704 710 685 l 161 704 q 101 710 131 704 q 53 743 72 717 q 35 832 35 769 q 53 921 35 894 q 98 953 71 947 q 154 958 125 958 l 897 958 q 987 940 961 958 q 1018 892 1013 921 q 1024 831 1024 863 q 990 716 1024 776 q 904 592 957 656 q 793 465 851 529 q 682 336 735 400 q 596 212 629 272 q 563 96 563 151 q 556 40 563 65 q 523 1 550 15 q 435 -12 496 -12 z "},"8":{"ha":1060,"x_min":35,"x_max":1025,"o":"m 533 -31 q 252 13 363 -31 q 88 133 142 57 q 35 304 35 208 q 50 388 35 350 q 86 454 65 426 q 124 498 107 482 q 146 517 142 514 q 132 508 150 521 q 145 499 153 494 q 117 526 138 504 q 80 586 97 549 q 63 674 63 624 q 113 828 63 760 q 268 938 164 897 q 533 979 372 979 q 796 938 693 979 q 948 826 899 897 q 997 668 997 756 q 972 605 997 635 q 910 552 946 575 q 842 515 875 529 q 792 499 808 501 q 790 508 776 496 q 792 517 774 521 q 849 497 811 514 q 926 453 886 481 q 996 387 967 425 q 1025 304 1025 349 q 991 163 1025 225 q 892 57 957 100 q 737 -8 828 14 q 533 -31 646 -31 m 532 213 q 682 224 631 213 q 752 255 733 235 q 771 299 771 275 q 752 341 771 322 q 681 371 733 360 q 529 382 629 382 q 378 371 431 382 q 308 341 326 360 q 289 299 289 322 q 308 255 289 275 q 380 224 328 235 q 532 213 432 213 m 532 617 q 667 624 622 617 q 728 646 713 632 q 743 675 743 660 q 728 705 743 692 q 667 726 713 718 q 531 733 621 733 q 394 726 439 733 q 334 706 349 719 q 319 675 319 693 q 335 646 319 660 q 396 624 350 632 q 532 617 442 617 z "},"9":{"ha":1032,"x_min":35,"x_max":997,"o":"m 183 -29 q 125 -24 153 -29 q 79 9 97 -18 q 61 99 61 36 q 80 188 61 163 q 128 219 99 214 q 189 225 158 224 q 324 235 257 228 q 455 254 392 242 q 573 285 518 267 q 669 331 628 304 q 733 396 710 358 l 736 404 q 716 398 736 411 q 644 369 696 385 q 497 353 592 353 q 239 393 342 353 q 85 499 136 433 q 35 642 35 565 q 85 803 35 731 q 240 917 136 875 q 507 960 344 960 q 794 912 686 960 q 949 775 901 864 q 997 561 997 686 q 944 347 997 442 q 803 181 892 251 q 608 64 715 111 q 390 -6 500 17 q 183 -29 279 -29 m 504 581 q 652 589 603 581 q 719 612 701 597 q 736 646 736 626 q 722 690 736 674 q 660 715 708 707 q 513 722 613 722 q 364 715 413 722 q 301 691 315 707 q 286 649 286 675 q 302 613 286 629 q 365 589 318 597 q 504 581 411 581 z "},"A":{"ha":1413,"x_min":11,"x_max":1404,"o":"m 1372 169 q 1403 102 1401 132 q 1382 46 1404 72 q 1313 -8 1360 19 q 1219 -26 1256 -42 q 1133 51 1182 -11 l 704 611 l 276 51 q 192 -24 229 -8 q 96 -7 154 -39 q 31 42 51 18 q 13 97 11 67 q 36 168 15 126 l 585 893 q 631 940 600 914 q 706 965 663 965 q 761 952 738 965 q 801 922 785 939 q 825 893 817 904 l 1372 169 m 344 182 l 457 413 l 953 413 l 1064 182 l 344 182 z "},"Á":{"ha":1413,"x_min":11,"x_max":1404,"o":"m 1372 169 q 1403 102 1401 132 q 1382 46 1404 72 q 1313 -8 1360 19 q 1219 -26 1256 -42 q 1133 51 1182 -11 l 704 611 l 276 51 q 192 -24 229 -8 q 96 -7 154 -39 q 31 42 51 18 q 13 97 11 67 q 36 168 15 126 l 585 893 q 631 940 600 914 q 706 965 663 965 q 761 952 738 965 q 801 922 785 939 q 825 893 817 904 l 1372 169 m 344 182 l 457 413 l 953 413 l 1064 182 l 344 182 m 656 1021 q 592 1026 615 1010 q 553 1099 569 1043 q 547 1186 535 1157 q 607 1229 560 1215 l 824 1294 q 893 1292 868 1308 q 936 1219 918 1275 q 944 1135 956 1164 q 883 1090 932 1107 l 656 1021 z "},"Â":{"ha":1413,"x_min":11,"x_max":1404,"o":"m 1372 169 q 1403 102 1401 132 q 1382 46 1404 72 q 1313 -8 1360 19 q 1219 -26 1256 -42 q 1133 51 1182 -11 l 704 611 l 276 51 q 192 -24 229 -8 q 96 -7 154 -39 q 31 42 51 18 q 13 97 11 67 q 36 168 15 126 l 585 893 q 631 940 600 914 q 706 965 663 965 q 761 952 738 965 q 801 922 785 939 q 825 893 817 904 l 1372 169 m 344 182 l 457 413 l 953 413 l 1064 182 l 344 182 m 708 1289 q 728 1286 719 1289 q 742 1282 738 1283 l 921 1222 q 975 1172 965 1208 q 963 1092 985 1136 q 921 1031 944 1054 q 874 1017 897 1007 l 708 1079 l 544 1019 q 495 1034 518 1010 q 453 1093 472 1058 q 438 1172 429 1138 q 493 1222 447 1207 l 674 1282 q 687 1286 676 1283 q 708 1289 697 1289 z "},"Ä":{"ha":1413,"x_min":11,"x_max":1404,"o":"m 1372 169 q 1403 102 1401 132 q 1382 46 1404 72 q 1313 -8 1360 19 q 1219 -26 1256 -42 q 1133 51 1182 -11 l 704 611 l 276 51 q 192 -24 229 -8 q 96 -7 154 -39 q 31 42 51 18 q 13 97 11 67 q 36 168 15 126 l 585 893 q 631 940 600 914 q 706 965 663 965 q 761 952 738 965 q 801 922 785 939 q 825 893 817 904 l 1372 169 m 344 182 l 457 413 l 953 413 l 1064 182 l 344 182 m 885 1033 q 794 1052 821 1033 q 763 1101 768 1071 q 757 1163 757 1131 q 763 1224 757 1194 q 795 1271 768 1253 q 886 1289 822 1289 q 976 1270 950 1289 q 1008 1222 1003 1251 q 1014 1160 1014 1192 q 1008 1100 1014 1129 q 976 1052 1003 1071 q 885 1033 950 1033 m 536 1033 q 446 1052 472 1033 q 414 1101 419 1071 q 408 1163 408 1131 q 415 1224 410 1194 q 447 1271 419 1253 q 538 1289 474 1289 q 628 1270 601 1289 q 660 1222 654 1251 q 665 1160 665 1192 q 660 1100 665 1129 q 628 1052 654 1071 q 536 1033 601 1033 z "},"À":{"ha":1274,"x_min":11,"x_max":1404,"o":"m 1372 169 q 1403 102 1401 132 q 1382 46 1404 72 q 1313 -8 1360 19 q 1219 -26 1256 -42 q 1133 51 1182 -11 l 704 611 l 276 51 q 192 -24 229 -8 q 96 -7 154 -39 q 31 42 51 18 q 13 97 11 67 q 36 168 15 126 l 585 893 q 631 940 600 914 q 706 965 663 965 q 761 952 738 965 q 801 922 785 939 q 825 893 817 904 l 1372 169 m 344 182 l 457 413 l 953 413 l 1064 182 l 344 182 m 664 1076 l 436 1146 q 376 1191 388 1163 q 383 1275 365 1219 q 428 1347 403 1331 q 496 1350 453 1364 l 713 1285 q 773 1242 761 1271 q 767 1154 785 1213 q 727 1082 750 1099 q 664 1076 704 1065 z "},"Å":{"ha":1413,"x_min":11,"x_max":1404,"o":"m 1372 169 q 1403 102 1401 132 q 1382 46 1404 72 q 1313 -8 1360 19 q 1219 -26 1256 -42 q 1133 51 1182 -11 l 704 611 l 276 51 q 192 -24 229 -8 q 96 -7 154 -39 q 31 42 51 18 q 13 97 11 67 q 36 168 15 126 l 585 893 q 631 940 600 914 q 706 965 663 965 q 761 952 738 965 q 801 922 785 939 q 825 893 817 904 l 1372 169 m 344 182 l 457 413 l 953 413 l 1064 182 l 344 182 m 708 1028 q 619 1052 660 1028 q 553 1117 578 1076 q 529 1207 529 1158 q 553 1298 529 1257 q 618 1363 578 1339 q 707 1388 658 1388 q 798 1364 757 1388 q 863 1299 839 1340 q 888 1208 888 1258 q 863 1117 888 1158 q 799 1052 839 1076 q 708 1028 758 1028 m 708 1142 q 755 1161 736 1142 q 774 1210 774 1181 q 755 1256 774 1238 q 707 1274 736 1274 q 661 1255 681 1274 q 642 1208 642 1236 q 661 1160 642 1179 q 708 1142 681 1142 z "},"Ã":{"ha":1413,"x_min":11,"x_max":1404,"o":"m 1372 169 q 1403 102 1401 132 q 1382 46 1404 72 q 1313 -8 1360 19 q 1219 -26 1256 -42 q 1133 51 1182 -11 l 704 611 l 276 51 q 192 -24 229 -8 q 96 -7 154 -39 q 31 42 51 18 q 13 97 11 67 q 36 168 15 126 l 585 893 q 631 940 600 914 q 706 965 663 965 q 761 952 738 965 q 801 922 785 939 q 825 893 817 904 l 1372 169 m 344 182 l 457 413 l 953 413 l 1064 182 l 344 182 m 640 1261 q 695 1244 676 1261 q 727 1211 714 1228 q 756 1194 740 1194 q 789 1211 776 1194 q 816 1244 801 1228 q 857 1261 831 1261 q 885 1256 871 1261 q 914 1239 899 1250 q 969 1180 960 1208 q 954 1111 979 1151 q 908 1057 938 1083 q 843 1015 878 1031 q 776 999 808 999 q 722 1016 742 999 q 688 1051 701 1033 q 657 1068 674 1068 q 601 1053 619 1068 q 572 1025 583 1039 q 545 1001 558 1007 q 493 1026 532 996 q 444 1086 450 1060 q 464 1151 438 1113 q 514 1204 483 1179 q 578 1245 544 1229 q 640 1261 613 1261 z "},"Æ":{"ha":1826,"x_min":28,"x_max":1792,"o":"m 872 -12 q 791 4 817 -11 q 758 44 765 19 q 749 97 750 69 l 749 560 l 263 26 q 201 -20 232 -8 q 140 -20 169 -32 q 81 25 110 -8 q 38 92 47 64 q 40 145 28 119 q 81 204 51 171 l 732 922 q 773 950 749 940 q 824 960 797 960 l 1665 960 q 1726 954 1697 960 q 1773 922 1754 949 q 1792 832 1792 896 q 1773 743 1792 769 q 1725 711 1754 717 q 1664 706 1696 706 l 1003 706 l 1003 582 l 1538 582 q 1594 577 1569 582 q 1635 550 1619 572 q 1650 472 1650 528 q 1635 397 1650 419 q 1593 369 1619 374 q 1535 365 1567 365 l 1003 365 l 1003 242 l 1665 242 q 1726 236 1697 242 q 1773 204 1754 231 q 1792 114 1792 178 q 1773 25 1792 51 q 1725 -7 1754 -1 q 1664 -12 1696 -12 l 872 -12 m 378 178 l 575 396 l 769 396 l 769 178 l 378 178 z "},"B":{"ha":1346,"x_min":104,"x_max":1297,"o":"m 231 -11 q 141 8 167 -11 q 110 56 115 26 q 104 118 104 86 l 104 835 q 110 894 104 865 q 142 942 115 924 q 232 961 168 961 l 926 961 q 1096 928 1018 961 q 1222 834 1174 894 q 1269 694 1269 774 q 1249 601 1269 640 q 1204 540 1229 563 q 1164 508 1179 517 q 1219 468 1188 500 q 1274 388 1250 436 q 1297 283 1297 340 q 1267 163 1297 217 q 1187 69 1238 108 q 1072 10 1136 31 q 940 -11 1008 -11 l 231 -11 m 358 243 l 946 243 q 979 247 956 243 q 1023 266 1003 250 q 1043 319 1043 282 q 1036 352 1043 339 q 1017 373 1029 365 q 989 384 1004 381 q 957 389 974 388 q 925 390 940 390 l 775 390 q 690 414 715 390 q 665 497 665 438 q 692 577 665 554 q 782 600 718 600 l 919 600 q 953 601 936 600 q 983 608 969 603 q 1006 624 997 614 q 1015 653 1015 635 q 987 696 1015 685 q 915 707 958 707 l 358 707 l 358 243 z "},"C":{"ha":1339,"x_min":35,"x_max":1290,"o":"m 746 -26 q 498 -3 610 -26 q 299 65 386 21 q 154 170 213 108 q 65 310 96 232 q 35 479 35 389 q 65 643 35 568 q 155 778 96 718 q 301 881 214 839 q 500 947 388 924 q 750 969 613 969 q 953 953 864 969 q 1108 912 1043 936 q 1214 864 1174 888 q 1269 815 1249 842 q 1290 767 1290 788 q 1282 730 1290 751 q 1260 689 1274 708 q 1210 635 1238 656 q 1160 614 1182 614 q 1126 623 1147 614 q 1085 646 1106 632 q 1023 674 1067 658 q 909 702 979 690 q 740 714 839 714 q 544 697 628 714 q 403 647 460 679 q 317 571 346 615 q 289 472 289 526 q 317 374 289 418 q 403 297 346 329 q 544 248 460 265 q 740 231 628 231 q 911 243 840 231 q 1027 273 982 256 q 1092 304 1072 290 q 1130 324 1111 317 q 1161 332 1149 332 q 1210 310 1183 332 q 1258 253 1238 289 q 1281 208 1272 231 q 1289 172 1289 186 q 1268 126 1289 151 q 1213 79 1247 100 q 1112 31 1176 56 q 956 -10 1047 7 q 746 -26 864 -26 z "},"Ç":{"ha":1325,"x_min":35,"x_max":1290,"o":"m 746 -26 q 498 -3 610 -26 q 299 65 386 21 q 154 170 213 108 q 65 310 96 232 q 35 479 35 389 q 65 643 35 568 q 155 778 96 718 q 301 881 214 839 q 500 947 388 924 q 750 969 613 969 q 953 953 864 969 q 1108 912 1043 936 q 1214 864 1174 888 q 1269 815 1249 842 q 1290 767 1290 788 q 1282 730 1290 751 q 1260 689 1274 708 q 1210 635 1238 656 q 1160 614 1182 614 q 1126 623 1147 614 q 1085 646 1106 632 q 1023 674 1067 658 q 909 702 979 690 q 740 714 839 714 q 544 697 628 714 q 403 647 460 679 q 317 571 346 615 q 289 472 289 526 q 317 374 289 418 q 403 297 346 329 q 544 248 460 265 q 740 231 628 231 q 911 243 840 231 q 1027 273 982 256 q 1092 304 1072 290 q 1130 324 1111 317 q 1161 332 1149 332 q 1210 310 1183 332 q 1258 253 1238 289 q 1281 208 1272 231 q 1289 172 1289 186 q 1268 126 1289 151 q 1213 79 1247 100 q 1112 31 1176 56 q 956 -10 1047 7 q 746 -26 864 -26 m 701 -267 q 624 -247 661 -267 q 586 -196 586 -226 q 601 -158 586 -175 q 628 -133 617 -140 q 650 -125 639 -125 q 676 -135 668 -125 q 704 -144 685 -144 q 724 -137 711 -144 q 736 -112 736 -131 q 724 -86 736 -93 q 703 -79 711 -79 q 677 -90 689 -79 q 647 -100 665 -100 q 619 -87 631 -100 q 600 -65 607 -75 q 590 -45 594 -54 q 586 -28 586 -36 q 605 9 586 -7 q 651 33 624 25 q 703 42 678 42 q 771 25 735 42 q 833 -25 807 8 q 858 -111 858 -58 q 836 -192 858 -157 q 778 -247 814 -226 q 701 -267 742 -267 z "},"D":{"ha":1393,"x_min":76,"x_max":1344,"o":"m 203 -11 q 117 7 143 -11 q 83 54 90 25 q 76 117 76 83 l 76 835 q 82 894 76 865 q 114 942 88 924 q 204 960 140 961 l 860 960 q 1046 922 958 960 q 1201 819 1133 885 q 1306 665 1268 753 q 1344 479 1344 578 q 1306 289 1344 378 q 1201 133 1268 200 q 1045 27 1133 65 q 856 -11 957 -11 l 203 -11 m 331 243 l 860 243 q 975 274 922 243 q 1059 358 1028 306 q 1090 474 1090 410 q 1059 590 1090 538 q 975 674 1028 643 q 858 706 922 706 l 331 706 l 331 243 z "},"Ð":{"ha":1532,"x_min":35,"x_max":1497,"o":"m 356 -11 q 269 7 296 -11 q 236 54 243 25 q 229 117 229 83 l 229 835 q 235 894 229 865 q 267 942 240 924 q 357 960 293 961 l 1013 960 q 1199 922 1111 960 q 1353 819 1286 885 q 1459 665 1421 753 q 1497 479 1497 578 q 1459 289 1497 378 q 1353 133 1421 200 q 1198 27 1286 65 q 1008 -11 1110 -11 l 356 -11 m 483 243 l 1013 243 q 1128 274 1075 243 q 1212 358 1181 306 q 1243 474 1243 410 q 1212 590 1243 538 q 1128 674 1181 643 q 1011 706 1075 706 l 483 706 l 483 243 m 128 379 q 85 383 107 379 q 49 410 64 388 q 35 483 35 432 q 49 554 35 533 q 86 579 64 575 q 129 583 108 583 l 714 583 q 758 579 736 583 q 793 554 779 575 q 807 482 807 533 q 794 409 807 431 q 760 383 781 388 q 714 379 739 379 l 128 379 z "},"E":{"ha":1307,"x_min":76,"x_max":1258,"o":"m 203 -12 q 114 6 140 -12 q 82 55 88 25 q 76 115 76 85 l 76 833 q 105 933 76 906 q 207 960 133 960 l 1132 960 q 1192 954 1164 960 q 1240 922 1221 949 q 1258 832 1258 896 q 1240 743 1258 769 q 1192 711 1221 717 q 1131 706 1163 706 l 331 706 l 331 582 l 1004 582 q 1061 577 1036 582 q 1101 550 1086 572 q 1117 472 1117 528 q 1101 397 1117 419 q 1060 369 1086 374 q 1001 365 1033 365 l 331 365 l 331 242 l 1132 242 q 1192 236 1164 242 q 1240 204 1221 231 q 1258 114 1258 178 q 1240 25 1258 51 q 1192 -7 1221 -1 q 1131 -12 1163 -12 l 203 -12 z "},"É":{"ha":1307,"x_min":76,"x_max":1258,"o":"m 203 -12 q 114 6 140 -12 q 82 55 88 25 q 76 115 76 85 l 76 833 q 105 933 76 906 q 207 960 133 960 l 1132 960 q 1192 954 1164 960 q 1240 922 1221 949 q 1258 832 1258 896 q 1240 743 1258 769 q 1192 711 1221 717 q 1131 706 1163 706 l 331 706 l 331 582 l 1004 582 q 1061 577 1036 582 q 1101 550 1086 572 q 1117 472 1117 528 q 1101 397 1117 419 q 1060 369 1086 374 q 1001 365 1033 365 l 331 365 l 331 242 l 1132 242 q 1192 236 1164 242 q 1240 204 1221 231 q 1258 114 1258 178 q 1240 25 1258 51 q 1192 -7 1221 -1 q 1131 -12 1163 -12 l 203 -12 m 594 1021 q 531 1026 554 1010 q 492 1099 508 1043 q 486 1186 474 1157 q 546 1229 499 1215 l 763 1294 q 832 1292 807 1308 q 875 1219 857 1275 q 883 1135 894 1164 q 822 1090 871 1107 l 594 1021 z "},"Ê":{"ha":1307,"x_min":76,"x_max":1258,"o":"m 203 -12 q 114 6 140 -12 q 82 55 88 25 q 76 115 76 85 l 76 833 q 105 933 76 906 q 207 960 133 960 l 1132 960 q 1192 954 1164 960 q 1240 922 1221 949 q 1258 832 1258 896 q 1240 743 1258 769 q 1192 711 1221 717 q 1131 706 1163 706 l 331 706 l 331 582 l 1004 582 q 1061 577 1036 582 q 1101 550 1086 572 q 1117 472 1117 528 q 1101 397 1117 419 q 1060 369 1086 374 q 1001 365 1033 365 l 331 365 l 331 242 l 1132 242 q 1192 236 1164 242 q 1240 204 1221 231 q 1258 114 1258 178 q 1240 25 1258 51 q 1192 -7 1221 -1 q 1131 -12 1163 -12 l 203 -12 m 638 1289 q 658 1286 649 1289 q 671 1282 667 1283 l 850 1222 q 904 1172 894 1208 q 892 1092 914 1136 q 850 1031 874 1054 q 803 1017 826 1007 l 638 1079 l 474 1019 q 424 1034 447 1010 q 382 1093 401 1058 q 367 1172 358 1138 q 422 1222 376 1207 l 603 1282 q 616 1286 606 1283 q 638 1289 626 1289 z "},"Ë":{"ha":1307,"x_min":76,"x_max":1258,"o":"m 203 -12 q 114 6 140 -12 q 82 55 88 25 q 76 115 76 85 l 76 833 q 105 933 76 906 q 207 960 133 960 l 1132 960 q 1192 954 1164 960 q 1240 922 1221 949 q 1258 832 1258 896 q 1240 743 1258 769 q 1192 711 1221 717 q 1131 706 1163 706 l 331 706 l 331 582 l 1004 582 q 1061 577 1036 582 q 1101 550 1086 572 q 1117 472 1117 528 q 1101 397 1117 419 q 1060 369 1086 374 q 1001 365 1033 365 l 331 365 l 331 242 l 1132 242 q 1192 236 1164 242 q 1240 204 1221 231 q 1258 114 1258 178 q 1240 25 1258 51 q 1192 -7 1221 -1 q 1131 -12 1163 -12 l 203 -12 m 814 1033 q 724 1052 750 1033 q 692 1101 697 1071 q 686 1163 686 1131 q 692 1224 686 1194 q 724 1271 697 1253 q 815 1289 751 1289 q 906 1270 879 1289 q 938 1222 932 1251 q 943 1160 943 1192 q 938 1100 943 1129 q 906 1052 932 1071 q 814 1033 879 1033 m 465 1033 q 375 1052 401 1033 q 343 1101 349 1071 q 338 1163 338 1131 q 344 1224 339 1194 q 376 1271 349 1253 q 467 1289 403 1289 q 557 1270 531 1289 q 589 1222 583 1251 q 594 1160 594 1192 q 589 1100 594 1129 q 557 1052 583 1071 q 465 1033 531 1033 z "},"È":{"ha":1307,"x_min":76,"x_max":1258,"o":"m 203 -12 q 114 6 140 -12 q 82 55 88 25 q 76 115 76 85 l 76 833 q 105 933 76 906 q 207 960 133 960 l 1132 960 q 1192 954 1164 960 q 1240 922 1221 949 q 1258 832 1258 896 q 1240 743 1258 769 q 1192 711 1221 717 q 1131 706 1163 706 l 331 706 l 331 582 l 1004 582 q 1061 577 1036 582 q 1101 550 1086 572 q 1117 472 1117 528 q 1101 397 1117 419 q 1060 369 1086 374 q 1001 365 1033 365 l 331 365 l 331 242 l 1132 242 q 1192 236 1164 242 q 1240 204 1221 231 q 1258 114 1258 178 q 1240 25 1258 51 q 1192 -7 1221 -1 q 1131 -12 1163 -12 l 203 -12 m 640 1021 l 413 1090 q 353 1135 364 1107 q 360 1219 342 1164 q 404 1292 379 1275 q 472 1294 429 1308 l 689 1229 q 749 1186 738 1215 q 743 1099 761 1157 q 703 1026 726 1043 q 640 1021 681 1010 z "},"F":{"ha":1319,"x_min":90,"x_max":1271,"o":"m 217 -12 q 128 6 154 -12 q 96 55 101 25 q 90 115 90 85 l 90 833 q 119 933 90 906 q 221 960 147 960 l 1146 960 q 1206 954 1178 960 q 1253 922 1235 949 q 1271 832 1271 896 q 1252 743 1271 769 q 1204 711 1233 717 q 1143 706 1175 706 l 344 706 l 344 582 l 1017 582 q 1074 577 1049 582 q 1115 549 1100 572 q 1129 471 1129 526 q 1114 396 1129 418 q 1073 369 1099 374 q 1015 365 1047 365 l 344 365 l 344 114 q 339 54 344 83 q 307 6 333 25 q 217 -12 281 -12 z "},"G":{"ha":1363,"x_min":35,"x_max":1307,"o":"m 704 -26 q 419 7 543 -28 q 209 108 294 42 q 79 269 124 175 q 35 476 35 363 q 80 678 35 588 q 212 835 125 769 q 425 938 299 901 q 714 976 551 975 q 922 965 829 978 q 1084 928 1014 951 q 1200 872 1154 904 q 1257 822 1236 849 q 1278 775 1278 794 q 1269 740 1278 761 q 1246 697 1261 718 q 1195 644 1224 664 q 1143 624 1167 624 q 1112 633 1132 624 q 1068 656 1092 642 q 987 692 1036 676 q 868 715 938 707 q 707 722 799 724 q 475 689 568 721 q 335 601 382 657 q 289 474 289 546 q 335 344 289 399 q 476 259 382 289 q 710 231 569 229 q 857 238 793 232 q 969 253 921 243 q 1053 276 1018 263 l 1053 368 l 736 368 q 688 373 710 368 q 653 400 667 378 q 639 476 639 422 q 654 553 639 531 q 693 579 669 575 q 740 583 717 583 l 1197 583 q 1255 567 1231 582 q 1293 524 1279 551 q 1307 463 1307 497 l 1307 219 q 1270 138 1307 181 q 1172 64 1233 94 q 1048 17 1118 38 q 892 -14 978 -3 q 704 -26 806 -25 z "},"H":{"ha":1394,"x_min":76,"x_max":1318,"o":"m 1190 -11 q 1101 8 1128 -11 q 1069 56 1075 26 q 1064 117 1064 86 l 1064 833 q 1069 893 1064 864 q 1101 941 1075 922 q 1192 960 1128 960 q 1281 941 1256 960 q 1313 893 1307 922 q 1318 832 1318 864 l 1318 115 q 1313 56 1318 85 q 1281 8 1307 26 q 1190 -11 1254 -11 m 203 -11 q 114 8 140 -11 q 82 56 88 26 q 76 117 76 86 l 76 833 q 82 893 76 864 q 114 941 88 922 q 204 960 140 960 q 294 941 268 960 q 325 893 319 922 q 331 832 331 864 l 331 115 q 325 56 331 85 q 293 8 319 26 q 203 -11 267 -11 m 308 365 l 308 582 l 1086 582 l 1086 365 l 308 365 z "},"I":{"ha":471,"x_min":108,"x_max":363,"o":"m 235 -12 q 145 6 171 -12 q 114 55 119 25 q 108 115 108 85 l 108 833 q 114 893 108 864 q 146 941 119 922 q 236 960 172 960 q 326 941 300 960 q 357 893 351 922 q 363 832 363 864 l 363 114 q 357 54 363 83 q 325 6 351 25 q 235 -12 299 -12 z "},"Í":{"ha":471,"x_min":64,"x_max":485,"o":"m 235 -12 q 145 6 171 -12 q 114 55 119 25 q 108 115 108 85 l 108 833 q 114 893 108 864 q 146 941 119 922 q 236 960 172 960 q 326 941 300 960 q 357 893 351 922 q 363 832 363 864 l 363 114 q 357 54 363 83 q 325 6 351 25 q 235 -12 299 -12 m 185 1021 q 122 1026 144 1010 q 82 1099 99 1043 q 76 1186 64 1157 q 136 1229 89 1215 l 353 1294 q 422 1292 397 1308 q 465 1219 447 1275 q 473 1135 485 1164 q 413 1090 461 1107 l 185 1021 z "},"Î":{"ha":471,"x_min":-42,"x_max":514,"o":"m 235 -12 q 145 6 171 -12 q 114 55 119 25 q 108 115 108 85 l 108 833 q 114 893 108 864 q 146 941 119 922 q 236 960 172 960 q 326 941 300 960 q 357 893 351 922 q 363 832 363 864 l 363 114 q 357 54 363 83 q 325 6 351 25 q 235 -12 299 -12 m 238 1289 q 258 1286 249 1289 q 271 1282 267 1283 l 450 1222 q 504 1172 494 1208 q 492 1092 514 1136 q 450 1031 474 1054 q 403 1017 426 1007 l 238 1079 l 74 1019 q 24 1034 47 1010 q -18 1093 1 1058 q -33 1172 -42 1138 q 22 1222 -24 1207 l 203 1282 q 216 1286 206 1283 q 238 1289 226 1289 z "},"Ï":{"ha":471,"x_min":-62,"x_max":543,"o":"m 235 -12 q 145 6 171 -12 q 114 55 119 25 q 108 115 108 85 l 108 833 q 114 893 108 864 q 146 941 119 922 q 236 960 172 960 q 326 941 300 960 q 357 893 351 922 q 363 832 363 864 l 363 114 q 357 54 363 83 q 325 6 351 25 q 235 -12 299 -12 m 414 1033 q 324 1052 350 1033 q 292 1101 297 1071 q 286 1163 286 1131 q 292 1224 286 1194 q 324 1271 297 1253 q 415 1289 351 1289 q 506 1270 479 1289 q 538 1222 532 1251 q 543 1160 543 1192 q 538 1100 543 1129 q 506 1052 532 1071 q 414 1033 479 1033 m 65 1033 q -25 1052 1 1033 q -57 1101 -51 1071 q -62 1163 -62 1131 q -56 1224 -61 1194 q -24 1271 -51 1253 q 67 1289 3 1289 q 157 1270 131 1289 q 189 1222 183 1251 q 194 1160 194 1192 q 189 1100 194 1129 q 157 1052 183 1071 q 65 1033 131 1033 z "},"Ì":{"ha":471,"x_min":-58,"x_max":363,"o":"m 235 -12 q 145 6 171 -12 q 114 55 119 25 q 108 115 108 85 l 108 833 q 114 893 108 864 q 146 941 119 922 q 236 960 172 960 q 326 941 300 960 q 357 893 351 922 q 363 832 363 864 l 363 114 q 357 54 363 83 q 325 6 351 25 q 235 -12 299 -12 m 240 1021 l 13 1090 q -47 1135 -36 1107 q -40 1219 -58 1164 q 4 1292 -21 1275 q 72 1294 29 1308 l 289 1229 q 349 1186 338 1215 q 343 1099 361 1157 q 303 1026 326 1043 q 240 1021 281 1010 z "},"J":{"ha":1206,"x_min":35,"x_max":1129,"o":"m 558 -26 q 403 -15 475 -26 q 272 16 332 -4 q 165 64 213 36 q 83 126 118 92 q 48 172 61 149 q 35 213 35 196 q 48 258 35 232 q 83 307 61 285 q 131 344 106 331 q 174 357 156 357 q 217 342 192 357 q 265 304 242 328 q 326 265 288 282 q 424 240 365 249 q 565 231 483 231 q 674 240 619 231 q 773 267 728 250 q 846 307 818 285 q 874 354 874 329 l 874 822 q 880 886 874 854 q 913 939 886 918 q 1004 960 940 960 q 1091 940 1065 960 q 1123 891 1117 921 q 1129 831 1129 861 l 1129 344 q 1083 197 1129 264 q 956 79 1036 129 q 774 1 876 29 q 558 -26 671 -26 z "},"K":{"ha":1289,"x_min":76,"x_max":1249,"o":"m 203 -12 q 114 6 140 -12 q 82 55 88 25 q 76 115 76 85 l 76 833 q 82 893 76 864 q 114 941 88 922 q 204 960 140 960 q 294 941 268 960 q 325 893 319 922 q 331 832 331 864 l 331 635 l 1036 940 q 1108 965 1079 960 q 1161 953 1138 969 q 1210 893 1185 938 q 1238 785 1249 825 q 1163 719 1226 744 l 569 488 l 1164 224 q 1233 147 1222 185 q 1201 47 1243 108 q 1147 -12 1171 3 q 1096 -19 1124 -26 q 1024 11 1068 -11 l 331 361 l 331 114 q 325 54 331 83 q 293 6 319 25 q 203 -12 267 -12 z "},"L":{"ha":1228,"x_min":76,"x_max":1193,"o":"m 203 -12 q 114 6 140 -12 q 82 55 88 25 q 76 115 76 85 l 76 833 q 82 893 76 864 q 114 941 88 922 q 204 960 140 960 q 294 941 268 960 q 325 893 319 922 q 331 832 331 864 l 331 204 l 1086 204 q 1137 200 1113 204 q 1177 173 1161 196 q 1193 96 1193 150 q 1176 20 1193 43 q 1135 -8 1160 -3 q 1085 -12 1111 -12 l 203 -12 z "},"Ł":{"ha":1450,"x_min":28,"x_max":1415,"o":"m 157 289 q 81 288 107 275 q 40 357 54 301 q 43 435 28 410 q 106 474 58 460 l 736 653 q 815 651 788 668 q 851 586 842 635 q 848 509 861 535 q 788 469 835 483 l 157 289 m 425 -12 q 336 6 363 -12 q 304 55 310 25 q 299 115 299 85 l 299 833 q 304 893 299 864 q 336 941 310 922 q 426 960 363 960 q 516 941 490 960 q 547 893 542 922 q 553 832 553 864 l 553 204 l 1308 204 q 1359 200 1335 204 q 1399 173 1383 196 q 1415 96 1415 150 q 1399 20 1415 43 q 1358 -8 1382 -3 q 1307 -12 1333 -12 l 425 -12 z "},"M":{"ha":1615,"x_min":76,"x_max":1539,"o":"m 201 -11 q 114 7 140 -11 q 82 54 88 25 q 76 117 76 83 l 76 833 q 82 892 76 864 q 114 940 88 921 q 204 958 140 958 q 252 954 233 958 q 285 942 271 950 q 315 919 300 933 l 825 481 l 789 481 l 1297 918 q 1334 943 1317 935 q 1370 955 1351 951 q 1413 958 1389 958 q 1501 940 1475 958 q 1533 892 1528 921 q 1539 831 1539 863 l 1539 114 q 1533 54 1539 83 q 1501 7 1528 25 q 1411 -11 1475 -11 q 1322 8 1349 -11 q 1290 56 1296 26 q 1285 117 1285 86 l 1285 597 l 914 290 q 891 269 904 282 q 858 244 878 256 q 808 233 838 233 q 757 244 778 233 q 723 268 736 254 q 699 290 710 282 l 329 597 l 329 114 q 324 54 329 83 q 292 7 318 25 q 201 -11 265 -11 z "},"N":{"ha":1422,"x_min":76,"x_max":1346,"o":"m 201 -12 q 114 6 140 -12 q 82 54 88 25 q 76 115 76 83 l 76 836 q 85 894 76 867 q 121 940 93 922 q 204 958 149 958 q 271 943 244 958 q 328 904 297 928 l 1092 354 l 1092 836 q 1098 894 1092 867 q 1131 940 1104 922 q 1219 958 1157 958 q 1309 940 1283 958 q 1340 892 1335 921 q 1346 831 1346 863 l 1346 114 q 1341 54 1346 83 q 1313 6 1336 25 q 1232 -12 1289 -12 q 1165 -3 1196 -12 q 1106 25 1133 6 l 329 583 l 329 114 q 324 54 329 83 q 292 6 318 25 q 201 -12 265 -12 z "},"Ñ":{"ha":1422,"x_min":76,"x_max":1346,"o":"m 201 -12 q 114 6 140 -12 q 82 54 88 25 q 76 115 76 83 l 76 836 q 85 894 76 867 q 121 940 93 922 q 204 958 149 958 q 271 943 244 958 q 328 904 297 928 l 1092 354 l 1092 836 q 1098 894 1092 867 q 1131 940 1104 922 q 1219 958 1157 958 q 1309 940 1283 958 q 1340 892 1335 921 q 1346 831 1346 863 l 1346 114 q 1341 54 1346 83 q 1313 6 1336 25 q 1232 -12 1289 -12 q 1165 -3 1196 -12 q 1106 25 1133 6 l 329 583 l 329 114 q 324 54 329 83 q 292 6 318 25 q 201 -12 265 -12 m 672 1261 q 727 1244 708 1261 q 759 1211 746 1228 q 788 1194 772 1194 q 821 1211 808 1194 q 848 1244 833 1228 q 889 1261 863 1261 q 917 1256 903 1261 q 946 1239 931 1250 q 1001 1180 992 1208 q 986 1111 1011 1151 q 940 1057 969 1083 q 875 1015 910 1031 q 808 999 840 999 q 753 1016 774 999 q 719 1051 733 1033 q 689 1068 706 1068 q 633 1053 651 1068 q 604 1025 615 1039 q 577 1001 590 1007 q 525 1026 564 996 q 476 1086 482 1060 q 496 1151 469 1113 q 546 1204 515 1179 q 610 1245 576 1229 q 672 1261 644 1261 z "},"O":{"ha":1469,"x_min":49,"x_max":1421,"o":"m 742 -35 q 447 1 575 -35 q 229 103 318 36 q 94 261 140 169 q 49 465 49 353 q 94 675 49 581 q 226 837 139 769 q 440 941 313 904 q 731 978 567 978 q 1024 942 896 978 q 1241 838 1153 906 q 1375 678 1329 771 q 1421 471 1421 585 q 1376 264 1421 357 q 1244 104 1331 171 q 1031 1 1157 38 q 742 -35 904 -35 m 735 218 q 924 236 843 218 q 1060 288 1006 254 q 1141 367 1114 321 q 1168 471 1168 414 q 1141 575 1168 528 q 1060 656 1114 622 q 925 707 1006 689 q 736 725 844 725 q 547 707 628 725 q 411 656 465 689 q 330 575 357 622 q 303 471 303 528 q 330 367 303 414 q 411 288 357 321 q 546 236 465 254 q 735 218 626 218 z "},"Ó":{"ha":1469,"x_min":49,"x_max":1421,"o":"m 742 -35 q 447 1 575 -35 q 229 103 318 36 q 94 261 140 169 q 49 465 49 353 q 94 675 49 581 q 226 837 139 769 q 440 941 313 904 q 731 978 567 978 q 1024 942 896 978 q 1241 838 1153 906 q 1375 678 1329 771 q 1421 471 1421 585 q 1376 264 1421 357 q 1244 104 1331 171 q 1031 1 1157 38 q 742 -35 904 -35 m 735 218 q 924 236 843 218 q 1060 288 1006 254 q 1141 367 1114 321 q 1168 471 1168 414 q 1141 575 1168 528 q 1060 656 1114 622 q 925 707 1006 689 q 736 725 844 725 q 547 707 628 725 q 411 656 465 689 q 330 575 357 622 q 303 471 303 528 q 330 367 303 414 q 411 288 357 321 q 546 236 465 254 q 735 218 626 218 m 685 1021 q 622 1026 644 1010 q 582 1099 599 1043 q 576 1186 564 1157 q 636 1229 589 1215 l 853 1294 q 922 1292 897 1308 q 965 1219 947 1275 q 973 1135 985 1164 q 913 1090 961 1107 l 685 1021 z "},"Ô":{"ha":1469,"x_min":49,"x_max":1421,"o":"m 742 -35 q 447 1 575 -35 q 229 103 318 36 q 94 261 140 169 q 49 465 49 353 q 94 675 49 581 q 226 837 139 769 q 440 941 313 904 q 731 978 567 978 q 1024 942 896 978 q 1241 838 1153 906 q 1375 678 1329 771 q 1421 471 1421 585 q 1376 264 1421 357 q 1244 104 1331 171 q 1031 1 1157 38 q 742 -35 904 -35 m 735 218 q 924 236 843 218 q 1060 288 1006 254 q 1141 367 1114 321 q 1168 471 1168 414 q 1141 575 1168 528 q 1060 656 1114 622 q 925 707 1006 689 q 736 725 844 725 q 547 707 628 725 q 411 656 465 689 q 330 575 357 622 q 303 471 303 528 q 330 367 303 414 q 411 288 357 321 q 546 236 465 254 q 735 218 626 218 m 738 1289 q 758 1286 749 1289 q 771 1282 767 1283 l 950 1222 q 1004 1172 994 1208 q 992 1092 1014 1136 q 950 1031 974 1054 q 903 1017 926 1007 l 738 1079 l 574 1019 q 524 1034 547 1010 q 482 1093 501 1058 q 467 1172 458 1138 q 522 1222 476 1207 l 703 1282 q 716 1286 706 1283 q 738 1289 726 1289 z "},"Ö":{"ha":1469,"x_min":49,"x_max":1421,"o":"m 742 -35 q 447 1 575 -35 q 229 103 318 36 q 94 261 140 169 q 49 465 49 353 q 94 675 49 581 q 226 837 139 769 q 440 941 313 904 q 731 978 567 978 q 1024 942 896 978 q 1241 838 1153 906 q 1375 678 1329 771 q 1421 471 1421 585 q 1376 264 1421 357 q 1244 104 1331 171 q 1031 1 1157 38 q 742 -35 904 -35 m 735 218 q 924 236 843 218 q 1060 288 1006 254 q 1141 367 1114 321 q 1168 471 1168 414 q 1141 575 1168 528 q 1060 656 1114 622 q 925 707 1006 689 q 736 725 844 725 q 547 707 628 725 q 411 656 465 689 q 330 575 357 622 q 303 471 303 528 q 330 367 303 414 q 411 288 357 321 q 546 236 465 254 q 735 218 626 218 m 914 1033 q 824 1052 850 1033 q 792 1101 797 1071 q 786 1163 786 1131 q 792 1224 786 1194 q 824 1271 797 1253 q 915 1289 851 1289 q 1006 1270 979 1289 q 1038 1222 1032 1251 q 1043 1160 1043 1192 q 1038 1100 1043 1129 q 1006 1052 1032 1071 q 914 1033 979 1033 m 565 1033 q 475 1052 501 1033 q 443 1101 449 1071 q 438 1163 438 1131 q 444 1224 439 1194 q 476 1271 449 1253 q 567 1289 503 1289 q 657 1270 631 1289 q 689 1222 683 1251 q 694 1160 694 1192 q 689 1100 694 1129 q 657 1052 683 1071 q 565 1033 631 1033 z "},"Ò":{"ha":1469,"x_min":49,"x_max":1421,"o":"m 742 -35 q 447 1 575 -35 q 229 103 318 36 q 94 261 140 169 q 49 465 49 353 q 94 675 49 581 q 226 837 139 769 q 440 941 313 904 q 731 978 567 978 q 1024 942 896 978 q 1241 838 1153 906 q 1375 678 1329 771 q 1421 471 1421 585 q 1376 264 1421 357 q 1244 104 1331 171 q 1031 1 1157 38 q 742 -35 904 -35 m 735 218 q 924 236 843 218 q 1060 288 1006 254 q 1141 367 1114 321 q 1168 471 1168 414 q 1141 575 1168 528 q 1060 656 1114 622 q 925 707 1006 689 q 736 725 844 725 q 547 707 628 725 q 411 656 465 689 q 330 575 357 622 q 303 471 303 528 q 330 367 303 414 q 411 288 357 321 q 546 236 465 254 q 735 218 626 218 m 740 1021 l 513 1090 q 453 1135 464 1107 q 460 1219 442 1164 q 504 1292 479 1275 q 572 1294 529 1308 l 789 1229 q 849 1186 838 1215 q 843 1099 861 1157 q 803 1026 826 1043 q 740 1021 781 1010 z "},"Ø":{"ha":1442,"x_min":35,"x_max":1407,"o":"m 728 -35 q 433 1 561 -35 q 215 103 304 36 q 81 261 126 169 q 35 465 35 353 q 80 675 35 581 q 212 837 125 769 q 426 941 299 904 q 717 978 553 978 q 1010 942 882 978 q 1227 838 1139 906 q 1361 678 1315 771 q 1407 471 1407 585 q 1362 264 1407 357 q 1230 104 1317 171 q 1017 1 1143 38 q 728 -35 890 -35 m 721 218 q 910 236 829 218 q 1046 288 992 254 q 1127 367 1100 321 q 1154 471 1154 414 q 1127 575 1154 528 q 1046 656 1100 622 q 911 707 992 689 q 722 725 831 725 q 533 707 614 725 q 397 656 451 689 q 316 575 343 622 q 289 471 289 528 q 316 367 289 414 q 397 288 343 321 q 532 236 451 254 q 721 218 613 218 m 299 -108 q 247 -48 258 -82 q 265 29 235 -14 l 983 1049 q 1048 1094 1015 1093 q 1126 1065 1081 1096 q 1180 1001 1172 1035 q 1156 922 1188 967 l 442 -90 q 380 -135 413 -131 q 299 -108 347 -139 z "},"Õ":{"ha":1469,"x_min":49,"x_max":1421,"o":"m 742 -35 q 447 1 575 -35 q 229 103 318 36 q 94 261 140 169 q 49 465 49 353 q 94 675 49 581 q 226 837 139 769 q 440 941 313 904 q 731 978 567 978 q 1024 942 896 978 q 1241 838 1153 906 q 1375 678 1329 771 q 1421 471 1421 585 q 1376 264 1421 357 q 1244 104 1331 171 q 1031 1 1157 38 q 742 -35 904 -35 m 735 218 q 924 236 843 218 q 1060 288 1006 254 q 1141 367 1114 321 q 1168 471 1168 414 q 1141 575 1168 528 q 1060 656 1114 622 q 925 707 1006 689 q 736 725 844 725 q 547 707 628 725 q 411 656 465 689 q 330 575 357 622 q 303 471 303 528 q 330 367 303 414 q 411 288 357 321 q 546 236 465 254 q 735 218 626 218 m 669 1261 q 724 1244 706 1261 q 756 1211 743 1228 q 785 1194 769 1194 q 818 1211 806 1194 q 845 1244 831 1228 q 886 1261 860 1261 q 914 1256 900 1261 q 943 1239 928 1250 q 999 1180 989 1208 q 983 1111 1008 1151 q 937 1057 967 1083 q 872 1015 907 1031 q 806 999 838 999 q 751 1016 771 999 q 717 1051 731 1033 q 686 1068 703 1068 q 631 1053 649 1068 q 601 1025 613 1039 q 574 1001 588 1007 q 522 1026 561 996 q 473 1086 479 1060 q 493 1151 467 1113 q 543 1204 513 1179 q 608 1245 574 1229 q 669 1261 642 1261 z "},"Œ":{"ha":2136,"x_min":35,"x_max":2101,"o":"m 565 -12 q 349 20 447 -12 q 181 115 251 53 q 73 266 111 176 q 35 468 35 356 q 73 676 35 585 q 182 830 111 767 q 351 926 253 893 q 567 960 449 960 l 1974 960 q 2035 954 2006 960 q 2083 922 2064 949 q 2101 832 2101 896 q 2082 743 2101 769 q 2033 712 2063 717 q 1974 707 2004 707 l 1242 707 l 1242 600 l 1832 600 q 1892 594 1864 600 q 1940 563 1921 589 q 1958 472 1958 536 q 1940 383 1958 410 q 1891 351 1921 357 q 1829 346 1861 346 l 1242 346 l 1242 240 l 1974 240 q 2035 235 2006 240 q 2083 204 2064 231 q 2101 114 2101 178 q 2082 25 2101 51 q 2033 -7 2063 -1 q 1974 -12 2004 -12 l 565 -12 m 525 240 l 988 240 l 988 707 l 526 707 q 394 676 447 707 q 315 592 342 646 q 289 471 289 539 q 315 352 289 404 q 394 270 342 300 q 525 240 447 240 z "},"P":{"ha":1300,"x_min":76,"x_max":1251,"o":"m 203 -11 q 114 8 140 -11 q 82 56 88 26 q 76 117 76 86 l 76 833 q 82 893 76 864 q 114 941 88 922 q 204 960 140 960 l 897 960 q 1011 938 950 960 q 1127 872 1072 917 q 1217 761 1182 828 q 1251 603 1251 694 q 1217 446 1251 513 q 1127 335 1182 379 q 1011 270 1072 292 q 896 249 950 249 l 331 249 l 331 115 q 325 56 331 85 q 293 8 319 26 q 203 -11 267 -11 m 331 503 l 897 503 q 939 512 915 503 q 981 543 963 521 q 999 604 999 565 q 985 656 999 633 q 948 692 971 679 q 896 706 925 706 l 331 706 l 331 503 z "},"Þ":{"ha":1140,"x_min":69,"x_max":1106,"o":"m 196 -11 q 107 8 133 -11 q 75 56 81 26 q 69 117 69 86 l 69 833 q 75 893 69 864 q 107 941 81 922 q 197 960 133 960 q 287 941 261 960 q 318 893 313 922 q 324 832 324 864 l 324 829 l 751 829 q 865 808 804 829 q 981 742 926 786 q 1071 631 1036 697 q 1106 472 1106 564 q 1071 315 1106 382 q 981 205 1036 249 q 865 140 926 161 q 750 118 804 118 l 324 118 l 324 115 q 318 56 324 85 q 286 8 313 26 q 196 -11 260 -11 m 324 372 l 751 372 q 793 381 769 372 q 835 413 817 390 q 853 474 853 435 q 839 526 853 503 q 802 562 825 549 q 750 575 779 575 l 324 575 l 324 372 z "},"Q":{"ha":1553,"x_min":49,"x_max":1511,"o":"m 1438 219 q 1503 142 1496 181 q 1468 43 1511 104 q 1413 -15 1438 0 q 1359 -22 1388 -31 q 1292 11 1331 -14 l 1203 68 q 1019 -8 1126 19 q 742 -35 911 -35 q 447 1 575 -35 q 229 103 318 36 q 94 261 140 169 q 49 465 49 353 q 94 675 49 581 q 226 837 139 769 q 440 941 313 904 q 731 978 567 978 q 1024 942 896 978 q 1241 838 1153 906 q 1375 678 1329 771 q 1421 471 1421 585 q 1410 361 1421 414 q 1375 261 1399 308 l 1438 219 m 735 218 q 924 236 843 218 q 1060 288 1006 254 q 1141 367 1114 321 q 1168 471 1168 414 q 1141 575 1168 528 q 1060 656 1114 622 q 925 707 1006 689 q 736 725 844 725 q 547 707 628 725 q 411 656 465 689 q 330 575 357 622 q 303 471 303 528 q 330 367 303 414 q 411 288 357 321 q 546 236 465 254 q 735 218 626 218 z "},"R":{"ha":1321,"x_min":76,"x_max":1278,"o":"m 203 -11 q 114 8 140 -11 q 82 56 88 26 q 76 117 76 86 l 76 833 q 82 893 76 864 q 114 941 88 922 q 204 960 140 960 l 872 960 q 990 938 925 960 q 1115 872 1056 917 q 1214 761 1175 828 q 1253 603 1253 694 q 1230 483 1253 539 q 1165 383 1207 428 q 1066 303 1122 338 q 943 250 1010 269 l 331 250 l 331 115 q 325 56 331 85 q 293 8 319 26 q 203 -11 267 -11 m 1201 22 q 1103 -14 1139 -25 q 1025 49 1067 -3 l 728 414 l 1031 432 l 1231 200 q 1270 135 1263 164 q 1260 81 1278 107 q 1201 22 1243 54 m 331 503 l 872 503 q 906 508 885 503 q 949 524 928 513 q 984 556 969 536 q 999 604 999 575 q 978 656 999 633 q 927 692 957 679 q 869 706 897 706 l 331 706 l 331 503 z "},"S":{"ha":1226,"x_min":44,"x_max":1178,"o":"m 613 -26 q 417 -12 503 -26 q 266 25 331 1 q 157 78 201 49 q 83 136 113 107 q 50 193 56 165 q 59 251 44 221 q 107 315 74 281 q 167 348 139 347 q 224 331 194 349 q 288 288 253 313 q 423 232 339 253 q 635 211 507 211 q 803 219 743 211 q 885 242 863 226 q 908 283 908 258 q 884 315 908 303 q 817 337 860 328 q 719 353 775 346 q 601 369 664 361 q 453 393 529 379 q 308 428 378 407 q 183 483 239 450 q 96 564 128 515 q 64 679 64 613 q 125 835 64 768 q 306 938 186 901 q 600 975 425 975 q 766 968 694 975 q 893 948 838 961 q 992 917 949 935 q 1074 878 1036 900 q 1128 810 1128 846 q 1090 721 1129 775 q 1010 656 1049 661 q 915 679 971 651 q 826 713 875 700 q 717 731 776 725 q 585 738 657 738 q 462 733 511 738 q 384 722 413 729 q 343 703 356 714 q 331 678 331 692 q 356 644 331 657 q 426 621 382 631 q 528 603 469 611 q 650 586 586 594 q 833 555 740 574 q 1004 504 926 536 q 1130 419 1082 472 q 1178 288 1178 367 q 1141 156 1178 214 q 1033 57 1104 97 q 856 -5 961 17 q 613 -26 750 -26 z "},"Š":{"ha":1226,"x_min":44,"x_max":1178,"o":"m 613 -26 q 417 -12 503 -26 q 266 25 331 1 q 157 78 201 49 q 83 136 113 107 q 50 193 56 165 q 59 251 44 221 q 107 315 74 281 q 167 348 139 347 q 224 331 194 349 q 288 288 253 313 q 423 232 339 253 q 635 211 507 211 q 803 219 743 211 q 885 242 863 226 q 908 283 908 258 q 884 315 908 303 q 817 337 860 328 q 719 353 775 346 q 601 369 664 361 q 453 393 529 379 q 308 428 378 407 q 183 483 239 450 q 96 564 128 515 q 64 679 64 613 q 125 835 64 768 q 306 938 186 901 q 600 975 425 975 q 766 968 694 975 q 893 948 838 961 q 992 917 949 935 q 1074 878 1036 900 q 1128 810 1128 846 q 1090 721 1129 775 q 1010 656 1049 661 q 915 679 971 651 q 826 713 875 700 q 717 731 776 725 q 585 738 657 738 q 462 733 511 738 q 384 722 413 729 q 343 703 356 714 q 331 678 331 692 q 356 644 331 657 q 426 621 382 631 q 528 603 469 611 q 650 586 586 594 q 833 555 740 574 q 1004 504 926 536 q 1130 419 1082 472 q 1178 288 1178 367 q 1141 156 1178 214 q 1033 57 1104 97 q 856 -5 961 17 q 613 -26 750 -26 m 613 1228 l 719 1275 q 763 1288 738 1282 q 815 1280 788 1293 q 868 1215 843 1267 q 881 1133 892 1167 q 825 1085 869 1099 l 646 1025 q 633 1022 642 1025 q 613 1018 624 1018 q 592 1022 601 1018 q 579 1025 582 1025 l 400 1085 q 346 1133 357 1097 q 357 1215 335 1169 q 406 1279 382 1265 q 453 1290 431 1293 q 492 1281 475 1286 l 613 1228 z "},"T":{"ha":1278,"x_min":35,"x_max":1243,"o":"m 1138 961 q 1188 957 1164 961 q 1227 931 1211 953 q 1243 854 1243 908 q 1227 778 1243 801 q 1187 751 1211 756 q 1136 747 1163 747 l 764 747 l 764 111 q 758 52 764 81 q 727 6 753 24 q 638 -12 701 -12 q 550 6 576 -12 q 519 53 524 25 q 514 113 514 82 l 514 747 l 140 747 q 91 752 115 747 q 51 779 67 757 q 35 856 35 801 q 51 931 35 908 q 92 957 67 953 q 142 961 117 961 l 1138 961 z "},"U":{"ha":1429,"x_min":76,"x_max":1353,"o":"m 713 -28 q 427 7 547 -28 q 229 106 307 42 q 114 263 151 171 q 76 472 76 356 l 76 833 q 82 894 76 865 q 114 942 88 924 q 204 961 140 961 q 294 942 268 961 q 326 894 321 924 q 332 832 332 865 l 332 472 q 371 346 332 401 q 494 259 410 290 q 717 228 579 228 q 938 260 854 228 q 1060 347 1022 292 q 1099 474 1099 403 l 1099 840 q 1105 898 1099 871 q 1138 943 1111 925 q 1226 961 1164 961 q 1316 942 1290 961 q 1347 893 1342 922 q 1353 832 1353 864 l 1353 469 q 1315 262 1353 354 q 1199 105 1278 169 q 1000 6 1121 40 q 713 -28 879 -28 z "},"Ú":{"ha":1429,"x_min":76,"x_max":1353,"o":"m 713 -28 q 427 7 547 -28 q 229 106 307 42 q 114 263 151 171 q 76 472 76 356 l 76 833 q 82 894 76 865 q 114 942 88 924 q 204 961 140 961 q 294 942 268 961 q 326 894 321 924 q 332 832 332 865 l 332 472 q 371 346 332 401 q 494 259 410 290 q 717 228 579 228 q 938 260 854 228 q 1060 347 1022 292 q 1099 474 1099 403 l 1099 840 q 1105 898 1099 871 q 1138 943 1111 925 q 1226 961 1164 961 q 1316 942 1290 961 q 1347 893 1342 922 q 1353 832 1353 864 l 1353 469 q 1315 262 1353 354 q 1199 105 1278 169 q 1000 6 1121 40 q 713 -28 879 -28 m 664 1021 q 601 1026 624 1010 q 561 1099 578 1043 q 556 1186 543 1157 q 615 1229 568 1215 l 832 1294 q 901 1292 876 1308 q 944 1219 926 1275 q 952 1135 964 1164 q 892 1090 940 1107 l 664 1021 z "},"Û":{"ha":1429,"x_min":76,"x_max":1353,"o":"m 713 -28 q 427 7 547 -28 q 229 106 307 42 q 114 263 151 171 q 76 472 76 356 l 76 833 q 82 894 76 865 q 114 942 88 924 q 204 961 140 961 q 294 942 268 961 q 326 894 321 924 q 332 832 332 865 l 332 472 q 371 346 332 401 q 494 259 410 290 q 717 228 579 228 q 938 260 854 228 q 1060 347 1022 292 q 1099 474 1099 403 l 1099 840 q 1105 898 1099 871 q 1138 943 1111 925 q 1226 961 1164 961 q 1316 942 1290 961 q 1347 893 1342 922 q 1353 832 1353 864 l 1353 469 q 1315 262 1353 354 q 1199 105 1278 169 q 1000 6 1121 40 q 713 -28 879 -28 m 717 1289 q 737 1286 728 1289 q 750 1282 746 1283 l 929 1222 q 983 1172 974 1208 q 971 1092 993 1136 q 929 1031 953 1054 q 882 1017 906 1007 l 717 1079 l 553 1019 q 503 1034 526 1010 q 461 1093 481 1058 q 447 1172 438 1138 q 501 1222 456 1207 l 682 1282 q 695 1286 685 1283 q 717 1289 706 1289 z "},"Ü":{"ha":1429,"x_min":76,"x_max":1353,"o":"m 713 -28 q 427 7 547 -28 q 229 106 307 42 q 114 263 151 171 q 76 472 76 356 l 76 833 q 82 894 76 865 q 114 942 88 924 q 204 961 140 961 q 294 942 268 961 q 326 894 321 924 q 332 832 332 865 l 332 472 q 371 346 332 401 q 494 259 410 290 q 717 228 579 228 q 938 260 854 228 q 1060 347 1022 292 q 1099 474 1099 403 l 1099 840 q 1105 898 1099 871 q 1138 943 1111 925 q 1226 961 1164 961 q 1316 942 1290 961 q 1347 893 1342 922 q 1353 832 1353 864 l 1353 469 q 1315 262 1353 354 q 1199 105 1278 169 q 1000 6 1121 40 q 713 -28 879 -28 m 893 1033 q 803 1052 829 1033 q 771 1101 776 1071 q 765 1163 765 1131 q 771 1224 765 1194 q 803 1271 776 1253 q 894 1289 831 1289 q 985 1270 958 1289 q 1017 1222 1011 1251 q 1022 1160 1022 1192 q 1017 1100 1022 1129 q 985 1052 1011 1071 q 893 1033 958 1033 m 544 1033 q 454 1052 481 1033 q 422 1101 428 1071 q 417 1163 417 1131 q 423 1224 418 1194 q 455 1271 428 1253 q 546 1289 482 1289 q 636 1270 610 1289 q 668 1222 663 1251 q 674 1160 674 1192 q 668 1100 674 1129 q 636 1052 663 1071 q 544 1033 610 1033 z "},"Ù":{"ha":1429,"x_min":76,"x_max":1353,"o":"m 713 -28 q 427 7 547 -28 q 229 106 307 42 q 114 263 151 171 q 76 472 76 356 l 76 833 q 82 894 76 865 q 114 942 88 924 q 204 961 140 961 q 294 942 268 961 q 326 894 321 924 q 332 832 332 865 l 332 472 q 371 346 332 401 q 494 259 410 290 q 717 228 579 228 q 938 260 854 228 q 1060 347 1022 292 q 1099 474 1099 403 l 1099 840 q 1105 898 1099 871 q 1138 943 1111 925 q 1226 961 1164 961 q 1316 942 1290 961 q 1347 893 1342 922 q 1353 832 1353 864 l 1353 469 q 1315 262 1353 354 q 1199 105 1278 169 q 1000 6 1121 40 q 713 -28 879 -28 m 719 1021 l 492 1090 q 432 1135 443 1107 q 439 1219 421 1164 q 483 1292 458 1275 q 551 1294 508 1308 l 768 1229 q 828 1186 817 1215 q 822 1099 840 1157 q 783 1026 806 1043 q 719 1021 760 1010 z "},"V":{"ha":1404,"x_min":21,"x_max":1383,"o":"m 704 -11 q 630 8 658 -11 q 579 58 601 28 l 56 782 q 38 869 21 832 q 119 944 56 906 q 191 969 164 971 q 240 946 218 968 q 288 886 263 924 l 701 304 l 1115 886 q 1164 946 1142 924 q 1214 969 1186 968 q 1283 944 1242 971 q 1368 867 1353 903 q 1347 782 1383 832 l 824 58 q 774 10 804 31 q 704 -11 744 -11 z "},"W":{"ha":1771,"x_min":24,"x_max":1736,"o":"m 526 -11 q 458 4 482 -11 q 424 39 435 19 q 407 71 414 58 l 53 792 q 42 887 24 850 q 133 953 61 924 q 208 969 181 972 q 253 941 235 965 q 293 874 271 917 l 542 396 l 760 867 q 781 905 768 883 q 817 943 793 926 q 882 960 842 960 q 953 942 928 960 q 992 901 979 924 q 1010 865 1004 879 l 1228 393 l 1476 874 q 1517 942 1499 917 q 1563 971 1536 967 q 1638 954 1590 975 q 1711 910 1688 933 q 1735 859 1735 888 q 1717 792 1736 831 l 1364 71 q 1348 39 1358 58 q 1314 4 1338 19 q 1243 -11 1290 -11 q 1171 3 1196 -11 q 1136 38 1146 18 q 1119 71 1126 57 l 885 593 l 650 71 q 633 38 644 57 q 599 3 622 18 q 526 -11 575 -11 z "},"X":{"ha":1439,"x_min":42,"x_max":1397,"o":"m 1349 38 q 1292 -16 1317 -3 q 1239 -20 1267 -29 q 1171 15 1211 -11 l 111 736 q 49 814 56 774 q 89 913 42 854 q 146 966 121 953 q 199 970 171 979 q 267 933 226 961 l 1326 214 q 1390 135 1383 175 q 1349 38 1397 96 m 90 38 q 49 135 43 96 q 113 214 56 175 l 1172 933 q 1240 970 1213 961 q 1294 966 1268 979 q 1350 913 1319 953 q 1390 814 1397 854 q 1328 736 1383 774 l 268 15 q 201 -20 229 -11 q 149 -15 174 -29 q 90 38 124 -1 z "},"Y":{"ha":1347,"x_min":32,"x_max":1315,"o":"m 1268 919 q 1315 826 1315 867 q 1261 744 1314 785 l 811 406 l 811 111 q 806 51 811 81 q 774 3 800 22 q 683 -15 747 -15 q 593 3 619 -15 q 561 52 567 22 q 556 114 556 82 l 556 390 l 86 744 q 33 826 33 785 q 79 919 32 867 q 141 969 114 958 q 196 969 168 981 q 260 931 224 958 l 675 611 l 1088 931 q 1151 970 1124 960 q 1206 969 1179 981 q 1268 919 1233 958 z "},"Ý":{"ha":1347,"x_min":32,"x_max":1315,"o":"m 1268 919 q 1315 826 1315 867 q 1261 744 1314 785 l 811 406 l 811 111 q 806 51 811 81 q 774 3 800 22 q 683 -15 747 -15 q 593 3 619 -15 q 561 52 567 22 q 556 114 556 82 l 556 390 l 86 744 q 33 826 33 785 q 79 919 32 867 q 141 969 114 958 q 196 969 168 981 q 260 931 224 958 l 675 611 l 1088 931 q 1151 970 1124 960 q 1206 969 1179 981 q 1268 919 1233 958 m 622 1021 q 559 1026 582 1010 q 519 1099 536 1043 q 514 1186 501 1157 q 574 1229 526 1215 l 790 1294 q 860 1292 835 1308 q 903 1219 885 1275 q 910 1135 922 1164 q 850 1090 899 1107 l 622 1021 z "},"Ÿ":{"ha":1347,"x_min":32,"x_max":1315,"o":"m 1268 919 q 1315 826 1315 867 q 1261 744 1314 785 l 811 406 l 811 111 q 806 51 811 81 q 774 3 800 22 q 683 -15 747 -15 q 593 3 619 -15 q 561 52 567 22 q 556 114 556 82 l 556 390 l 86 744 q 33 826 33 785 q 79 919 32 867 q 141 969 114 958 q 196 969 168 981 q 260 931 224 958 l 675 611 l 1088 931 q 1151 970 1124 960 q 1206 969 1179 981 q 1268 919 1233 958 m 851 1033 q 761 1052 788 1033 q 729 1101 735 1071 q 724 1163 724 1131 q 729 1224 724 1194 q 762 1271 735 1253 q 853 1289 789 1289 q 943 1270 917 1289 q 975 1222 969 1251 q 981 1160 981 1192 q 975 1100 981 1129 q 943 1052 969 1071 q 851 1033 917 1033 m 503 1033 q 413 1052 439 1033 q 381 1101 386 1071 q 375 1163 375 1131 q 381 1224 376 1194 q 413 1271 386 1253 q 504 1289 440 1289 q 594 1270 568 1289 q 626 1222 621 1251 q 632 1160 632 1192 q 626 1100 632 1129 q 594 1052 621 1071 q 503 1033 568 1033 z "},"Z":{"ha":1300,"x_min":49,"x_max":1251,"o":"m 182 -15 q 88 24 128 -15 q 49 121 49 63 q 51 157 49 136 q 71 190 54 178 l 779 711 l 188 711 q 124 717 157 711 q 70 749 92 722 q 49 840 49 776 q 69 935 49 907 q 122 968 90 963 q 183 974 153 974 l 1100 974 q 1194 935 1154 974 q 1233 838 1233 896 q 1231 801 1233 822 q 1211 767 1228 779 l 503 247 l 1119 247 q 1180 241 1150 247 q 1231 208 1210 235 q 1251 118 1251 181 q 1231 24 1251 51 q 1179 -10 1210 -4 q 1117 -15 1149 -15 l 182 -15 z "},"Ž":{"ha":1300,"x_min":49,"x_max":1251,"o":"m 182 -15 q 88 24 128 -15 q 49 121 49 63 q 51 157 49 136 q 71 190 54 178 l 779 711 l 188 711 q 124 717 157 711 q 70 749 92 722 q 49 840 49 776 q 69 935 49 907 q 122 968 90 963 q 183 974 153 974 l 1100 974 q 1194 935 1154 974 q 1233 838 1233 896 q 1231 801 1233 822 q 1211 767 1228 779 l 503 247 l 1119 247 q 1180 241 1150 247 q 1231 208 1210 235 q 1251 118 1251 181 q 1231 24 1251 51 q 1179 -10 1210 -4 q 1117 -15 1149 -15 l 182 -15 m 650 1228 l 757 1275 q 800 1288 775 1282 q 853 1280 825 1293 q 906 1215 881 1267 q 918 1133 929 1167 q 863 1085 907 1099 l 683 1025 q 670 1022 679 1025 q 650 1018 661 1018 q 629 1022 639 1018 q 617 1025 619 1025 l 438 1085 q 383 1133 394 1097 q 394 1215 372 1169 q 444 1279 419 1265 q 490 1290 468 1293 q 529 1281 513 1286 l 650 1228 z "},"a":{"ha":1064,"x_min":35,"x_max":1001,"o":"m 875 -10 q 783 20 811 -10 q 750 81 754 50 l 775 81 q 725 34 763 54 q 625 2 688 14 q 475 -10 563 -10 q 283 15 365 -10 q 146 88 201 40 q 63 199 90 135 q 35 343 35 264 q 63 486 35 422 q 146 596 90 550 q 283 667 201 642 q 475 692 365 692 q 623 680 561 692 q 723 647 685 668 q 775 599 761 626 l 750 599 q 780 665 750 636 q 875 693 810 693 q 965 674 939 693 q 996 626 990 656 q 1001 567 1001 597 l 1001 115 q 996 56 1001 85 q 965 8 990 26 q 875 -10 939 -10 m 511 214 q 631 230 586 214 q 694 275 675 246 q 714 342 714 304 q 694 409 714 381 q 629 453 674 438 q 508 469 585 469 q 388 453 433 469 q 322 408 342 438 q 301 340 301 379 q 322 274 301 303 q 388 230 342 246 q 511 214 435 214 z "},"á":{"ha":1064,"x_min":35,"x_max":1001,"o":"m 875 -10 q 783 20 811 -10 q 750 81 754 50 l 775 81 q 725 34 763 54 q 625 2 688 14 q 475 -10 563 -10 q 283 15 365 -10 q 146 88 201 40 q 63 199 90 135 q 35 343 35 264 q 63 486 35 422 q 146 596 90 550 q 283 667 201 642 q 475 692 365 692 q 623 680 561 692 q 723 647 685 668 q 775 599 761 626 l 750 599 q 780 665 750 636 q 875 693 810 693 q 965 674 939 693 q 996 626 990 656 q 1001 567 1001 597 l 1001 115 q 996 56 1001 85 q 965 8 990 26 q 875 -10 939 -10 m 511 214 q 631 230 586 214 q 694 275 675 246 q 714 342 714 304 q 694 409 714 381 q 629 453 674 438 q 508 469 585 469 q 388 453 433 469 q 322 408 342 438 q 301 340 301 379 q 322 274 301 303 q 388 230 342 246 q 511 214 435 214 m 483 743 q 420 749 443 732 q 381 821 397 765 q 375 908 363 879 q 435 951 388 938 l 651 1017 q 721 1014 696 1031 q 764 942 746 997 q 772 858 783 886 q 711 813 760 829 l 483 743 z "},"â":{"ha":1064,"x_min":35,"x_max":1001,"o":"m 875 -10 q 783 20 811 -10 q 750 81 754 50 l 775 81 q 725 34 763 54 q 625 2 688 14 q 475 -10 563 -10 q 283 15 365 -10 q 146 88 201 40 q 63 199 90 135 q 35 343 35 264 q 63 486 35 422 q 146 596 90 550 q 283 667 201 642 q 475 692 365 692 q 623 680 561 692 q 723 647 685 668 q 775 599 761 626 l 750 599 q 780 665 750 636 q 875 693 810 693 q 965 674 939 693 q 996 626 990 656 q 1001 567 1001 597 l 1001 115 q 996 56 1001 85 q 965 8 990 26 q 875 -10 939 -10 m 511 214 q 631 230 586 214 q 694 275 675 246 q 714 342 714 304 q 694 409 714 381 q 629 453 674 438 q 508 469 585 469 q 388 453 433 469 q 322 408 342 438 q 301 340 301 379 q 322 274 301 303 q 388 230 342 246 q 511 214 435 214 m 528 1011 q 548 1008 539 1011 q 561 1004 557 1006 l 740 944 q 794 894 785 931 q 782 814 804 858 q 740 753 764 776 q 693 739 717 729 l 528 801 l 364 742 q 315 756 338 732 q 272 815 292 781 q 258 894 249 860 q 313 944 267 929 l 493 1004 q 506 1008 496 1006 q 528 1011 517 1011 z "},"ä":{"ha":1064,"x_min":35,"x_max":1001,"o":"m 875 -10 q 783 20 811 -10 q 750 81 754 50 l 775 81 q 725 34 763 54 q 625 2 688 14 q 475 -10 563 -10 q 283 15 365 -10 q 146 88 201 40 q 63 199 90 135 q 35 343 35 264 q 63 486 35 422 q 146 596 90 550 q 283 667 201 642 q 475 692 365 692 q 623 680 561 692 q 723 647 685 668 q 775 599 761 626 l 750 599 q 780 665 750 636 q 875 693 810 693 q 965 674 939 693 q 996 626 990 656 q 1001 567 1001 597 l 1001 115 q 996 56 1001 85 q 965 8 990 26 q 875 -10 939 -10 m 511 214 q 631 230 586 214 q 694 275 675 246 q 714 342 714 304 q 694 409 714 381 q 629 453 674 438 q 508 469 585 469 q 388 453 433 469 q 322 408 342 438 q 301 340 301 379 q 322 274 301 303 q 388 230 342 246 q 511 214 435 214 m 703 756 q 613 774 639 756 q 581 823 586 793 q 575 885 575 853 q 581 946 575 917 q 613 993 586 975 q 704 1011 640 1011 q 794 992 768 1011 q 826 944 821 974 q 832 882 832 914 q 826 822 832 851 q 794 774 821 793 q 703 756 768 756 m 354 756 q 264 774 290 756 q 232 823 238 793 q 226 885 226 853 q 233 946 228 917 q 265 993 238 975 q 356 1011 292 1011 q 446 992 419 1011 q 478 944 472 974 q 483 882 483 914 q 478 822 483 851 q 446 774 472 793 q 354 756 419 756 z "},"à":{"ha":1064,"x_min":35,"x_max":1001,"o":"m 875 -10 q 783 20 811 -10 q 750 81 754 50 l 775 81 q 725 34 763 54 q 625 2 688 14 q 475 -10 563 -10 q 283 15 365 -10 q 146 88 201 40 q 63 199 90 135 q 35 343 35 264 q 63 486 35 422 q 146 596 90 550 q 283 667 201 642 q 475 692 365 692 q 623 680 561 692 q 723 647 685 668 q 775 599 761 626 l 750 599 q 780 665 750 636 q 875 693 810 693 q 965 674 939 693 q 996 626 990 656 q 1001 567 1001 597 l 1001 115 q 996 56 1001 85 q 965 8 990 26 q 875 -10 939 -10 m 511 214 q 631 230 586 214 q 694 275 675 246 q 714 342 714 304 q 694 409 714 381 q 629 453 674 438 q 508 469 585 469 q 388 453 433 469 q 322 408 342 438 q 301 340 301 379 q 322 274 301 303 q 388 230 342 246 q 511 214 435 214 m 539 743 l 311 813 q 251 858 263 829 q 258 942 240 886 q 303 1014 278 997 q 371 1017 328 1031 l 588 951 q 648 908 636 938 q 642 821 660 879 q 602 749 625 765 q 539 743 579 732 z "},"å":{"ha":1064,"x_min":35,"x_max":1001,"o":"m 875 -10 q 783 20 811 -10 q 750 81 754 50 l 775 81 q 725 34 763 54 q 625 2 688 14 q 475 -10 563 -10 q 283 15 365 -10 q 146 88 201 40 q 63 199 90 135 q 35 343 35 264 q 63 486 35 422 q 146 596 90 550 q 283 667 201 642 q 475 692 365 692 q 623 680 561 692 q 723 647 685 668 q 775 599 761 626 l 750 599 q 780 665 750 636 q 875 693 810 693 q 965 674 939 693 q 996 626 990 656 q 1001 567 1001 597 l 1001 115 q 996 56 1001 85 q 965 8 990 26 q 875 -10 939 -10 m 511 214 q 631 230 586 214 q 694 275 675 246 q 714 342 714 304 q 694 409 714 381 q 629 453 674 438 q 508 469 585 469 q 388 453 433 469 q 322 408 342 438 q 301 340 301 379 q 322 274 301 303 q 388 230 342 246 q 511 214 435 214 m 518 729 q 428 753 469 729 q 363 819 388 778 q 339 908 339 860 q 363 999 339 958 q 428 1065 388 1040 q 517 1089 468 1089 q 608 1065 567 1089 q 673 1001 649 1042 q 697 910 697 960 q 673 819 697 860 q 608 753 649 778 q 518 729 568 729 m 518 843 q 565 863 546 843 q 583 911 583 882 q 565 957 583 939 q 517 975 546 975 q 471 956 490 975 q 451 910 451 938 q 471 862 451 881 q 518 843 490 843 z "},"ã":{"ha":1064,"x_min":35,"x_max":1001,"o":"m 875 -10 q 783 20 811 -10 q 750 81 754 50 l 775 81 q 725 34 763 54 q 625 2 688 14 q 475 -10 563 -10 q 283 15 365 -10 q 146 88 201 40 q 63 199 90 135 q 35 343 35 264 q 63 486 35 422 q 146 596 90 550 q 283 667 201 642 q 475 692 365 692 q 623 680 561 692 q 723 647 685 668 q 775 599 761 626 l 750 599 q 780 665 750 636 q 875 693 810 693 q 965 674 939 693 q 996 626 990 656 q 1001 567 1001 597 l 1001 115 q 996 56 1001 85 q 965 8 990 26 q 875 -10 939 -10 m 511 214 q 631 230 586 214 q 694 275 675 246 q 714 342 714 304 q 694 409 714 381 q 629 453 674 438 q 508 469 585 469 q 388 453 433 469 q 322 408 342 438 q 301 340 301 379 q 322 274 301 303 q 388 230 342 246 q 511 214 435 214 m 453 1011 q 508 994 489 1011 q 540 961 526 978 q 568 944 553 944 q 601 961 589 944 q 628 994 614 978 q 669 1011 643 1011 q 697 1006 683 1011 q 726 989 711 1000 q 782 930 772 958 q 767 861 792 901 q 720 807 750 833 q 656 765 690 781 q 589 749 621 749 q 534 766 554 749 q 500 801 514 783 q 469 818 486 818 q 414 803 432 818 q 385 775 396 789 q 358 751 371 757 q 306 776 344 746 q 256 836 263 810 q 276 901 250 863 q 326 954 296 929 q 391 995 357 979 q 453 1011 425 1011 z "},"æ":{"ha":1664,"x_min":35,"x_max":1629,"o":"m 492 704 q 616 688 549 704 q 740 644 683 672 q 822 579 797 615 q 906 641 849 614 q 1037 684 963 668 q 1188 700 1111 700 q 1402 674 1317 700 q 1538 606 1488 647 q 1608 517 1588 564 q 1629 428 1629 469 q 1591 303 1629 350 q 1490 257 1553 257 l 968 257 q 992 234 972 244 q 1045 215 1013 224 q 1117 202 1078 207 q 1197 197 1156 197 q 1334 202 1282 197 q 1417 214 1386 207 q 1465 226 1447 221 q 1496 231 1482 231 q 1542 215 1521 231 q 1578 168 1563 200 q 1591 90 1599 126 q 1553 31 1583 54 q 1475 -3 1524 8 q 1355 -18 1426 -14 q 1188 -22 1283 -22 q 1027 -10 1103 -22 q 893 24 951 1 q 801 81 835 47 q 719 31 774 56 q 583 -9 665 7 q 388 -25 501 -25 q 129 30 224 -25 q 35 193 35 85 q 68 290 35 250 q 164 353 101 331 q 313 375 226 375 q 372 374 332 375 q 463 369 413 372 q 562 363 513 367 q 650 353 611 358 q 704 342 689 349 q 671 413 706 385 q 588 456 636 442 q 499 469 540 469 q 360 456 411 469 q 280 424 308 442 q 233 392 251 406 q 192 378 214 378 q 147 391 169 378 q 104 429 125 404 q 52 528 53 490 q 103 614 51 567 q 167 654 124 633 q 288 690 210 675 q 492 704 365 704 m 967 397 l 1322 397 q 1371 404 1358 397 q 1383 425 1383 411 q 1370 453 1383 442 q 1317 472 1357 465 q 1199 478 1278 478 q 1069 466 1118 478 q 996 435 1019 454 q 967 397 972 417 m 457 154 q 517 158 481 154 q 593 170 554 163 q 663 188 632 178 q 707 211 694 199 q 656 219 694 215 q 569 227 617 224 q 476 231 521 231 q 335 227 382 231 q 274 217 289 224 q 258 200 258 211 q 301 165 258 176 q 457 154 343 154 z "},"b":{"ha":1054,"x_min":63,"x_max":1019,"o":"m 574 -10 q 395 18 463 -10 q 293 94 328 46 q 247 210 258 143 q 235 353 235 276 q 247 478 235 418 q 293 587 258 539 q 395 663 328 635 q 574 692 463 692 q 768 667 685 692 q 908 596 851 642 q 992 486 964 550 q 1019 343 1019 422 q 992 199 1019 264 q 908 88 964 135 q 768 15 851 40 q 574 -10 685 -10 m 540 213 q 665 228 618 213 q 732 274 711 244 q 753 340 753 303 q 732 408 753 379 q 665 452 711 436 q 542 468 619 468 q 419 452 465 468 q 351 408 372 436 q 331 340 331 379 q 351 274 331 303 q 417 228 371 244 q 540 213 464 213 m 188 -11 q 99 8 125 -11 q 68 56 74 26 q 63 115 63 85 l 63 886 q 68 947 63 918 q 100 993 74 975 q 189 1011 126 1011 q 277 992 251 1011 q 308 944 303 974 q 314 885 314 915 l 310 72 q 275 12 304 35 q 188 -11 246 -11 z "},"c":{"ha":949,"x_min":33,"x_max":914,"o":"m 510 -19 q 324 3 410 -19 q 172 72 238 26 q 70 185 107 117 q 33 343 33 253 q 70 499 33 432 q 172 611 107 567 q 322 678 236 656 q 507 701 408 701 q 699 685 628 701 q 802 651 769 668 q 838 632 835 635 q 890 594 865 615 q 914 536 914 572 q 907 499 914 518 q 885 457 900 481 q 785 381 836 381 q 742 392 763 381 q 693 419 721 404 q 622 447 665 435 q 507 458 578 458 q 376 441 424 458 q 310 397 329 424 q 292 342 292 371 q 310 285 292 313 q 375 241 329 258 q 504 224 421 224 q 616 235 572 224 q 681 258 660 246 q 704 269 703 269 q 741 290 724 281 q 776 300 758 300 q 827 285 800 300 q 881 226 854 269 q 907 159 903 190 q 894 101 911 128 q 838 49 878 74 q 801 29 833 46 q 698 -3 768 13 q 510 -19 628 -19 z "},"ç":{"ha":935,"x_min":33,"x_max":914,"o":"m 510 -19 q 324 3 410 -19 q 172 72 238 26 q 70 185 107 117 q 33 343 33 253 q 70 499 33 432 q 172 611 107 567 q 322 678 236 656 q 507 701 408 701 q 699 685 628 701 q 802 651 769 668 q 838 632 835 635 q 890 594 865 615 q 914 536 914 572 q 907 499 914 518 q 885 457 900 481 q 785 381 836 381 q 742 392 763 381 q 693 419 721 404 q 622 447 665 435 q 507 458 578 458 q 376 441 424 458 q 310 397 329 424 q 292 342 292 371 q 310 285 292 313 q 375 241 329 258 q 504 224 421 224 q 616 235 572 224 q 681 258 660 246 q 704 269 703 269 q 741 290 724 281 q 776 300 758 300 q 827 285 800 300 q 881 226 854 269 q 907 159 903 190 q 894 101 911 128 q 838 49 878 74 q 801 29 833 46 q 698 -3 768 13 q 510 -19 628 -19 m 476 -267 q 399 -247 436 -267 q 361 -196 361 -226 q 376 -158 361 -175 q 403 -133 392 -140 q 425 -125 414 -125 q 451 -135 443 -125 q 479 -144 460 -144 q 499 -137 486 -144 q 511 -112 511 -131 q 499 -86 511 -93 q 478 -79 486 -79 q 452 -90 464 -79 q 422 -100 440 -100 q 394 -87 406 -100 q 375 -65 382 -75 q 365 -45 369 -54 q 361 -28 361 -36 q 380 9 361 -7 q 426 33 399 25 q 478 42 453 42 q 546 25 510 42 q 608 -25 582 8 q 633 -111 633 -58 q 611 -192 633 -157 q 553 -247 589 -226 q 476 -267 517 -267 z "},"d":{"ha":1054,"x_min":35,"x_max":992,"o":"m 481 -10 q 286 15 369 -10 q 147 88 203 40 q 63 199 90 135 q 35 343 35 264 q 63 486 35 422 q 147 596 90 550 q 286 667 203 642 q 481 692 369 692 q 659 663 592 692 q 761 587 726 635 q 808 478 796 539 q 819 353 819 418 q 808 210 819 276 q 761 94 796 143 q 659 18 726 46 q 481 -10 592 -10 m 514 213 q 638 228 592 213 q 703 274 683 244 q 724 340 724 303 q 703 408 724 379 q 636 452 682 436 q 513 468 590 468 q 390 452 436 468 q 322 408 343 436 q 301 340 301 379 q 322 274 301 303 q 390 228 343 244 q 514 213 436 213 m 867 -11 q 779 12 808 -11 q 744 72 750 35 l 740 885 q 745 944 740 915 q 777 992 750 974 q 865 1011 804 1011 q 955 993 929 1011 q 986 947 981 975 q 992 886 992 918 l 992 115 q 986 56 992 85 q 955 8 981 26 q 867 -11 929 -11 z "},"ð":{"ha":965,"x_min":35,"x_max":938,"o":"m 319 1049 q 367 1021 356 1036 q 376 990 379 1006 q 367 957 374 974 l 361 943 q 592 844 485 901 q 778 711 699 788 q 897 536 857 635 q 929 313 938 438 q 893 170 925 233 q 804 64 861 107 q 668 -2 747 21 q 490 -25 589 -25 q 299 -1 383 -25 q 155 69 214 24 q 65 180 96 114 q 35 329 35 246 q 72 470 35 407 q 172 579 110 533 q 312 650 235 625 q 469 675 389 675 q 510 672 482 675 q 551 658 538 669 q 419 724 483 704 q 292 763 356 743 l 281 736 q 265 706 274 721 q 238 688 257 692 q 182 700 219 685 q 135 731 146 715 q 128 763 125 746 q 138 796 132 779 l 142 808 q 124 813 132 811 q 106 817 115 815 q 62 856 67 822 q 69 933 57 890 q 102 988 81 969 q 147 1000 124 1006 q 169 996 158 999 q 190 991 179 993 q 210 986 200 989 l 221 1014 q 237 1043 228 1031 q 265 1059 246 1056 q 319 1049 283 1063 m 489 210 q 594 224 550 210 q 660 267 638 239 q 683 333 683 294 q 660 407 683 376 q 594 453 638 438 q 488 469 550 469 q 380 453 425 469 q 311 406 335 436 q 288 332 288 375 q 312 267 288 294 q 381 224 336 239 q 489 210 426 210 z "},"e":{"ha":1025,"x_min":35,"x_max":990,"o":"m 539 -29 q 291 5 389 -29 q 137 94 193 39 q 58 214 81 150 q 35 338 35 278 q 89 523 35 440 q 255 653 143 606 q 539 701 367 701 q 758 675 671 701 q 896 607 844 649 q 969 517 947 565 q 990 428 990 469 q 951 310 990 350 q 851 269 913 269 l 290 269 q 320 227 293 249 q 406 191 347 206 q 558 176 464 176 q 673 183 629 176 q 742 201 717 190 q 783 222 767 211 q 815 239 799 232 q 856 246 831 246 q 901 236 881 246 q 939 193 922 226 q 953 160 949 175 q 957 129 957 144 q 905 50 957 86 q 759 -8 853 14 q 539 -29 665 -29 m 290 400 l 719 400 q 753 403 739 400 q 767 429 767 406 q 741 467 767 451 q 662 490 715 482 q 526 499 608 499 q 392 486 443 499 q 318 451 342 474 q 290 400 294 429 z "},"é":{"ha":1025,"x_min":35,"x_max":990,"o":"m 539 -29 q 291 5 389 -29 q 137 94 193 39 q 58 214 81 150 q 35 338 35 278 q 89 523 35 440 q 255 653 143 606 q 539 701 367 701 q 758 675 671 701 q 896 607 844 649 q 969 517 947 565 q 990 428 990 469 q 951 310 990 350 q 851 269 913 269 l 290 269 q 320 227 293 249 q 406 191 347 206 q 558 176 464 176 q 673 183 629 176 q 742 201 717 190 q 783 222 767 211 q 815 239 799 232 q 856 246 831 246 q 901 236 881 246 q 939 193 922 226 q 953 160 949 175 q 957 129 957 144 q 905 50 957 86 q 759 -8 853 14 q 539 -29 665 -29 m 290 400 l 719 400 q 753 403 739 400 q 767 429 767 406 q 741 467 767 451 q 662 490 715 482 q 526 499 608 499 q 392 486 443 499 q 318 451 342 474 q 290 400 294 429 m 472 743 q 409 749 432 732 q 369 821 386 765 q 364 908 351 879 q 424 951 376 938 l 640 1017 q 710 1014 685 1031 q 753 942 735 997 q 760 858 772 886 q 700 813 749 829 l 472 743 z "},"ê":{"ha":1025,"x_min":35,"x_max":990,"o":"m 539 -29 q 291 5 389 -29 q 137 94 193 39 q 58 214 81 150 q 35 338 35 278 q 89 523 35 440 q 255 653 143 606 q 539 701 367 701 q 758 675 671 701 q 896 607 844 649 q 969 517 947 565 q 990 428 990 469 q 951 310 990 350 q 851 269 913 269 l 290 269 q 320 227 293 249 q 406 191 347 206 q 558 176 464 176 q 673 183 629 176 q 742 201 717 190 q 783 222 767 211 q 815 239 799 232 q 856 246 831 246 q 901 236 881 246 q 939 193 922 226 q 953 160 949 175 q 957 129 957 144 q 905 50 957 86 q 759 -8 853 14 q 539 -29 665 -29 m 290 400 l 719 400 q 753 403 739 400 q 767 429 767 406 q 741 467 767 451 q 662 490 715 482 q 526 499 608 499 q 392 486 443 499 q 318 451 342 474 q 290 400 294 429 m 517 1011 q 537 1008 528 1011 q 550 1004 546 1006 l 729 944 q 783 894 774 931 q 771 814 793 858 q 729 753 753 776 q 682 739 706 729 l 517 801 l 353 742 q 303 756 326 732 q 261 815 281 781 q 247 894 238 860 q 301 944 256 929 l 482 1004 q 495 1008 485 1006 q 517 1011 506 1011 z "},"ë":{"ha":1025,"x_min":35,"x_max":990,"o":"m 539 -29 q 291 5 389 -29 q 137 94 193 39 q 58 214 81 150 q 35 338 35 278 q 89 523 35 440 q 255 653 143 606 q 539 701 367 701 q 758 675 671 701 q 896 607 844 649 q 969 517 947 565 q 990 428 990 469 q 951 310 990 350 q 851 269 913 269 l 290 269 q 320 227 293 249 q 406 191 347 206 q 558 176 464 176 q 673 183 629 176 q 742 201 717 190 q 783 222 767 211 q 815 239 799 232 q 856 246 831 246 q 901 236 881 246 q 939 193 922 226 q 953 160 949 175 q 957 129 957 144 q 905 50 957 86 q 759 -8 853 14 q 539 -29 665 -29 m 290 400 l 719 400 q 753 403 739 400 q 767 429 767 406 q 741 467 767 451 q 662 490 715 482 q 526 499 608 499 q 392 486 443 499 q 318 451 342 474 q 290 400 294 429 m 692 756 q 601 774 628 756 q 569 823 575 793 q 564 885 564 853 q 569 946 564 917 q 602 993 575 975 q 693 1011 629 1011 q 783 992 757 1011 q 815 944 810 974 q 821 882 821 914 q 815 822 821 851 q 783 774 810 793 q 692 756 757 756 m 343 756 q 253 774 279 756 q 221 823 226 793 q 215 885 215 853 q 222 946 217 917 q 253 993 226 975 q 344 1011 281 1011 q 435 992 408 1011 q 467 944 461 974 q 472 882 472 914 q 467 822 472 851 q 435 774 461 793 q 343 756 408 756 z "},"è":{"ha":1025,"x_min":35,"x_max":990,"o":"m 539 -29 q 291 5 389 -29 q 137 94 193 39 q 58 214 81 150 q 35 338 35 278 q 89 523 35 440 q 255 653 143 606 q 539 701 367 701 q 758 675 671 701 q 896 607 844 649 q 969 517 947 565 q 990 428 990 469 q 951 310 990 350 q 851 269 913 269 l 290 269 q 320 227 293 249 q 406 191 347 206 q 558 176 464 176 q 673 183 629 176 q 742 201 717 190 q 783 222 767 211 q 815 239 799 232 q 856 246 831 246 q 901 236 881 246 q 939 193 922 226 q 953 160 949 175 q 957 129 957 144 q 905 50 957 86 q 759 -8 853 14 q 539 -29 665 -29 m 290 400 l 719 400 q 753 403 739 400 q 767 429 767 406 q 741 467 767 451 q 662 490 715 482 q 526 499 608 499 q 392 486 443 499 q 318 451 342 474 q 290 400 294 429 m 528 743 l 300 813 q 240 858 251 829 q 247 942 229 886 q 292 1014 267 997 q 360 1017 317 1031 l 576 951 q 637 908 625 938 q 631 821 649 879 q 591 749 614 765 q 528 743 568 732 z "},"f":{"ha":915,"x_min":35,"x_max":881,"o":"m 403 -14 q 315 5 340 -14 q 283 53 289 24 q 278 114 278 83 l 278 740 q 303 833 278 785 q 383 922 329 881 q 520 988 436 963 q 721 1014 604 1014 q 781 1008 751 1014 q 828 977 810 1003 q 847 888 847 951 q 828 799 847 825 q 779 767 808 772 q 719 763 750 763 q 651 762 685 763 q 591 757 618 761 q 547 743 564 753 q 531 715 531 733 l 531 111 q 525 52 531 81 q 492 5 519 24 q 403 -14 465 -14 m 124 685 l 494 685 l 756 692 q 815 687 786 693 q 862 654 843 681 q 881 564 881 628 q 862 479 881 506 q 815 446 843 453 q 754 439 786 439 l 508 443 l 118 443 q 53 474 71 446 q 35 565 35 501 q 57 655 35 625 q 124 685 79 685 z "},"g":{"ha":1031,"x_min":35,"x_max":982,"o":"m 508 -306 q 336 -292 413 -306 q 206 -257 260 -279 q 123 -209 151 -235 q 94 -158 94 -183 q 101 -117 94 -142 q 133 -64 107 -92 q 181 -20 165 -31 q 215 -10 196 -10 q 254 -22 236 -10 q 301 -48 272 -33 q 378 -74 329 -62 q 513 -86 428 -86 q 624 -77 581 -86 q 693 -52 668 -68 q 728 -15 718 -36 q 738 32 738 7 l 738 596 q 774 676 744 657 q 861 696 803 696 q 947 678 922 696 q 977 631 972 660 q 982 572 982 603 l 982 38 q 949 -108 982 -44 q 853 -216 915 -172 q 703 -283 790 -260 q 508 -306 617 -306 m 474 8 q 278 36 361 8 q 141 113 194 64 q 61 223 88 161 q 35 353 35 285 q 61 479 35 418 q 142 588 88 540 q 278 665 196 636 q 474 693 361 693 q 645 672 581 693 q 743 607 710 650 q 788 499 776 564 q 800 349 800 435 q 773 160 800 236 q 676 47 746 85 q 474 8 606 8 m 507 225 q 640 246 596 225 q 699 296 683 267 q 714 350 714 325 q 699 407 714 378 q 639 456 683 436 q 504 476 594 476 q 371 456 415 476 q 311 406 326 435 q 296 350 296 376 q 311 296 296 325 q 372 246 326 267 q 507 225 418 225 z "},"h":{"ha":1038,"x_min":49,"x_max":1003,"o":"m 174 -12 q 85 6 111 -12 q 53 54 58 25 q 49 114 49 83 l 49 886 q 54 947 49 918 q 86 993 60 975 q 175 1011 113 1011 q 263 992 238 1011 q 294 945 289 974 q 300 885 300 917 l 300 618 q 390 669 328 647 q 564 692 453 692 q 807 648 710 692 q 953 525 904 604 q 1003 340 1003 446 l 1003 113 q 997 53 1003 82 q 966 6 992 25 q 876 -12 940 -12 q 788 6 815 -12 q 756 53 761 24 q 750 115 750 82 l 750 342 q 728 404 750 379 q 659 442 707 429 q 532 454 611 454 q 360 431 414 454 q 300 363 307 408 l 300 113 q 294 53 300 82 q 263 6 289 24 q 174 -12 238 -12 z "},"i":{"ha":376,"x_min":63,"x_max":314,"o":"m 188 -12 q 99 6 125 -12 q 68 54 74 25 q 63 114 63 83 l 63 567 q 68 626 63 597 q 100 673 74 654 q 189 692 126 692 q 277 673 251 692 q 308 625 303 654 q 314 564 314 596 l 314 113 q 308 53 314 82 q 277 6 303 24 q 188 -12 251 -12 m 188 760 q 99 778 125 760 q 68 826 74 797 q 63 886 63 856 q 68 947 63 918 q 100 993 74 975 q 189 1011 126 1011 q 277 992 251 1011 q 308 944 303 974 q 314 885 314 915 q 308 825 314 854 q 277 778 303 796 q 188 760 251 760 z "},"ı":{"ha":376,"x_min":63,"x_max":314,"o":"m 188 -12 q 99 6 125 -12 q 68 54 74 25 q 63 114 63 83 l 63 567 q 68 626 63 597 q 100 673 74 654 q 189 692 126 692 q 277 673 251 692 q 308 625 303 654 q 314 564 314 596 l 314 113 q 308 53 314 82 q 277 6 303 24 q 188 -12 251 -12 z "},"í":{"ha":376,"x_min":26,"x_max":447,"o":"m 188 -12 q 99 6 125 -12 q 68 54 74 25 q 63 114 63 83 l 63 567 q 68 626 63 597 q 100 673 74 654 q 189 692 126 692 q 277 673 251 692 q 308 625 303 654 q 314 564 314 596 l 314 113 q 308 53 314 82 q 277 6 303 24 q 188 -12 251 -12 m 147 743 q 84 749 107 732 q 44 821 61 765 q 39 908 26 879 q 99 951 51 938 l 315 1017 q 385 1014 360 1031 q 428 942 410 997 q 435 858 447 886 q 375 813 424 829 l 147 743 z "},"î":{"ha":376,"x_min":-87,"x_max":468,"o":"m 188 -12 q 99 6 125 -12 q 68 54 74 25 q 63 114 63 83 l 63 567 q 68 626 63 597 q 100 673 74 654 q 189 692 126 692 q 277 673 251 692 q 308 625 303 654 q 314 564 314 596 l 314 113 q 308 53 314 82 q 277 6 303 24 q 188 -12 251 -12 m 192 1011 q 212 1008 203 1011 q 225 1004 221 1006 l 404 944 q 458 894 449 931 q 446 814 468 858 q 404 753 428 776 q 357 739 381 729 l 192 801 l 28 742 q -22 756 1 732 q -64 815 -44 781 q -78 894 -87 860 q -24 944 -69 929 l 157 1004 q 170 1008 160 1006 q 192 1011 181 1011 z "},"ï":{"ha":376,"x_min":-110,"x_max":496,"o":"m 188 -12 q 99 6 125 -12 q 68 54 74 25 q 63 114 63 83 l 63 567 q 68 626 63 597 q 100 673 74 654 q 189 692 126 692 q 277 673 251 692 q 308 625 303 654 q 314 564 314 596 l 314 113 q 308 53 314 82 q 277 6 303 24 q 188 -12 251 -12 m 367 756 q 276 774 303 756 q 244 823 250 793 q 239 885 239 853 q 244 946 239 917 q 277 993 250 975 q 368 1011 304 1011 q 458 992 432 1011 q 490 944 485 974 q 496 882 496 914 q 490 822 496 851 q 458 774 485 793 q 367 756 432 756 m 18 756 q -72 774 -46 756 q -104 823 -99 793 q -110 885 -110 853 q -103 946 -108 917 q -72 993 -99 975 q 19 1011 -44 1011 q 110 992 83 1011 q 142 944 136 974 q 147 882 147 914 q 142 822 147 851 q 110 774 136 793 q 18 756 83 756 z "},"ì":{"ha":376,"x_min":-96,"x_max":324,"o":"m 188 -12 q 99 6 125 -12 q 68 54 74 25 q 63 114 63 83 l 63 567 q 68 626 63 597 q 100 673 74 654 q 189 692 126 692 q 277 673 251 692 q 308 625 303 654 q 314 564 314 596 l 314 113 q 308 53 314 82 q 277 6 303 24 q 188 -12 251 -12 m 203 743 l -25 813 q -85 858 -74 829 q -78 942 -96 886 q -33 1014 -58 997 q 35 1017 -8 1031 l 251 951 q 312 908 300 938 q 306 821 324 879 q 266 749 289 765 q 203 743 243 732 z "},"j":{"ha":418,"x_min":-294,"x_max":356,"o":"m -172 -304 q -229 -299 -201 -304 q -276 -267 -257 -293 q -294 -179 -294 -242 q -276 -95 -294 -121 q -228 -63 -257 -69 q -169 -57 -200 -57 q -72 -53 -121 -57 q 19 -39 -22 -50 q 84 -7 60 -28 q 108 49 108 14 l 108 582 q 114 636 108 610 q 146 680 119 663 q 233 697 172 697 q 320 678 294 697 q 351 631 346 660 q 356 572 356 603 l 356 40 q 310 -108 356 -43 q 188 -216 264 -172 q 17 -282 111 -260 q -172 -304 -76 -304 m 231 763 q 134 789 160 763 q 108 888 108 815 q 135 984 108 958 q 233 1010 161 1010 q 330 984 304 1010 q 356 888 356 958 q 329 789 356 815 q 231 763 303 763 z "},"k":{"ha":925,"x_min":63,"x_max":910,"o":"m 856 226 q 905 144 900 185 q 874 47 910 104 q 822 -7 846 1 q 769 -2 797 -15 q 694 29 740 11 l 314 182 l 314 113 q 308 53 314 82 q 277 6 303 24 q 188 -12 251 -12 q 99 6 125 -12 q 68 54 74 25 q 63 114 63 83 l 63 888 q 68 948 63 919 q 100 995 74 976 q 189 1014 126 1014 q 277 995 251 1014 q 308 947 303 976 q 314 886 314 918 l 314 501 l 647 629 q 721 658 689 646 q 778 663 753 669 q 826 614 804 656 q 860 494 867 540 q 811 433 853 447 l 540 343 l 856 226 z "},"l":{"ha":640,"x_min":63,"x_max":619,"o":"m 531 -12 q 424 -7 485 -12 q 299 15 363 -1 q 183 63 236 32 q 96 145 129 94 q 63 272 63 196 l 63 888 q 68 948 63 919 q 100 995 74 976 q 189 1014 126 1014 q 277 995 251 1014 q 308 947 303 976 q 314 886 314 918 l 314 288 q 342 255 314 267 q 410 238 371 243 q 483 231 449 232 q 532 231 518 231 q 570 226 550 231 q 605 197 590 221 q 619 113 619 172 q 605 24 619 50 q 569 -8 590 -3 q 531 -12 549 -12 z "},"ł":{"ha":822,"x_min":28,"x_max":801,"o":"m 142 324 q 80 327 101 311 q 43 392 58 343 q 42 468 28 443 q 108 508 57 493 l 603 661 q 670 660 646 675 q 704 594 694 644 q 701 518 715 543 q 639 478 686 493 l 142 324 m 713 -12 q 606 -7 667 -12 q 481 15 544 -1 q 365 63 418 32 q 278 145 311 94 q 244 272 244 196 l 244 888 q 250 948 244 919 q 282 995 256 976 q 371 1014 308 1014 q 459 995 433 1014 q 490 947 485 976 q 496 886 496 918 l 496 288 q 524 255 496 267 q 592 238 553 243 q 665 231 631 232 q 714 231 700 231 q 752 226 732 231 q 787 197 772 221 q 801 113 801 172 q 787 24 801 50 q 751 -8 772 -3 q 713 -12 731 -12 z "},"m":{"ha":1508,"x_min":49,"x_max":1460,"o":"m 174 -12 q 85 6 111 -12 q 53 54 58 25 q 49 114 49 83 l 49 568 q 54 628 49 600 q 86 675 60 657 q 176 693 113 693 q 267 662 239 693 q 296 576 296 631 l 282 576 q 304 623 288 601 q 351 660 321 644 q 424 685 381 676 q 526 694 468 694 q 671 680 614 694 q 763 640 728 665 q 821 579 799 614 q 883 640 843 614 q 983 680 924 665 q 1119 694 1042 694 q 1323 650 1249 694 q 1428 526 1397 606 q 1460 340 1460 447 l 1460 114 q 1454 54 1460 83 q 1422 6 1449 25 q 1332 -12 1396 -12 q 1243 7 1269 -12 q 1212 56 1217 26 q 1207 115 1207 85 l 1207 342 q 1196 401 1207 376 q 1150 440 1185 426 q 1043 454 1115 454 q 938 440 972 454 q 892 400 903 425 q 881 340 881 375 l 881 114 q 875 54 881 83 q 843 6 869 25 q 753 -12 817 -12 q 664 7 690 -12 q 633 56 638 26 q 628 115 628 85 l 628 342 q 617 401 628 376 q 571 440 606 426 q 464 454 536 454 q 358 440 393 454 q 313 401 324 426 q 301 342 301 376 l 301 113 q 296 53 301 82 q 264 6 290 24 q 174 -12 238 -12 z "},"n":{"ha":1074,"x_min":49,"x_max":1032,"o":"m 174 -11 q 85 8 111 -11 q 53 56 58 26 q 49 115 49 85 l 49 572 q 54 631 49 603 q 86 676 60 658 q 175 693 113 693 q 256 674 231 693 q 290 631 282 656 q 297 588 297 607 q 299 568 296 568 l 290 563 q 304 598 286 576 q 363 642 322 619 q 465 678 403 664 q 611 693 528 693 q 813 663 732 693 q 942 578 894 632 q 1011 457 990 525 q 1032 314 1032 389 l 1032 114 q 1026 54 1032 83 q 995 7 1021 25 q 906 -11 969 -11 q 815 8 842 -11 q 783 56 789 26 q 778 115 778 85 l 778 328 q 760 389 778 360 q 692 437 743 418 q 540 456 642 456 q 389 436 440 456 q 319 388 338 417 q 300 328 300 358 l 300 114 q 294 54 300 83 q 263 7 289 25 q 174 -11 238 -11 z "},"ñ":{"ha":1074,"x_min":49,"x_max":1032,"o":"m 174 -11 q 85 8 111 -11 q 53 56 58 26 q 49 115 49 85 l 49 572 q 54 631 49 603 q 86 676 60 658 q 175 693 113 693 q 256 674 231 693 q 290 631 282 656 q 297 588 297 607 q 299 568 296 568 l 290 563 q 304 598 286 576 q 363 642 322 619 q 465 678 403 664 q 611 693 528 693 q 813 663 732 693 q 942 578 894 632 q 1011 457 990 525 q 1032 314 1032 389 l 1032 114 q 1026 54 1032 83 q 995 7 1021 25 q 906 -11 969 -11 q 815 8 842 -11 q 783 56 789 26 q 778 115 778 85 l 778 328 q 760 389 778 360 q 692 437 743 418 q 540 456 642 456 q 389 436 440 456 q 319 388 338 417 q 300 328 300 358 l 300 114 q 294 54 300 83 q 263 7 289 25 q 174 -11 238 -11 m 468 1011 q 523 994 504 1011 q 555 961 542 978 q 583 944 568 944 q 617 961 604 944 q 644 994 629 978 q 685 1011 658 1011 q 713 1006 699 1011 q 742 989 726 1000 q 797 930 788 958 q 782 861 807 901 q 735 807 765 833 q 671 765 706 781 q 604 749 636 749 q 549 766 569 749 q 515 801 529 783 q 485 818 501 818 q 429 803 447 818 q 400 775 411 789 q 373 751 386 757 q 321 776 360 746 q 272 836 278 810 q 292 901 265 863 q 342 954 311 929 q 406 995 372 979 q 468 1011 440 1011 z "},"o":{"ha":1043,"x_min":33,"x_max":1010,"o":"m 522 -25 q 310 1 401 -25 q 158 75 219 26 q 65 191 96 124 q 33 340 33 258 q 65 492 33 424 q 157 608 96 560 q 309 683 218 657 q 521 710 400 710 q 790 664 682 710 q 954 535 899 618 q 1010 342 1010 453 q 978 192 1010 260 q 886 76 947 125 q 734 1 825 28 q 522 -25 643 -25 m 521 210 q 650 226 600 210 q 724 272 700 242 q 747 343 747 301 q 724 415 747 386 q 649 460 700 444 q 519 475 599 475 q 392 456 442 475 q 319 408 343 438 q 296 342 296 378 q 319 270 296 300 q 393 225 343 240 q 521 210 443 210 z "},"ó":{"ha":1043,"x_min":33,"x_max":1010,"o":"m 522 -25 q 310 1 401 -25 q 158 75 219 26 q 65 191 96 124 q 33 340 33 258 q 65 492 33 424 q 157 608 96 560 q 309 683 218 657 q 521 710 400 710 q 790 664 682 710 q 954 535 899 618 q 1010 342 1010 453 q 978 192 1010 260 q 886 76 947 125 q 734 1 825 28 q 522 -25 643 -25 m 521 210 q 650 226 600 210 q 724 272 700 242 q 747 343 747 301 q 724 415 747 386 q 649 460 700 444 q 519 475 599 475 q 392 456 442 475 q 319 408 343 438 q 296 342 296 378 q 319 270 296 300 q 393 225 343 240 q 521 210 443 210 m 478 743 q 415 749 438 732 q 375 821 392 765 q 369 908 357 879 q 429 951 382 938 l 646 1017 q 715 1014 690 1031 q 758 942 740 997 q 766 858 778 886 q 706 813 754 829 l 478 743 z "},"ô":{"ha":1043,"x_min":33,"x_max":1010,"o":"m 522 -25 q 310 1 401 -25 q 158 75 219 26 q 65 191 96 124 q 33 340 33 258 q 65 492 33 424 q 157 608 96 560 q 309 683 218 657 q 521 710 400 710 q 790 664 682 710 q 954 535 899 618 q 1010 342 1010 453 q 978 192 1010 260 q 886 76 947 125 q 734 1 825 28 q 522 -25 643 -25 m 521 210 q 650 226 600 210 q 724 272 700 242 q 747 343 747 301 q 724 415 747 386 q 649 460 700 444 q 519 475 599 475 q 392 456 442 475 q 319 408 343 438 q 296 342 296 378 q 319 270 296 300 q 393 225 343 240 q 521 210 443 210 m 522 1011 q 542 1008 533 1011 q 556 1004 551 1006 l 735 944 q 789 894 779 931 q 776 814 799 858 q 735 753 758 776 q 688 739 711 729 l 522 801 l 358 742 q 309 756 332 732 q 267 815 286 781 q 252 894 243 860 q 307 944 261 929 l 488 1004 q 501 1008 490 1006 q 522 1011 511 1011 z "},"ö":{"ha":1043,"x_min":33,"x_max":1010,"o":"m 522 -25 q 310 1 401 -25 q 158 75 219 26 q 65 191 96 124 q 33 340 33 258 q 65 492 33 424 q 157 608 96 560 q 309 683 218 657 q 521 710 400 710 q 790 664 682 710 q 954 535 899 618 q 1010 342 1010 453 q 978 192 1010 260 q 886 76 947 125 q 734 1 825 28 q 522 -25 643 -25 m 521 210 q 650 226 600 210 q 724 272 700 242 q 747 343 747 301 q 724 415 747 386 q 649 460 700 444 q 519 475 599 475 q 392 456 442 475 q 319 408 343 438 q 296 342 296 378 q 319 270 296 300 q 393 225 343 240 q 521 210 443 210 m 697 756 q 607 774 633 756 q 575 823 581 793 q 569 885 569 853 q 575 946 569 917 q 608 993 581 975 q 699 1011 635 1011 q 789 992 763 1011 q 821 944 815 974 q 826 882 826 914 q 821 822 826 851 q 789 774 815 793 q 697 756 763 756 m 349 756 q 258 774 285 756 q 226 823 232 793 q 221 885 221 853 q 227 946 222 917 q 259 993 232 975 q 350 1011 286 1011 q 440 992 414 1011 q 472 944 467 974 q 478 882 478 914 q 472 822 478 851 q 440 774 467 793 q 349 756 414 756 z "},"ò":{"ha":1043,"x_min":33,"x_max":1010,"o":"m 522 -25 q 310 1 401 -25 q 158 75 219 26 q 65 191 96 124 q 33 340 33 258 q 65 492 33 424 q 157 608 96 560 q 309 683 218 657 q 521 710 400 710 q 790 664 682 710 q 954 535 899 618 q 1010 342 1010 453 q 978 192 1010 260 q 886 76 947 125 q 734 1 825 28 q 522 -25 643 -25 m 521 210 q 650 226 600 210 q 724 272 700 242 q 747 343 747 301 q 724 415 747 386 q 649 460 700 444 q 519 475 599 475 q 392 456 442 475 q 319 408 343 438 q 296 342 296 378 q 319 270 296 300 q 393 225 343 240 q 521 210 443 210 m 533 743 l 306 813 q 246 858 257 829 q 253 942 235 886 q 297 1014 272 997 q 365 1017 322 1031 l 582 951 q 642 908 631 938 q 636 821 654 879 q 597 749 619 765 q 533 743 574 732 z "},"ø":{"ha":1124,"x_min":15,"x_max":1067,"o":"m 917 500 l 739 661 l 843 776 q 922 825 886 825 q 1007 778 958 825 q 1055 719 1043 744 q 1057 668 1067 693 q 1018 611 1047 643 l 917 500 m 75 -99 q 22 -22 28 -58 q 58 61 15 14 l 165 176 l 342 18 l 238 -96 q 161 -144 194 -143 q 75 -99 128 -146 m 556 -25 q 344 1 435 -25 q 191 75 253 26 q 98 191 129 124 q 67 340 67 258 q 98 492 67 424 q 190 608 129 560 q 342 683 251 657 q 554 710 433 710 q 824 664 715 710 q 988 535 932 618 q 1043 342 1043 453 q 1012 192 1043 260 q 919 76 981 125 q 767 1 858 28 q 556 -25 676 -25 m 554 210 q 683 226 633 210 q 757 272 733 242 q 781 343 781 301 q 757 415 781 386 q 683 460 733 444 q 553 475 632 475 q 426 456 475 475 q 353 408 376 438 q 329 342 329 378 q 353 270 329 300 q 426 225 376 240 q 554 210 476 210 z "},"õ":{"ha":1043,"x_min":33,"x_max":1010,"o":"m 522 -25 q 310 1 401 -25 q 158 75 219 26 q 65 191 96 124 q 33 340 33 258 q 65 492 33 424 q 157 608 96 560 q 309 683 218 657 q 521 710 400 710 q 790 664 682 710 q 954 535 899 618 q 1010 342 1010 453 q 978 192 1010 260 q 886 76 947 125 q 734 1 825 28 q 522 -25 643 -25 m 521 210 q 650 226 600 210 q 724 272 700 242 q 747 343 747 301 q 724 415 747 386 q 649 460 700 444 q 519 475 599 475 q 392 456 442 475 q 319 408 343 438 q 296 342 296 378 q 319 270 296 300 q 393 225 343 240 q 521 210 443 210 m 447 1011 q 502 994 483 1011 q 534 961 521 978 q 563 944 547 944 q 596 961 583 944 q 623 994 608 978 q 664 1011 638 1011 q 692 1006 678 1011 q 721 989 706 1000 q 776 930 767 958 q 761 861 786 901 q 715 807 744 833 q 650 765 685 781 q 583 749 615 749 q 528 766 549 749 q 494 801 508 783 q 464 818 481 818 q 408 803 426 818 q 379 775 390 789 q 352 751 365 757 q 300 776 339 746 q 251 836 257 810 q 271 901 244 863 q 321 954 290 929 q 385 995 351 979 q 447 1011 419 1011 z "},"œ":{"ha":1828,"x_min":49,"x_max":1779,"o":"m 538 -25 q 326 1 417 -25 q 173 75 235 26 q 80 191 111 124 q 49 340 49 258 q 80 492 49 424 q 172 608 111 560 q 324 683 233 657 q 536 710 415 710 q 806 664 697 710 q 969 535 914 618 q 1025 342 1025 453 q 994 192 1025 260 q 901 76 963 125 q 749 1 840 28 q 538 -25 658 -25 m 536 210 q 665 226 615 210 q 739 272 715 242 q 763 343 763 301 q 738 415 763 386 q 664 460 714 444 q 535 475 614 475 q 408 456 457 475 q 335 408 358 438 q 311 342 311 378 q 335 270 311 300 q 408 225 358 240 q 536 210 458 210 m 1328 -29 q 1080 5 1178 -29 q 926 94 982 39 q 847 214 869 150 q 824 338 824 278 q 878 523 824 440 q 1044 653 932 606 q 1328 701 1156 701 q 1547 675 1460 701 q 1685 607 1633 649 q 1758 517 1736 565 q 1779 428 1779 469 q 1740 310 1779 350 q 1640 269 1701 269 l 1079 269 q 1109 227 1082 249 q 1194 191 1136 206 q 1347 176 1253 176 q 1462 183 1418 176 q 1531 201 1506 190 q 1572 222 1556 211 q 1603 239 1588 232 q 1644 246 1619 246 q 1690 236 1669 246 q 1728 193 1711 226 q 1742 160 1738 175 q 1746 129 1746 144 q 1694 50 1746 86 q 1548 -8 1642 14 q 1328 -29 1454 -29 m 1079 400 l 1508 400 q 1542 403 1528 400 q 1556 429 1556 406 q 1530 467 1556 451 q 1451 490 1504 482 q 1315 499 1397 499 q 1182 486 1232 499 q 1108 451 1132 474 q 1079 400 1083 429 z "},"p":{"ha":1026,"x_min":49,"x_max":1006,"o":"m 560 -10 q 381 18 449 -10 q 279 94 314 46 q 233 210 244 143 q 221 353 221 276 q 233 478 221 418 q 279 587 244 539 q 381 663 314 635 q 560 692 449 692 q 754 667 671 692 q 894 596 838 642 q 978 486 950 550 q 1006 343 1006 422 q 978 199 1006 264 q 894 88 950 135 q 754 15 838 40 q 560 -10 671 -10 m 175 -307 q 86 -289 113 -307 q 54 -242 60 -271 q 49 -182 49 -212 l 49 567 q 53 626 49 597 q 85 674 58 656 q 174 693 111 693 q 249 676 214 693 q 300 629 283 658 l 300 -181 q 297 -240 303 -211 q 265 -288 292 -269 q 175 -307 238 -307 m 526 213 q 651 228 604 213 q 718 274 697 244 q 739 340 739 303 q 718 408 739 379 q 651 452 697 436 q 528 468 606 468 q 405 452 451 468 q 338 408 358 436 q 317 340 317 379 q 337 274 317 303 q 403 228 357 244 q 526 213 450 213 z "},"þ":{"ha":869,"x_min":49,"x_max":849,"o":"m 472 -10 q 334 18 388 -10 q 252 94 281 46 q 213 210 224 143 q 203 353 203 276 q 213 478 203 418 q 252 587 224 539 q 334 663 281 635 q 472 692 388 692 q 626 667 557 692 q 745 596 696 642 q 822 486 794 550 q 849 343 849 422 q 822 199 849 264 q 745 88 794 135 q 626 15 696 40 q 472 -10 557 -10 m 165 -304 q 83 -285 107 -304 q 53 -238 58 -267 q 49 -179 49 -210 l 49 906 q 53 965 49 936 q 83 1011 58 993 q 167 1029 108 1029 q 249 1010 225 1029 q 279 963 274 992 q 285 904 285 935 l 285 -182 q 279 -240 285 -212 q 249 -286 274 -268 q 165 -304 225 -304 m 439 213 q 514 228 482 213 q 564 274 546 244 q 582 340 582 303 q 564 408 582 379 q 515 452 546 436 q 440 468 483 468 q 367 452 399 468 q 317 408 335 436 q 299 340 299 379 q 316 274 299 303 q 365 228 333 244 q 439 213 397 213 z "},"q":{"ha":1033,"x_min":28,"x_max":985,"o":"m 474 -10 q 279 15 363 -10 q 140 88 196 40 q 56 199 83 135 q 28 343 28 264 q 56 486 28 422 q 140 596 83 550 q 279 667 196 642 q 474 692 363 692 q 652 663 585 692 q 754 587 719 635 q 801 478 789 539 q 813 353 813 418 q 801 210 813 276 q 754 94 789 143 q 652 18 719 46 q 474 -10 585 -10 m 507 213 q 631 228 585 213 q 697 274 676 244 q 717 340 717 303 q 696 408 717 379 q 629 452 675 436 q 506 468 583 468 q 383 452 429 468 q 315 408 336 436 q 294 340 294 379 q 315 274 294 303 q 383 228 336 244 q 507 213 429 213 m 858 -307 q 769 -288 796 -307 q 738 -240 743 -269 q 733 -181 733 -211 l 733 597 q 754 660 733 639 q 804 687 775 681 q 860 693 833 693 q 948 674 922 693 q 979 626 974 656 q 985 567 985 597 l 985 -182 q 979 -242 985 -212 q 948 -289 974 -271 q 858 -307 922 -307 z "},"r":{"ha":794,"x_min":49,"x_max":788,"o":"m 174 -12 q 85 6 111 -12 q 53 55 58 25 q 49 115 49 85 l 49 568 q 54 628 49 600 q 86 675 60 657 q 175 693 113 693 q 262 676 236 693 q 293 640 288 660 q 299 608 299 619 l 276 575 q 308 618 282 596 q 374 658 335 640 q 456 688 413 676 q 536 700 499 700 q 577 698 549 700 q 642 690 606 696 q 711 674 678 685 q 766 644 744 663 q 788 600 788 626 q 758 482 788 531 q 679 433 728 433 q 631 438 653 433 q 588 449 608 443 q 544 459 567 454 q 494 464 522 464 q 417 457 453 464 q 356 439 382 450 q 316 413 331 428 q 301 383 301 399 l 301 113 q 296 53 301 82 q 264 6 290 24 q 174 -12 238 -12 z "},"s":{"ha":913,"x_min":33,"x_max":878,"o":"m 443 -25 q 306 -17 367 -25 q 199 6 246 -8 q 119 35 153 19 q 65 64 86 50 q 35 110 38 82 q 48 169 33 138 q 86 233 63 201 q 146 261 113 269 q 213 232 179 253 q 270 208 233 218 q 348 190 307 197 q 424 180 389 183 q 476 176 458 176 q 610 183 578 176 q 643 206 643 189 q 618 226 643 218 q 552 238 593 233 q 464 245 511 242 q 372 253 417 249 q 296 263 328 257 q 210 285 253 271 q 134 324 168 299 q 79 389 100 349 q 58 488 58 429 q 97 603 58 554 q 222 680 136 653 q 447 707 308 707 q 519 703 474 707 q 617 692 564 699 q 717 674 669 685 q 794 647 764 663 q 846 585 844 624 q 818 503 847 547 q 765 454 792 463 q 707 464 739 446 q 624 495 675 483 q 522 513 572 507 q 444 518 472 518 q 347 512 378 518 q 308 498 317 506 q 299 485 299 490 q 336 466 299 472 q 429 456 374 460 q 542 447 485 451 q 638 435 599 443 q 724 411 682 426 q 801 369 767 396 q 857 302 836 343 q 878 201 878 261 q 769 34 878 93 q 443 -25 660 -25 z "},"š":{"ha":913,"x_min":33,"x_max":878,"o":"m 443 -25 q 306 -17 367 -25 q 199 6 246 -8 q 119 35 153 19 q 65 64 86 50 q 35 110 38 82 q 48 169 33 138 q 86 233 63 201 q 146 261 113 269 q 213 232 179 253 q 270 208 233 218 q 348 190 307 197 q 424 180 389 183 q 476 176 458 176 q 610 183 578 176 q 643 206 643 189 q 618 226 643 218 q 552 238 593 233 q 464 245 511 242 q 372 253 417 249 q 296 263 328 257 q 210 285 253 271 q 134 324 168 299 q 79 389 100 349 q 58 488 58 429 q 97 603 58 554 q 222 680 136 653 q 447 707 308 707 q 519 703 474 707 q 617 692 564 699 q 717 674 669 685 q 794 647 764 663 q 846 585 844 624 q 818 503 847 547 q 765 454 792 463 q 707 464 739 446 q 624 495 675 483 q 522 513 572 507 q 444 518 472 518 q 347 512 378 518 q 308 498 317 506 q 299 485 299 490 q 336 466 299 472 q 429 456 374 460 q 542 447 485 451 q 638 435 599 443 q 724 411 682 426 q 801 369 767 396 q 857 302 836 343 q 878 201 878 261 q 769 34 878 93 q 443 -25 660 -25 m 457 950 l 564 997 q 607 1010 582 1004 q 660 1002 632 1015 q 713 938 688 989 q 725 855 736 889 q 669 807 714 821 l 490 747 q 477 744 486 747 q 457 740 468 740 q 436 744 446 740 q 424 747 426 747 l 244 807 q 190 856 201 819 q 201 938 179 892 q 251 1001 226 988 q 297 1012 275 1015 q 336 1003 319 1008 l 457 950 z "},"ß":{"ha":1079,"x_min":21,"x_max":1058,"o":"m 144 -54 q 56 -35 82 -54 q 26 12 31 -17 q 21 71 21 40 l 21 596 q 84 810 21 724 q 255 940 147 896 q 496 985 363 985 q 721 956 619 985 q 883 878 822 928 q 943 765 943 828 q 920 664 943 703 q 867 600 897 625 q 815 558 838 575 q 792 522 792 540 q 819 484 792 499 q 885 453 846 469 q 965 411 925 436 q 1031 342 1004 386 q 1058 228 1058 299 q 1026 121 1058 167 q 940 44 993 75 q 824 -1 888 14 q 697 -17 760 -17 q 586 -10 642 -17 q 499 7 531 -3 q 404 58 428 29 q 397 158 381 88 q 416 213 406 193 q 442 242 426 233 q 475 251 457 251 q 528 240 500 251 q 594 217 557 228 q 678 206 631 206 q 743 212 710 206 q 799 231 776 218 q 821 264 821 243 q 795 290 821 278 q 731 318 769 303 q 654 357 693 333 q 590 415 615 381 q 564 501 564 450 q 585 588 564 557 q 632 638 606 619 q 679 670 658 656 q 700 707 700 685 q 672 745 700 728 q 597 772 643 763 q 499 782 551 782 q 403 769 446 782 q 331 732 361 756 q 285 676 301 708 q 269 607 269 644 l 269 68 q 264 10 269 38 q 233 -36 258 -18 q 144 -54 207 -54 z "},"t":{"ha":888,"x_min":21,"x_max":867,"o":"m 676 -12 q 531 4 604 -12 q 397 56 457 21 q 301 143 338 90 q 264 267 264 196 l 264 806 q 269 865 264 838 q 301 909 275 892 q 390 926 328 926 q 478 908 451 926 q 510 860 504 889 q 515 800 515 831 l 515 279 q 531 253 515 264 q 570 238 546 243 q 623 229 594 232 q 678 226 651 226 q 742 221 714 226 q 787 192 771 215 q 803 113 803 168 q 783 24 803 50 q 735 -8 764 -3 q 676 -12 706 -12 m 110 685 l 481 685 l 742 692 q 801 687 772 693 q 848 654 829 681 q 867 564 867 628 q 848 479 867 506 q 801 446 829 453 q 740 439 772 439 l 494 443 l 104 443 q 39 474 57 446 q 21 565 21 501 q 43 655 21 625 q 110 685 65 685 z "},"u":{"ha":1088,"x_min":42,"x_max":1025,"o":"m 463 -10 q 260 21 342 -10 q 131 105 179 51 q 63 226 83 158 q 42 369 42 294 l 42 569 q 47 630 42 601 q 79 676 53 658 q 168 694 106 694 q 258 676 232 694 q 290 628 285 657 q 296 568 296 599 l 296 356 q 313 294 296 324 q 382 247 331 265 q 533 228 433 228 q 685 247 633 228 q 756 296 738 267 q 774 356 774 325 l 774 569 q 779 630 774 601 q 811 676 785 658 q 900 694 838 694 q 988 676 963 694 q 1019 628 1014 657 q 1025 568 1025 600 l 1025 111 q 1019 53 1025 81 q 988 8 1014 25 q 899 -10 961 -10 q 817 9 843 -10 q 784 52 792 28 q 777 96 776 76 q 775 115 778 115 l 769 121 q 770 85 785 107 q 715 42 756 64 q 610 5 674 19 q 463 -10 546 -10 z "},"ú":{"ha":1088,"x_min":42,"x_max":1025,"o":"m 463 -10 q 260 21 342 -10 q 131 105 179 51 q 63 226 83 158 q 42 369 42 294 l 42 569 q 47 630 42 601 q 79 676 53 658 q 168 694 106 694 q 258 676 232 694 q 290 628 285 657 q 296 568 296 599 l 296 356 q 313 294 296 324 q 382 247 331 265 q 533 228 433 228 q 685 247 633 228 q 756 296 738 267 q 774 356 774 325 l 774 569 q 779 630 774 601 q 811 676 785 658 q 900 694 838 694 q 988 676 963 694 q 1019 628 1014 657 q 1025 568 1025 600 l 1025 111 q 1019 53 1025 81 q 988 8 1014 25 q 899 -10 961 -10 q 817 9 843 -10 q 784 52 792 28 q 777 96 776 76 q 775 115 778 115 l 769 121 q 770 85 785 107 q 715 42 756 64 q 610 5 674 19 q 463 -10 546 -10 m 492 743 q 428 749 451 732 q 389 821 406 765 q 383 908 371 879 q 443 951 396 938 l 660 1017 q 729 1014 704 1031 q 772 942 754 997 q 780 858 792 886 q 719 813 768 829 l 492 743 z "},"û":{"ha":1088,"x_min":42,"x_max":1025,"o":"m 463 -10 q 260 21 342 -10 q 131 105 179 51 q 63 226 83 158 q 42 369 42 294 l 42 569 q 47 630 42 601 q 79 676 53 658 q 168 694 106 694 q 258 676 232 694 q 290 628 285 657 q 296 568 296 599 l 296 356 q 313 294 296 324 q 382 247 331 265 q 533 228 433 228 q 685 247 633 228 q 756 296 738 267 q 774 356 774 325 l 774 569 q 779 630 774 601 q 811 676 785 658 q 900 694 838 694 q 988 676 963 694 q 1019 628 1014 657 q 1025 568 1025 600 l 1025 111 q 1019 53 1025 81 q 988 8 1014 25 q 899 -10 961 -10 q 817 9 843 -10 q 784 52 792 28 q 777 96 776 76 q 775 115 778 115 l 769 121 q 770 85 785 107 q 715 42 756 64 q 610 5 674 19 q 463 -10 546 -10 m 536 1011 q 556 1008 547 1011 q 569 1004 565 1006 l 749 944 q 803 894 793 931 q 790 814 813 858 q 749 753 772 776 q 701 739 725 729 l 536 801 l 372 742 q 323 756 346 732 q 281 815 300 781 q 266 894 257 860 q 321 944 275 929 l 501 1004 q 515 1008 504 1006 q 536 1011 525 1011 z "},"ü":{"ha":1088,"x_min":42,"x_max":1025,"o":"m 463 -10 q 260 21 342 -10 q 131 105 179 51 q 63 226 83 158 q 42 369 42 294 l 42 569 q 47 630 42 601 q 79 676 53 658 q 168 694 106 694 q 258 676 232 694 q 290 628 285 657 q 296 568 296 599 l 296 356 q 313 294 296 324 q 382 247 331 265 q 533 228 433 228 q 685 247 633 228 q 756 296 738 267 q 774 356 774 325 l 774 569 q 779 630 774 601 q 811 676 785 658 q 900 694 838 694 q 988 676 963 694 q 1019 628 1014 657 q 1025 568 1025 600 l 1025 111 q 1019 53 1025 81 q 988 8 1014 25 q 899 -10 961 -10 q 817 9 843 -10 q 784 52 792 28 q 777 96 776 76 q 775 115 778 115 l 769 121 q 770 85 785 107 q 715 42 756 64 q 610 5 674 19 q 463 -10 546 -10 m 711 756 q 621 774 647 756 q 589 823 594 793 q 583 885 583 853 q 589 946 583 917 q 622 993 594 975 q 713 1011 649 1011 q 803 992 776 1011 q 835 944 829 974 q 840 882 840 914 q 835 822 840 851 q 803 774 829 793 q 711 756 776 756 m 363 756 q 272 774 299 756 q 240 823 246 793 q 235 885 235 853 q 241 946 236 917 q 273 993 246 975 q 364 1011 300 1011 q 454 992 428 1011 q 486 944 481 974 q 492 882 492 914 q 486 822 492 851 q 454 774 481 793 q 363 756 428 756 z "},"ù":{"ha":1088,"x_min":42,"x_max":1025,"o":"m 463 -10 q 260 21 342 -10 q 131 105 179 51 q 63 226 83 158 q 42 369 42 294 l 42 569 q 47 630 42 601 q 79 676 53 658 q 168 694 106 694 q 258 676 232 694 q 290 628 285 657 q 296 568 296 599 l 296 356 q 313 294 296 324 q 382 247 331 265 q 533 228 433 228 q 685 247 633 228 q 756 296 738 267 q 774 356 774 325 l 774 569 q 779 630 774 601 q 811 676 785 658 q 900 694 838 694 q 988 676 963 694 q 1019 628 1014 657 q 1025 568 1025 600 l 1025 111 q 1019 53 1025 81 q 988 8 1014 25 q 899 -10 961 -10 q 817 9 843 -10 q 784 52 792 28 q 777 96 776 76 q 775 115 778 115 l 769 121 q 770 85 785 107 q 715 42 756 64 q 610 5 674 19 q 463 -10 546 -10 m 547 743 l 319 813 q 260 858 271 829 q 267 942 249 886 q 311 1014 286 997 q 379 1017 336 1031 l 596 951 q 656 908 644 938 q 650 821 668 879 q 610 749 633 765 q 547 743 588 732 z "},"v":{"ha":1100,"x_min":25,"x_max":1075,"o":"m 550 -19 q 479 -2 511 -19 q 425 42 447 15 l 65 500 q 34 594 25 551 q 103 676 43 638 q 207 712 169 721 q 279 653 244 703 l 550 275 l 821 653 q 895 712 858 706 q 997 676 932 718 q 1067 594 1058 638 q 1035 500 1075 550 l 675 42 q 622 -2 653 15 q 550 -19 590 -19 z "},"w":{"ha":1335,"x_min":32,"x_max":1313,"o":"m 418 -17 q 351 -1 374 -17 q 317 35 328 14 q 296 74 306 56 l 49 536 q 35 596 32 568 q 58 646 38 624 q 117 683 79 668 q 218 698 182 711 q 281 632 254 685 l 418 369 l 546 604 q 565 638 553 617 q 599 677 576 660 q 664 694 622 694 q 734 676 710 694 q 770 637 758 658 q 789 603 782 615 l 915 369 l 1044 610 q 1110 691 1075 667 q 1207 688 1144 715 q 1289 623 1265 661 q 1285 533 1313 585 l 1036 74 q 1015 34 1026 56 q 982 -2 1004 13 q 917 -17 960 -17 q 849 -1 872 -17 q 815 35 826 14 q 793 74 803 56 l 667 307 l 540 74 q 521 35 531 56 q 488 -1 511 14 q 418 -17 465 -17 z "},"x":{"ha":1046,"x_min":29,"x_max":1017,"o":"m 971 640 q 1008 569 1001 600 q 1001 513 1015 539 q 949 464 986 488 l 251 18 q 186 -15 214 -6 q 133 -11 158 -24 q 78 39 108 1 q 38 109 46 79 q 45 165 29 139 q 99 214 61 190 l 796 661 q 891 699 854 699 q 971 640 928 699 m 75 640 q 131 692 106 681 q 185 695 157 704 q 250 661 213 686 l 947 214 q 1002 163 988 189 q 1008 108 1017 138 q 968 39 1000 78 q 912 -12 938 0 q 859 -15 886 -24 q 794 18 832 -6 l 97 464 q 44 515 58 489 q 38 571 29 540 q 75 640 46 601 z "},"y":{"ha":983,"x_min":18,"x_max":951,"o":"m 214 -269 q 149 -187 153 -225 q 185 -96 144 -149 l 710 649 q 787 714 750 706 q 883 678 824 722 q 947 599 943 635 q 915 510 951 563 l 388 -242 q 310 -306 347 -299 q 214 -269 274 -312 m 451 51 l 61 507 q 22 595 18 558 q 79 676 25 632 q 176 720 139 725 q 256 664 213 715 l 521 356 l 451 51 z "},"ý":{"ha":983,"x_min":18,"x_max":951,"o":"m 214 -269 q 149 -187 153 -225 q 185 -96 144 -149 l 710 649 q 787 714 750 706 q 883 678 824 722 q 947 599 943 635 q 915 510 951 563 l 388 -242 q 310 -306 347 -299 q 214 -269 274 -312 m 451 51 l 61 507 q 22 595 18 558 q 79 676 25 632 q 176 720 139 725 q 256 664 213 715 l 521 356 l 451 51 m 467 743 q 403 749 426 732 q 364 821 381 765 q 358 908 346 879 q 418 951 371 938 l 635 1017 q 704 1014 679 1031 q 747 942 729 997 q 755 858 767 886 q 694 813 743 829 l 467 743 z "},"ÿ":{"ha":983,"x_min":18,"x_max":951,"o":"m 214 -269 q 149 -187 153 -225 q 185 -96 144 -149 l 710 649 q 787 714 750 706 q 883 678 824 722 q 947 599 943 635 q 915 510 951 563 l 388 -242 q 310 -306 347 -299 q 214 -269 274 -312 m 451 51 l 61 507 q 22 595 18 558 q 79 676 25 632 q 176 720 139 725 q 256 664 213 715 l 521 356 l 451 51 m 686 756 q 596 774 622 756 q 564 823 569 793 q 558 885 558 853 q 564 946 558 917 q 597 993 569 975 q 688 1011 624 1011 q 778 992 751 1011 q 810 944 804 974 q 815 882 815 914 q 810 822 815 851 q 778 774 804 793 q 686 756 751 756 m 338 756 q 247 774 274 756 q 215 823 221 793 q 210 885 210 853 q 216 946 211 917 q 248 993 221 975 q 339 1011 275 1011 q 429 992 403 1011 q 461 944 456 974 q 467 882 467 914 q 461 822 467 851 q 429 774 456 793 q 338 756 403 756 z "},"z":{"ha":1065,"x_min":49,"x_max":1017,"o":"m 174 -12 q 85 25 122 -12 q 49 114 49 63 q 58 170 49 139 q 100 217 68 201 l 561 442 l 204 442 q 144 447 174 442 q 96 479 115 453 q 76 568 76 506 q 96 656 76 631 q 144 688 115 682 q 204 693 174 693 l 875 693 q 963 657 926 693 q 1000 569 1000 621 q 988 517 1000 543 q 947 476 975 490 l 468 240 l 892 240 q 952 235 924 240 q 999 202 981 229 q 1017 113 1017 175 q 998 24 1017 50 q 951 -8 979 -3 q 890 -12 922 -12 l 174 -12 z "},"ž":{"ha":1065,"x_min":49,"x_max":1017,"o":"m 174 -12 q 85 25 122 -12 q 49 114 49 63 q 58 170 49 139 q 100 217 68 201 l 561 442 l 204 442 q 144 447 174 442 q 96 479 115 453 q 76 568 76 506 q 96 656 76 631 q 144 688 115 682 q 204 693 174 693 l 875 693 q 963 657 926 693 q 1000 569 1000 621 q 988 517 1000 543 q 947 476 975 490 l 468 240 l 892 240 q 952 235 924 240 q 999 202 981 229 q 1017 113 1017 175 q 998 24 1017 50 q 951 -8 979 -3 q 890 -12 922 -12 l 174 -12 m 547 950 l 654 997 q 697 1010 672 1004 q 750 1002 722 1015 q 803 938 778 989 q 815 855 826 889 q 760 807 804 821 l 581 747 q 567 744 576 747 q 547 740 558 740 q 526 744 536 740 q 514 747 517 747 l 335 807 q 281 856 292 819 q 292 938 269 892 q 341 1001 317 988 q 388 1012 365 1015 q 426 1003 410 1008 l 547 950 z "},"ﬁ":{"ha":1292,"x_min":35,"x_max":1229,"o":"m 403 -14 q 315 5 340 -14 q 283 53 289 24 q 278 114 278 83 l 278 740 q 303 833 278 785 q 383 922 329 881 q 520 988 436 963 q 721 1014 604 1014 q 781 1008 751 1014 q 828 977 810 1003 q 847 888 847 951 q 828 799 847 825 q 779 767 808 772 q 719 763 750 763 q 651 762 685 763 q 591 757 618 761 q 547 743 564 753 q 531 715 531 733 l 531 111 q 525 52 531 81 q 492 5 519 24 q 403 -14 465 -14 m 124 685 l 494 685 l 756 692 q 815 687 786 693 q 862 654 843 681 q 881 564 881 628 q 862 479 881 506 q 815 446 843 453 q 754 439 786 439 l 508 443 l 118 443 q 53 474 71 446 q 35 565 35 501 q 57 655 35 625 q 124 685 79 685 m 1103 -12 q 1015 6 1040 -12 q 983 54 989 25 q 978 114 978 83 l 978 567 q 983 626 978 597 q 1015 673 989 654 q 1104 692 1042 692 q 1192 673 1167 692 q 1224 625 1218 654 q 1229 564 1229 596 l 1229 113 q 1224 53 1229 82 q 1192 6 1218 24 q 1103 -12 1167 -12 m 1103 760 q 1015 778 1040 760 q 983 826 989 797 q 978 886 978 856 q 983 947 978 918 q 1015 993 989 975 q 1104 1011 1042 1011 q 1192 992 1167 1011 q 1224 944 1218 974 q 1229 885 1229 915 q 1224 825 1229 854 q 1192 778 1218 796 q 1103 760 1167 760 z "},"ﬂ":{"ha":1556,"x_min":35,"x_max":1535,"o":"m 403 -14 q 315 5 340 -14 q 283 53 289 24 q 278 114 278 83 l 278 740 q 303 833 278 785 q 383 922 329 881 q 520 988 436 963 q 721 1014 604 1014 q 781 1008 751 1014 q 828 977 810 1003 q 847 888 847 951 q 828 799 847 825 q 779 767 808 772 q 719 763 750 763 q 651 762 685 763 q 591 757 618 761 q 547 743 564 753 q 531 715 531 733 l 531 111 q 525 52 531 81 q 492 5 519 24 q 403 -14 465 -14 m 124 685 l 494 685 l 756 692 q 815 687 786 693 q 862 654 843 681 q 881 564 881 628 q 862 479 881 506 q 815 446 843 453 q 754 439 786 439 l 508 443 l 118 443 q 53 474 71 446 q 35 565 35 501 q 57 655 35 625 q 124 685 79 685 m 1446 -12 q 1339 -7 1400 -12 q 1215 15 1278 -1 q 1098 63 1151 32 q 1011 145 1044 94 q 978 272 978 196 l 978 888 q 983 948 978 919 q 1015 995 989 976 q 1104 1014 1042 1014 q 1192 995 1167 1014 q 1224 947 1218 976 q 1229 886 1229 918 l 1229 288 q 1258 255 1229 267 q 1325 238 1286 243 q 1399 231 1364 232 q 1447 231 1433 231 q 1485 226 1465 231 q 1520 197 1506 221 q 1535 113 1535 172 q 1520 24 1535 50 q 1485 -8 1506 -3 q 1446 -12 1464 -12 z "},"ª":{"ha":739,"x_min":35,"x_max":704,"o":"m 611 933 q 677 919 658 933 q 700 883 696 904 q 704 840 704 863 l 704 517 q 700 472 704 494 q 676 436 696 450 q 610 422 657 422 q 540 451 563 422 q 517 501 518 479 l 538 486 q 508 460 529 475 q 448 433 486 444 q 350 422 410 422 q 178 459 249 422 q 71 555 107 496 q 35 681 35 614 q 72 803 35 746 q 178 897 108 861 q 350 933 249 933 q 447 920 407 933 q 509 892 488 907 q 531 872 531 878 l 515 851 q 540 905 518 876 q 611 933 563 933 m 376 597 q 451 607 422 597 q 495 635 481 617 q 510 678 510 654 q 495 723 510 704 q 451 751 481 742 q 374 761 421 761 q 258 739 293 761 q 222 676 222 717 q 238 635 222 653 q 288 607 254 617 q 376 597 322 597 z "},"º":{"ha":736,"x_min":35,"x_max":701,"o":"m 371 403 q 190 434 265 403 q 75 524 115 465 q 35 664 35 582 q 74 807 35 747 q 189 898 114 867 q 368 929 264 929 q 548 898 474 929 q 662 807 622 867 q 701 664 701 747 q 662 524 701 582 q 549 434 622 465 q 371 403 475 403 m 368 589 q 476 610 438 589 q 514 667 514 631 q 475 722 514 703 q 367 742 436 742 q 261 722 299 742 q 224 665 224 701 q 262 609 224 629 q 368 589 300 589 z "},"א":{"ha":1171,"x_min":32,"x_max":1125,"o":"m 1076 36 q 1004 -19 1036 -12 q 947 -11 972 -26 q 897 22 921 4 l 135 592 q 91 633 110 611 q 76 688 72 656 q 119 767 79 719 q 192 825 161 817 q 249 819 224 833 q 300 785 275 804 l 1063 215 q 1106 174 1088 197 q 1122 117 1125 150 q 1076 36 1118 85 m 136 -7 q 53 34 75 8 q 35 90 32 60 q 46 150 38 121 l 179 592 l 393 482 l 289 75 q 269 23 282 47 q 227 -11 257 -1 q 136 -7 197 -21 m 872 249 l 768 389 l 868 724 q 892 779 878 754 q 937 813 906 804 q 1028 801 968 821 q 1106 758 1088 783 q 1122 702 1125 732 q 1108 640 1118 672 l 1044 421 q 1009 365 1032 389 q 953 316 986 342 q 872 249 919 290 z "},"אַ":{"ha":1171,"x_min":32,"x_max":1125,"o":"m 1076 36 q 1004 -19 1036 -12 q 947 -11 972 -26 q 897 22 921 4 l 135 592 q 91 633 110 611 q 76 688 72 656 q 119 767 79 719 q 192 825 161 817 q 249 819 224 833 q 300 785 275 804 l 1063 215 q 1106 174 1088 197 q 1122 117 1125 150 q 1076 36 1118 85 m 136 -7 q 53 34 75 8 q 35 90 32 60 q 46 150 38 121 l 179 592 l 393 482 l 289 75 q 269 23 282 47 q 227 -11 257 -1 q 136 -7 197 -21 m 872 249 l 768 389 l 868 724 q 892 779 878 754 q 937 813 906 804 q 1028 801 968 821 q 1106 758 1088 783 q 1122 702 1125 732 q 1108 640 1118 672 l 1044 421 q 1009 365 1032 389 q 953 316 986 342 q 872 249 919 290 m 510 -174 q 464 -129 464 -174 l 464 -124 q 476 -90 464 -103 q 510 -78 489 -78 l 660 -78 q 704 -124 704 -78 l 704 -129 q 660 -174 704 -174 l 510 -174 z "},"אָ":{"ha":1171,"x_min":32,"x_max":1125,"o":"m 1076 36 q 1004 -19 1036 -12 q 947 -11 972 -26 q 897 22 921 4 l 135 592 q 91 633 110 611 q 76 688 72 656 q 119 767 79 719 q 192 825 161 817 q 249 819 224 833 q 300 785 275 804 l 1063 215 q 1106 174 1088 197 q 1122 117 1125 150 q 1076 36 1118 85 m 136 -7 q 53 34 75 8 q 35 90 32 60 q 46 150 38 121 l 179 592 l 393 482 l 289 75 q 269 23 282 47 q 227 -11 257 -1 q 136 -7 197 -21 m 872 249 l 768 389 l 868 724 q 892 779 878 754 q 937 813 906 804 q 1028 801 968 821 q 1106 758 1088 783 q 1122 702 1125 732 q 1108 640 1118 672 l 1044 421 q 1009 365 1032 389 q 953 316 986 342 q 872 249 919 290 m 582 -315 q 548 -302 560 -315 q 539 -267 536 -289 l 550 -174 l 497 -174 q 451 -129 451 -174 l 451 -124 q 464 -90 451 -103 q 497 -78 476 -78 l 672 -78 q 706 -90 693 -78 q 718 -124 718 -103 l 718 -129 q 672 -174 718 -174 l 618 -174 l 628 -268 q 619 -302 631 -289 q 586 -315 608 -315 l 582 -315 z "},"אּ":{"ha":1171,"x_min":32,"x_max":1125,"o":"m 1076 36 q 1004 -19 1036 -12 q 947 -11 972 -26 q 897 22 921 4 l 135 592 q 91 633 110 611 q 76 688 72 656 q 119 767 79 719 q 192 825 161 817 q 249 819 224 833 q 300 785 275 804 l 1063 215 q 1106 174 1088 197 q 1122 117 1125 150 q 1076 36 1118 85 m 136 -7 q 53 34 75 8 q 35 90 32 60 q 46 150 38 121 l 179 592 l 393 482 l 289 75 q 269 23 282 47 q 227 -11 257 -1 q 136 -7 197 -21 m 872 249 l 768 389 l 868 724 q 892 779 878 754 q 937 813 906 804 q 1028 801 968 821 q 1106 758 1088 783 q 1122 702 1125 732 q 1108 640 1118 672 l 1044 421 q 1009 365 1032 389 q 953 316 986 342 q 872 249 919 290 m 469 104 q 429 122 444 104 q 414 167 414 140 q 429 206 414 188 q 469 225 444 225 q 511 208 496 225 q 526 167 526 190 q 511 122 526 140 q 469 104 496 104 z "},"ב":{"ha":1144,"x_min":35,"x_max":1110,"o":"m 864 -12 q 795 2 824 -12 q 751 43 767 17 q 736 107 736 69 l 736 340 q 724 432 736 392 q 690 501 713 472 q 636 544 668 529 q 563 558 604 558 l 178 558 q 116 564 146 558 q 67 597 86 569 q 49 686 49 624 q 67 776 49 750 q 115 808 86 803 q 176 814 144 814 l 558 814 q 741 782 661 814 q 877 690 821 750 q 963 542 933 629 q 992 343 992 454 l 992 117 q 976 47 992 76 q 933 3 961 18 q 864 -12 904 -12 m 164 -12 q 102 -7 132 -12 q 53 26 72 -1 q 35 115 35 53 q 53 206 35 179 q 102 238 72 232 q 163 243 132 243 l 982 243 q 1043 238 1014 243 q 1091 206 1072 232 q 1110 115 1110 179 q 1091 26 1110 53 q 1043 -7 1072 -1 q 981 -12 1014 -12 l 164 -12 z "},"בּ":{"ha":1144,"x_min":35,"x_max":1110,"o":"m 864 -12 q 795 2 824 -12 q 751 43 767 17 q 736 107 736 69 l 736 340 q 724 432 736 392 q 690 501 713 472 q 636 544 668 529 q 563 558 604 558 l 178 558 q 116 564 146 558 q 67 597 86 569 q 49 686 49 624 q 67 776 49 750 q 115 808 86 803 q 176 814 144 814 l 558 814 q 741 782 661 814 q 877 690 821 750 q 963 542 933 629 q 992 343 992 454 l 992 117 q 976 47 992 76 q 933 3 961 18 q 864 -12 904 -12 m 164 -12 q 102 -7 132 -12 q 53 26 72 -1 q 35 115 35 53 q 53 206 35 179 q 102 238 72 232 q 163 243 132 243 l 982 243 q 1043 238 1014 243 q 1091 206 1072 232 q 1110 115 1110 179 q 1091 26 1110 53 q 1043 -7 1072 -1 q 981 -12 1014 -12 l 164 -12 m 433 350 q 393 368 408 350 q 378 413 378 386 q 393 452 378 433 q 433 471 408 471 q 475 453 460 471 q 490 413 490 436 q 475 368 490 386 q 433 350 460 350 z "},"ג":{"ha":806,"x_min":32,"x_max":779,"o":"m 642 -12 q 553 5 579 -12 q 522 49 528 22 q 513 106 517 76 l 478 351 q 468 431 472 392 q 450 500 464 469 q 402 549 436 531 q 303 567 368 567 q 283 567 297 567 q 261 567 268 567 q 178 589 206 567 q 153 667 151 611 l 154 732 q 183 794 156 772 q 269 817 211 817 q 283 817 276 817 q 297 817 290 817 q 503 782 425 814 q 623 696 581 750 q 686 569 665 642 q 721 414 707 497 l 768 118 q 749 19 779 50 q 642 -12 719 -12 m 188 -7 q 113 -7 146 -10 q 59 18 79 -4 q 36 92 39 40 q 50 200 32 169 q 124 231 68 231 q 240 238 185 231 q 346 259 296 246 q 442 291 396 272 q 534 333 489 310 q 622 381 579 356 l 624 290 q 558 219 592 257 q 488 143 525 181 q 406 74 450 106 q 308 20 363 42 q 188 -7 254 -1 z "},"גּ":{"ha":806,"x_min":32,"x_max":779,"o":"m 642 -12 q 553 5 579 -12 q 522 49 528 22 q 513 106 517 76 l 478 351 q 468 431 472 392 q 450 500 464 469 q 402 549 436 531 q 303 567 368 567 q 283 567 297 567 q 261 567 268 567 q 178 589 206 567 q 153 667 151 611 l 154 732 q 183 794 156 772 q 269 817 211 817 q 283 817 276 817 q 297 817 290 817 q 503 782 425 814 q 623 696 581 750 q 686 569 665 642 q 721 414 707 497 l 768 118 q 749 19 779 50 q 642 -12 719 -12 m 188 -7 q 113 -7 146 -10 q 59 18 79 -4 q 36 92 39 40 q 50 200 32 169 q 124 231 68 231 q 240 238 185 231 q 346 259 296 246 q 442 291 396 272 q 534 333 489 310 q 622 381 579 356 l 624 290 q 558 219 592 257 q 488 143 525 181 q 406 74 450 106 q 308 20 363 42 q 188 -7 254 -1 m 269 344 q 229 363 244 344 q 214 407 214 381 q 229 447 214 428 q 269 465 244 465 q 311 448 296 465 q 326 407 326 431 q 311 363 326 381 q 269 344 296 344 z "},"ד":{"ha":1103,"x_min":35,"x_max":1068,"o":"m 164 558 q 102 564 132 558 q 53 597 72 569 q 35 686 35 624 q 53 776 35 750 q 102 808 72 803 q 163 814 132 814 l 940 814 q 1001 808 972 814 q 1049 776 1031 803 q 1068 686 1068 750 q 1049 597 1068 624 q 1001 564 1031 569 q 939 558 972 558 l 164 558 m 788 -12 q 699 6 725 -12 q 667 55 672 25 q 661 117 661 85 l 661 626 l 915 603 l 915 107 q 910 50 915 78 q 877 5 904 22 q 788 -12 850 -12 z "},"דּ":{"ha":1103,"x_min":35,"x_max":1068,"o":"m 164 558 q 102 564 132 558 q 53 597 72 569 q 35 686 35 624 q 53 776 35 750 q 102 808 72 803 q 163 814 132 814 l 940 814 q 1001 808 972 814 q 1049 776 1031 803 q 1068 686 1068 750 q 1049 597 1068 624 q 1001 564 1031 569 q 939 558 972 558 l 164 558 m 788 -12 q 699 6 725 -12 q 667 55 672 25 q 661 117 661 85 l 661 626 l 915 603 l 915 107 q 910 50 915 78 q 877 5 904 22 q 788 -12 850 -12 m 449 335 q 408 353 424 335 q 393 397 393 371 q 408 437 393 418 q 449 456 424 456 q 490 438 475 456 q 506 397 506 421 q 490 353 506 371 q 449 335 475 335 z "},"ה":{"ha":1103,"x_min":35,"x_max":1068,"o":"m 942 -12 q 853 5 879 -12 q 820 50 826 22 q 814 107 814 78 l 814 340 q 793 458 814 410 q 734 533 772 507 q 640 558 696 558 l 164 558 q 102 564 132 558 q 53 597 72 569 q 35 686 35 624 q 53 776 35 750 q 102 808 72 803 q 163 814 132 814 l 636 814 q 869 758 772 814 q 1017 597 965 701 q 1068 343 1068 492 l 1068 117 q 1063 55 1068 85 q 1031 6 1057 25 q 942 -12 1006 -12 m 175 -12 q 86 6 113 -12 q 54 55 60 25 q 49 115 49 85 l 49 322 q 54 382 49 353 q 86 430 60 411 q 176 449 113 449 q 266 429 240 449 q 297 381 292 410 q 303 321 303 351 l 303 114 q 297 54 303 83 q 265 6 292 25 q 175 -12 239 -12 z "},"הּ":{"ha":1103,"x_min":35,"x_max":1068,"o":"m 942 -12 q 853 5 879 -12 q 820 50 826 22 q 814 107 814 78 l 814 340 q 793 458 814 410 q 734 533 772 507 q 640 558 696 558 l 164 558 q 102 564 132 558 q 53 597 72 569 q 35 686 35 624 q 53 776 35 750 q 102 808 72 803 q 163 814 132 814 l 636 814 q 869 758 772 814 q 1017 597 965 701 q 1068 343 1068 492 l 1068 117 q 1063 55 1068 85 q 1031 6 1057 25 q 942 -12 1006 -12 m 175 -12 q 86 6 113 -12 q 54 55 60 25 q 49 115 49 85 l 49 322 q 54 382 49 353 q 86 430 60 411 q 176 449 113 449 q 266 429 240 449 q 297 381 292 410 q 303 321 303 351 l 303 114 q 297 54 303 83 q 265 6 292 25 q 175 -12 239 -12 m 543 335 q 503 353 518 335 q 488 397 488 371 q 503 437 488 418 q 543 456 518 456 q 585 438 569 456 q 600 397 600 421 q 585 353 600 371 q 543 335 569 335 z "},"ו":{"ha":344,"x_min":46,"x_max":300,"o":"m 172 -12 q 83 6 110 -12 q 51 55 57 25 q 46 115 46 85 l 46 688 q 51 747 46 718 q 83 795 57 776 q 174 814 110 814 q 263 794 238 814 q 294 746 289 775 q 300 686 300 717 l 300 114 q 294 54 300 83 q 263 6 289 25 q 172 -12 236 -12 z "},"וּ":{"ha":440,"x_min":10,"x_max":417,"o":"m 289 -12 q 200 6 226 -12 q 168 55 174 25 q 163 115 163 85 l 163 688 q 168 747 163 718 q 200 795 174 776 q 290 814 226 814 q 380 794 354 814 q 411 746 406 775 q 417 686 417 717 l 417 114 q 411 54 417 83 q 379 6 406 25 q 289 -12 353 -12 m 65 361 q 25 379 40 361 q 10 424 10 397 q 25 463 10 444 q 65 482 40 482 q 107 465 92 482 q 122 424 122 447 q 107 379 122 397 q 65 361 92 361 z "},"וֹ":{"ha":344,"x_min":-37,"x_max":300,"o":"m 172 -12 q 83 6 110 -12 q 51 55 57 25 q 46 115 46 85 l 46 688 q 51 747 46 718 q 83 795 57 776 q 174 814 110 814 q 263 794 238 814 q 294 746 289 775 q 300 686 300 717 l 300 114 q 294 54 300 83 q 263 6 289 25 q 172 -12 236 -12 m 32 897 q -17 919 3 897 q -37 972 -37 940 q -17 1023 -37 1001 q 32 1044 4 1044 q 82 1023 61 1044 q 103 972 103 1001 q 83 919 103 940 q 32 897 64 897 z "},"ז":{"ha":896,"x_min":35,"x_max":861,"o":"m 472 -12 q 399 -1 424 -12 q 363 28 374 10 q 349 69 353 47 q 342 114 346 92 l 319 232 q 303 353 310 286 q 306 487 296 421 q 356 603 317 553 l 590 582 q 555 541 565 572 q 544 467 544 510 q 550 380 544 425 q 563 295 556 335 q 574 232 569 256 l 596 110 q 578 17 607 46 q 472 -12 550 -12 m 164 558 q 102 564 132 558 q 53 597 72 569 q 35 686 35 624 q 53 776 35 750 q 101 808 72 803 q 163 814 131 814 l 733 814 q 794 808 765 814 q 842 776 824 803 q 861 686 861 750 q 842 597 861 624 q 794 564 824 569 q 732 558 765 558 l 164 558 z "},"זּ":{"ha":896,"x_min":35,"x_max":861,"o":"m 472 -12 q 399 -1 424 -12 q 363 28 374 10 q 349 69 353 47 q 342 114 346 92 l 319 232 q 303 353 310 286 q 306 487 296 421 q 356 603 317 553 l 590 582 q 555 541 565 572 q 544 467 544 510 q 550 380 544 425 q 563 295 556 335 q 574 232 569 256 l 596 110 q 578 17 607 46 q 472 -12 550 -12 m 164 558 q 102 564 132 558 q 53 597 72 569 q 35 686 35 624 q 53 776 35 750 q 101 808 72 803 q 163 814 131 814 l 733 814 q 794 808 765 814 q 842 776 824 803 q 861 686 861 750 q 842 597 861 624 q 794 564 824 569 q 732 558 765 558 l 164 558 m 189 361 q 149 379 164 361 q 133 424 133 397 q 149 463 133 444 q 189 482 164 482 q 231 465 215 482 q 246 424 246 447 q 231 379 246 397 q 189 361 215 361 z "},"ח":{"ha":1135,"x_min":35,"x_max":1100,"o":"m 163 -12 q 72 6 99 -12 q 40 54 46 25 q 35 115 35 83 l 35 686 q 40 746 35 717 q 72 794 46 775 q 163 813 99 813 l 668 814 q 849 783 769 814 q 985 690 929 751 q 1071 542 1042 629 q 1100 343 1100 454 l 1100 117 q 1094 55 1100 85 q 1063 6 1089 25 q 974 -12 1038 -12 q 885 5 911 -12 q 852 50 858 22 q 846 107 846 78 l 846 340 q 834 432 846 392 q 800 501 822 472 q 746 544 778 529 q 672 558 714 558 l 290 558 l 290 117 q 285 54 290 83 q 253 6 279 25 q 163 -12 226 -12 z "},"ט":{"ha":1153,"x_min":35,"x_max":1118,"o":"m 575 -28 q 338 8 439 -28 q 169 106 236 44 q 68 246 101 168 q 35 407 35 324 l 35 686 q 40 747 35 718 q 72 795 46 776 q 163 814 99 814 q 253 795 226 814 q 285 747 279 776 q 290 685 290 718 l 290 407 q 365 271 290 314 q 579 228 439 228 q 795 270 724 228 q 867 407 867 313 q 840 517 867 476 q 757 558 813 558 l 601 558 q 543 564 569 558 q 501 597 517 569 q 486 686 486 624 q 505 776 486 750 q 553 808 524 803 q 614 814 582 814 l 757 814 q 951 759 869 814 q 1075 613 1032 704 q 1118 407 1118 521 q 1077 228 1118 308 q 963 91 1036 149 q 791 3 890 33 q 575 -28 692 -28 z "},"טּ":{"ha":1153,"x_min":35,"x_max":1118,"o":"m 575 -28 q 338 8 439 -28 q 169 106 236 44 q 68 246 101 168 q 35 407 35 324 l 35 686 q 40 747 35 718 q 72 795 46 776 q 163 814 99 814 q 253 795 226 814 q 285 747 279 776 q 290 685 290 718 l 290 407 q 365 271 290 314 q 579 228 439 228 q 795 270 724 228 q 867 407 867 313 q 840 517 867 476 q 757 558 813 558 l 601 558 q 543 564 569 558 q 501 597 517 569 q 486 686 486 624 q 505 776 486 750 q 553 808 524 803 q 614 814 582 814 l 757 814 q 951 759 869 814 q 1075 613 1032 704 q 1118 407 1118 521 q 1077 228 1118 308 q 963 91 1036 149 q 791 3 890 33 q 575 -28 692 -28 m 578 349 q 538 367 553 349 q 522 411 522 385 q 538 451 522 432 q 578 469 553 469 q 619 452 604 469 q 635 411 635 435 q 619 367 635 385 q 578 349 604 349 z "},"י":{"ha":344,"x_min":46,"x_max":300,"o":"m 172 310 q 83 329 110 310 q 51 378 57 349 q 46 438 46 407 l 46 688 q 51 747 46 718 q 83 795 57 776 q 174 814 110 814 q 263 794 238 814 q 294 746 289 775 q 300 686 300 717 l 300 436 q 294 376 300 406 q 263 328 289 347 q 172 310 236 310 z "},"יּ":{"ha":344,"x_min":-81,"x_max":300,"o":"m 172 310 q 83 329 110 310 q 51 378 57 349 q 46 438 46 407 l 46 688 q 51 747 46 718 q 83 795 57 776 q 174 814 110 814 q 263 794 238 814 q 294 746 289 775 q 300 686 300 717 l 300 436 q 294 376 300 406 q 263 328 289 347 q 172 310 236 310 m -25 504 q -65 522 -50 504 q -81 567 -81 540 q -65 606 -81 588 q -25 625 -50 625 q 17 608 1 625 q 32 567 32 590 q 17 522 32 540 q -25 504 1 504 z "},"ך":{"ha":1039,"x_min":35,"x_max":1004,"o":"m 878 -207 q 789 -189 815 -207 q 756 -143 763 -171 q 750 -86 750 -115 l 750 340 q 739 435 750 394 q 706 503 728 475 q 651 544 683 531 q 575 558 618 558 l 164 558 q 102 564 132 558 q 53 597 72 569 q 35 686 35 624 q 53 776 35 750 q 102 808 72 803 q 163 814 132 814 l 571 814 q 759 784 678 814 q 894 694 840 754 q 976 547 949 635 q 1004 343 1004 460 l 1004 -78 q 999 -138 1004 -108 q 967 -187 993 -168 q 878 -207 942 -207 z "},"ךּ":{"ha":1039,"x_min":35,"x_max":1004,"o":"m 878 -207 q 789 -189 815 -207 q 756 -143 763 -171 q 750 -86 750 -115 l 750 340 q 739 435 750 394 q 706 503 728 475 q 651 544 683 531 q 575 558 618 558 l 164 558 q 102 564 132 558 q 53 597 72 569 q 35 686 35 624 q 53 776 35 750 q 102 808 72 803 q 163 814 132 814 l 571 814 q 759 784 678 814 q 894 694 840 754 q 976 547 949 635 q 1004 343 1004 460 l 1004 -78 q 999 -138 1004 -108 q 967 -187 993 -168 q 878 -207 942 -207 m 538 308 q 497 326 513 308 q 482 371 482 344 q 497 410 482 392 q 538 429 513 429 q 579 412 564 429 q 594 371 594 394 q 579 326 594 344 q 538 308 564 308 z "},"כ":{"ha":1057,"x_min":17,"x_max":1022,"o":"m 469 -29 q 281 -6 379 -29 q 97 60 182 18 q 40 106 60 79 q 18 164 21 133 q 25 203 17 179 q 49 253 33 226 q 89 306 69 289 q 139 322 108 322 q 166 313 146 322 q 213 288 186 304 q 329 240 264 257 q 458 222 394 222 q 626 242 557 222 q 733 301 696 263 q 769 394 769 340 q 703 513 769 468 q 483 558 636 558 l 196 558 q 137 564 164 558 q 94 597 110 569 q 79 686 79 624 q 98 776 79 750 q 147 808 117 803 q 208 814 176 814 l 506 814 q 786 759 671 814 q 962 609 901 704 q 1022 394 1022 514 q 985 216 1022 294 q 876 83 947 138 q 702 -1 804 28 q 469 -29 600 -29 z "},"כּ":{"ha":1057,"x_min":17,"x_max":1022,"o":"m 469 -29 q 281 -6 379 -29 q 97 60 182 18 q 40 106 60 79 q 18 164 21 133 q 25 203 17 179 q 49 253 33 226 q 89 306 69 289 q 139 322 108 322 q 166 313 146 322 q 213 288 186 304 q 329 240 264 257 q 458 222 394 222 q 626 242 557 222 q 733 301 696 263 q 769 394 769 340 q 703 513 769 468 q 483 558 636 558 l 196 558 q 137 564 164 558 q 94 597 110 569 q 79 686 79 624 q 98 776 79 750 q 147 808 117 803 q 208 814 176 814 l 506 814 q 786 759 671 814 q 962 609 901 704 q 1022 394 1022 514 q 985 216 1022 294 q 876 83 947 138 q 702 -1 804 28 q 469 -29 600 -29 m 472 347 q 432 365 447 347 q 417 410 417 383 q 432 449 417 431 q 472 468 447 468 q 514 451 499 468 q 529 410 529 433 q 514 365 529 383 q 472 347 499 347 z "},"ל":{"ha":1029,"x_min":19,"x_max":1003,"o":"m 367 22 q 306 119 310 75 q 354 207 303 163 q 474 319 411 257 q 597 450 536 382 q 715 585 658 518 q 815 711 771 653 l 968 513 q 835 345 910 433 q 685 175 761 257 q 543 32 608 93 q 497 -5 522 13 q 441 -19 472 -22 q 367 22 410 -17 m 968 513 l 803 558 l 167 558 q 63 585 93 558 q 31 685 33 613 l 21 892 q 26 953 19 924 q 62 1001 33 982 q 153 1019 90 1019 q 242 1000 217 1019 q 270 951 267 981 q 275 892 274 922 l 279 814 l 813 814 q 935 772 889 814 q 992 660 982 729 q 968 513 1003 592 z "},"לּ":{"ha":1029,"x_min":19,"x_max":1003,"o":"m 367 22 q 306 119 310 75 q 354 207 303 163 q 474 319 411 257 q 597 450 536 382 q 715 585 658 518 q 815 711 771 653 l 968 513 q 835 345 910 433 q 685 175 761 257 q 543 32 608 93 q 497 -5 522 13 q 441 -19 472 -22 q 367 22 410 -17 m 968 513 l 803 558 l 167 558 q 63 585 93 558 q 31 685 33 613 l 21 892 q 26 953 19 924 q 62 1001 33 982 q 153 1019 90 1019 q 242 1000 217 1019 q 270 951 267 981 q 275 892 274 922 l 279 814 l 813 814 q 935 772 889 814 q 992 660 982 729 q 968 513 1003 592 m 353 357 q 313 375 328 357 q 297 419 297 393 q 313 459 297 440 q 353 478 328 478 q 394 460 379 478 q 410 419 410 443 q 394 375 410 393 q 353 357 379 357 z "},"ם":{"ha":1117,"x_min":35,"x_max":1082,"o":"m 163 -12 q 72 6 99 -12 q 40 54 46 25 q 35 115 35 83 l 35 676 q 69 781 35 749 q 176 814 103 814 l 675 814 q 892 760 800 814 q 1033 610 983 707 q 1082 382 1082 514 l 1082 117 q 1076 55 1082 85 q 1045 6 1071 25 q 956 -12 1019 -12 q 867 5 893 -12 q 834 50 840 22 q 828 107 828 78 l 828 378 q 813 481 828 442 q 766 540 799 521 q 679 558 733 558 l 290 558 l 290 117 q 285 54 290 83 q 253 6 279 25 q 163 -12 226 -12 m 150 -12 l 151 243 l 967 243 l 968 -12 l 150 -12 z "},"מ":{"ha":1179,"x_min":33,"x_max":1143,"o":"m 1143 351 l 1143 117 q 1131 35 1143 64 q 1092 -3 1119 7 q 1017 -12 1064 -12 l 550 -12 q 490 -7 519 -12 q 441 25 460 -1 q 422 115 422 51 q 441 206 422 179 q 490 238 460 232 q 551 243 519 243 l 889 243 l 889 347 q 872 473 889 425 q 803 543 856 521 q 644 565 751 565 q 485 544 543 565 q 399 491 426 524 q 361 420 371 458 q 344 347 351 382 l 304 114 q 294 54 299 83 q 264 6 289 25 q 175 -12 239 -12 q 67 18 96 -12 q 50 117 39 49 l 114 493 l 203 386 q 244 502 228 442 q 284 619 261 563 q 352 722 307 676 q 478 794 397 767 q 694 821 560 821 q 962 766 864 821 q 1101 607 1060 711 q 1143 351 1143 503 m 149 242 l 44 657 q 35 720 38 689 q 56 776 33 751 q 140 811 78 800 q 231 811 201 824 q 274 773 261 799 q 292 718 286 747 l 351 435 l 149 242 z "},"מּ":{"ha":1179,"x_min":33,"x_max":1143,"o":"m 1143 351 l 1143 117 q 1131 35 1143 64 q 1092 -3 1119 7 q 1017 -12 1064 -12 l 550 -12 q 490 -7 519 -12 q 441 25 460 -1 q 422 115 422 51 q 441 206 422 179 q 490 238 460 232 q 551 243 519 243 l 889 243 l 889 347 q 872 473 889 425 q 803 543 856 521 q 644 565 751 565 q 485 544 543 565 q 399 491 426 524 q 361 420 371 458 q 344 347 351 382 l 304 114 q 294 54 299 83 q 264 6 289 25 q 175 -12 239 -12 q 67 18 96 -12 q 50 117 39 49 l 114 493 l 203 386 q 244 502 228 442 q 284 619 261 563 q 352 722 307 676 q 478 794 397 767 q 694 821 560 821 q 962 766 864 821 q 1101 607 1060 711 q 1143 351 1143 503 m 149 242 l 44 657 q 35 720 38 689 q 56 776 33 751 q 140 811 78 800 q 231 811 201 824 q 274 773 261 799 q 292 718 286 747 l 351 435 l 149 242 m 621 335 q 581 353 596 335 q 565 397 565 371 q 581 437 565 418 q 621 456 596 456 q 663 438 647 456 q 678 397 678 421 q 663 353 678 371 q 621 335 647 335 z "},"ן":{"ha":344,"x_min":46,"x_max":300,"o":"m 172 -207 q 83 -187 110 -207 q 51 -139 57 -168 q 46 -79 46 -110 l 46 688 q 51 747 46 718 q 83 795 57 776 q 174 814 110 814 q 263 794 238 814 q 294 746 289 775 q 300 686 300 717 l 300 -81 q 294 -140 300 -111 q 263 -188 289 -169 q 172 -207 236 -207 z "},"נ":{"ha":786,"x_min":49,"x_max":751,"o":"m 624 -12 q 535 5 563 -12 q 502 50 508 22 q 496 107 496 78 l 496 378 q 484 481 496 442 q 449 540 472 521 q 386 558 425 558 l 244 558 q 183 564 213 558 q 134 597 153 569 q 115 686 115 624 q 134 776 115 750 q 183 808 153 803 q 243 814 213 814 l 383 814 q 590 767 508 814 q 712 625 672 721 q 751 382 751 529 l 751 117 q 746 55 751 85 q 714 6 740 25 q 624 -12 688 -12 m 178 -12 q 116 -7 146 -12 q 67 26 86 -1 q 49 115 49 53 q 67 206 49 179 q 115 238 86 232 q 176 243 144 243 l 639 243 l 638 -12 l 178 -12 z "},"נּ":{"ha":786,"x_min":49,"x_max":751,"o":"m 624 -12 q 535 5 563 -12 q 502 50 508 22 q 496 107 496 78 l 496 378 q 484 481 496 442 q 449 540 472 521 q 386 558 425 558 l 244 558 q 183 564 213 558 q 134 597 153 569 q 115 686 115 624 q 134 776 115 750 q 183 808 153 803 q 243 814 213 814 l 383 814 q 590 767 508 814 q 712 625 672 721 q 751 382 751 529 l 751 117 q 746 55 751 85 q 714 6 740 25 q 624 -12 688 -12 m 178 -12 q 116 -7 146 -12 q 67 26 86 -1 q 49 115 49 53 q 67 206 49 179 q 115 238 86 232 q 176 243 144 243 l 639 243 l 638 -12 l 178 -12 m 239 335 q 199 353 214 335 q 183 397 183 371 q 199 437 183 418 q 239 456 214 456 q 281 438 265 456 q 296 397 296 421 q 281 353 296 371 q 239 335 265 335 z "},"ס":{"ha":1178,"x_min":35,"x_max":1143,"o":"m 594 -35 q 301 19 426 -35 q 105 169 175 72 q 35 393 35 265 l 35 676 q 74 775 35 736 q 171 814 113 814 l 678 814 q 948 762 846 814 q 1097 616 1050 710 q 1143 397 1143 522 q 1074 171 1143 268 q 883 19 1006 74 q 594 -35 760 -35 m 590 222 q 806 270 724 222 q 888 397 888 318 q 874 482 888 446 q 816 538 860 518 q 683 558 772 558 l 290 558 l 290 397 q 372 270 290 318 q 590 222 454 222 z "},"סּ":{"ha":1178,"x_min":35,"x_max":1143,"o":"m 594 -35 q 301 19 426 -35 q 105 169 175 72 q 35 393 35 265 l 35 676 q 74 775 35 736 q 171 814 113 814 l 678 814 q 948 762 846 814 q 1097 616 1050 710 q 1143 397 1143 522 q 1074 171 1143 268 q 883 19 1006 74 q 594 -35 760 -35 m 590 222 q 806 270 724 222 q 888 397 888 318 q 874 482 888 446 q 816 538 860 518 q 683 558 772 558 l 290 558 l 290 397 q 372 270 290 318 q 590 222 454 222 m 589 344 q 549 363 564 344 q 533 407 533 381 q 549 447 533 428 q 589 465 564 465 q 631 448 615 465 q 646 407 646 431 q 631 363 646 381 q 589 344 615 344 z "},"ע":{"ha":1093,"x_min":35,"x_max":1060,"o":"m 206 -86 q 147 -96 175 -94 q 96 -76 119 -97 q 53 3 72 -56 q 47 89 35 57 q 88 138 58 121 q 147 163 117 154 l 689 310 q 774 362 751 326 q 799 444 797 397 q 801 543 801 492 l 801 693 q 807 751 801 724 q 839 796 813 778 q 928 814 865 814 q 1018 795 990 814 q 1053 747 1046 776 q 1058 685 1060 717 l 1057 600 q 1044 408 1056 494 q 1001 256 1033 322 q 908 142 969 190 q 742 65 846 94 l 206 -86 m 306 190 q 239 242 269 206 q 188 343 208 278 l 92 643 q 78 703 82 674 q 93 758 74 733 q 174 801 113 783 q 265 805 233 819 q 313 761 297 790 q 336 703 328 732 l 489 215 l 306 190 z "},"ף":{"ha":1067,"x_min":32,"x_max":1032,"o":"m 903 -207 q 814 -187 840 -207 q 782 -139 788 -168 q 776 -79 776 -110 l 776 411 q 765 494 776 461 q 728 543 753 526 q 667 560 704 560 l 300 560 q 260 547 274 560 q 249 517 247 535 q 271 483 251 500 q 293 465 282 475 q 315 447 304 456 q 336 428 325 438 q 374 373 368 401 q 359 314 379 344 q 293 249 339 283 q 211 228 254 219 q 129 273 168 236 q 65 369 90 310 q 35 499 39 428 q 55 623 32 565 q 122 724 78 681 q 227 791 167 767 q 360 815 288 815 l 663 815 q 862 768 779 815 q 988 631 944 721 q 1032 415 1032 542 l 1032 -81 q 1026 -140 1032 -111 q 994 -188 1021 -169 q 903 -207 968 -207 z "},"ףּ":{"ha":1067,"x_min":32,"x_max":1032,"o":"m 903 -207 q 814 -187 840 -207 q 782 -139 788 -168 q 776 -79 776 -110 l 776 411 q 765 494 776 461 q 728 543 753 526 q 667 560 704 560 l 300 560 q 260 547 274 560 q 249 517 247 535 q 271 483 251 500 q 293 465 282 475 q 315 447 304 456 q 336 428 325 438 q 374 373 368 401 q 359 314 379 344 q 293 249 339 283 q 211 228 254 219 q 129 273 168 236 q 65 369 90 310 q 35 499 39 428 q 55 623 32 565 q 122 724 78 681 q 227 791 167 767 q 360 815 288 815 l 663 815 q 862 768 779 815 q 988 631 944 721 q 1032 415 1032 542 l 1032 -81 q 1026 -140 1032 -111 q 994 -188 1021 -169 q 903 -207 968 -207 m 560 317 q 519 335 535 317 q 504 379 504 353 q 519 419 504 400 q 560 438 535 438 q 601 420 586 438 q 617 379 617 403 q 601 335 617 353 q 560 317 586 317 z "},"פ":{"ha":1078,"x_min":56,"x_max":1043,"o":"m 192 -12 q 131 -7 161 -12 q 83 25 101 -1 q 64 115 64 51 q 83 206 64 179 q 131 238 101 232 q 193 243 161 243 l 629 243 q 706 261 669 243 q 765 313 742 279 q 788 394 788 347 l 788 411 q 742 520 788 481 q 640 560 697 560 l 360 560 q 322 547 338 560 q 306 517 307 535 q 321 486 304 500 q 335 476 328 481 q 347 465 342 471 q 374 420 372 444 q 365 372 376 396 q 339 331 354 349 q 315 307 324 314 q 241 284 282 282 q 160 310 200 286 q 94 378 121 335 q 61 478 67 421 q 78 606 56 546 q 147 714 101 667 q 255 788 193 761 q 388 815 317 815 l 636 815 q 846 767 754 815 q 990 628 938 718 q 1043 415 1043 539 l 1043 390 q 989 175 1043 265 q 840 36 935 85 q 625 -12 746 -12 l 192 -12 z "},"פּ":{"ha":1078,"x_min":56,"x_max":1043,"o":"m 192 -12 q 131 -7 161 -12 q 83 25 101 -1 q 64 115 64 51 q 83 206 64 179 q 131 238 101 232 q 193 243 161 243 l 629 243 q 706 261 669 243 q 765 313 742 279 q 788 394 788 347 l 788 411 q 742 520 788 481 q 640 560 697 560 l 360 560 q 322 547 338 560 q 306 517 307 535 q 321 486 304 500 q 335 476 328 481 q 347 465 342 471 q 374 420 372 444 q 365 372 376 396 q 339 331 354 349 q 315 307 324 314 q 241 284 282 282 q 160 310 200 286 q 94 378 121 335 q 61 478 67 421 q 78 606 56 546 q 147 714 101 667 q 255 788 193 761 q 388 815 317 815 l 636 815 q 846 767 754 815 q 990 628 938 718 q 1043 415 1043 539 l 1043 390 q 989 175 1043 265 q 840 36 935 85 q 625 -12 746 -12 l 192 -12 m 511 343 q 471 361 486 343 q 456 406 456 379 q 471 445 456 426 q 511 464 486 464 q 553 447 538 464 q 568 406 568 429 q 553 361 568 379 q 511 343 538 343 z "},"ץ":{"ha":1040,"x_min":31,"x_max":1011,"o":"m 803 -203 q 712 -203 742 -214 q 670 -167 682 -192 q 651 -112 658 -142 q 576 84 628 -12 q 450 269 524 181 q 286 434 376 357 q 96 572 196 511 q 59 602 76 585 q 36 643 42 619 q 44 698 31 667 q 100 771 58 729 q 164 808 136 806 q 219 794 192 811 q 283 756 247 778 q 492 594 392 689 q 674 392 592 500 q 813 176 757 285 q 886 -29 868 67 q 894 -78 890 -51 q 894 -130 899 -104 q 869 -175 889 -156 q 803 -203 849 -194 m 738 242 l 578 417 l 763 754 q 801 799 781 779 q 854 818 822 818 q 939 782 886 818 q 1001 717 992 747 q 998 658 1011 686 q 968 604 985 631 l 738 242 z "},"צ":{"ha":1101,"x_min":35,"x_max":1072,"o":"m 899 -12 l 738 176 l 108 613 q 48 685 57 649 q 92 782 39 722 q 153 830 126 821 q 203 829 179 839 q 251 800 226 819 l 924 292 q 966 256 943 278 q 1003 201 989 235 q 1017 135 1015 172 q 1006 65 1018 99 q 968 10 994 32 q 899 -12 942 -12 m 164 -12 q 102 -7 132 -12 q 53 26 72 -1 q 35 115 35 53 q 53 206 35 179 q 101 238 72 232 q 163 243 131 243 l 883 243 l 899 -12 l 164 -12 m 829 244 l 660 408 l 819 757 q 855 804 836 783 q 906 827 874 825 q 993 797 938 829 q 1060 737 1047 767 q 1062 678 1072 707 q 1036 622 1051 650 l 829 244 z "},"צּ":{"ha":1101,"x_min":35,"x_max":1072,"o":"m 899 -12 l 738 176 l 108 613 q 48 685 57 649 q 92 782 39 722 q 153 830 126 821 q 203 829 179 839 q 251 800 226 819 l 924 292 q 966 256 943 278 q 1003 201 989 235 q 1017 135 1015 172 q 1006 65 1018 99 q 968 10 994 32 q 899 -12 942 -12 m 164 -12 q 102 -7 132 -12 q 53 26 72 -1 q 35 115 35 53 q 53 206 35 179 q 101 238 72 232 q 163 243 131 243 l 883 243 l 899 -12 l 164 -12 m 829 244 l 660 408 l 819 757 q 855 804 836 783 q 906 827 874 825 q 993 797 938 829 q 1060 737 1047 767 q 1062 678 1072 707 q 1036 622 1051 650 l 829 244 m 257 290 q 217 308 232 290 q 201 353 201 326 q 217 392 201 374 q 257 411 232 411 q 299 394 283 411 q 314 353 314 376 q 299 308 314 326 q 257 290 283 290 z "},"ק":{"ha":1121,"x_min":35,"x_max":1097,"o":"m 465 22 q 405 119 408 75 q 453 207 401 163 q 548 295 499 247 q 647 397 597 343 q 744 504 696 450 q 835 611 792 558 q 914 711 878 664 l 1067 513 q 990 414 1032 465 q 904 310 949 363 q 814 208 860 257 q 724 113 768 158 q 642 32 681 68 q 596 -5 621 13 q 540 -19 571 -22 q 465 22 508 -17 m 174 -271 q 85 -252 111 -271 q 53 -203 58 -233 q 47 -143 47 -174 l 47 333 q 53 394 47 365 q 85 441 58 422 q 175 460 111 460 q 265 441 239 460 q 296 393 290 422 q 301 332 301 364 l 301 -144 q 296 -204 301 -175 q 264 -252 290 -233 q 174 -271 238 -271 m 1068 515 l 847 560 l 797 560 l 164 560 q 102 565 132 560 q 53 598 72 571 q 35 688 35 625 q 53 778 35 751 q 102 810 72 804 q 163 815 132 815 l 872 814 q 1013 776 960 814 q 1082 672 1067 739 q 1068 515 1097 604 z "},"קּ":{"ha":1121,"x_min":35,"x_max":1097,"o":"m 465 22 q 405 119 408 75 q 453 207 401 163 q 548 295 499 247 q 647 397 597 343 q 744 504 696 450 q 835 611 792 558 q 914 711 878 664 l 1067 513 q 990 414 1032 465 q 904 310 949 363 q 814 208 860 257 q 724 113 768 158 q 642 32 681 68 q 596 -5 621 13 q 540 -19 571 -22 q 465 22 508 -17 m 174 -271 q 85 -252 111 -271 q 53 -203 58 -233 q 47 -143 47 -174 l 47 333 q 53 394 47 365 q 85 441 58 422 q 175 460 111 460 q 265 441 239 460 q 296 393 290 422 q 301 332 301 364 l 301 -144 q 296 -204 301 -175 q 264 -252 290 -233 q 174 -271 238 -271 m 1068 515 l 847 560 l 797 560 l 164 560 q 102 565 132 560 q 53 598 72 571 q 35 688 35 625 q 53 778 35 751 q 102 810 72 804 q 163 815 132 815 l 872 814 q 1013 776 960 814 q 1082 672 1067 739 q 1068 515 1097 604 m 476 379 q 436 397 451 379 q 421 442 421 415 q 436 481 421 463 q 476 500 451 500 q 518 483 503 500 q 533 442 533 465 q 518 397 533 415 q 476 379 503 379 z "},"ר":{"ha":1025,"x_min":35,"x_max":990,"o":"m 864 -12 q 775 5 801 -12 q 742 50 749 22 q 736 107 736 78 l 736 340 q 726 438 736 397 q 694 506 715 479 q 640 546 672 533 q 561 558 607 558 l 164 558 q 102 564 132 558 q 53 597 72 569 q 35 686 35 624 q 53 776 35 750 q 101 808 72 803 q 163 814 131 814 l 558 814 q 751 785 669 814 q 885 699 832 757 q 964 552 938 640 q 990 343 990 464 l 990 117 q 985 55 990 85 q 953 6 979 25 q 864 -12 928 -12 z "},"רּ":{"ha":1025,"x_min":35,"x_max":990,"o":"m 864 -12 q 775 5 801 -12 q 742 50 749 22 q 736 107 736 78 l 736 340 q 726 438 736 397 q 694 506 715 479 q 640 546 672 533 q 561 558 607 558 l 164 558 q 102 564 132 558 q 53 597 72 569 q 35 686 35 624 q 53 776 35 750 q 101 808 72 803 q 163 814 131 814 l 558 814 q 751 785 669 814 q 885 699 832 757 q 964 552 938 640 q 990 343 990 464 l 990 117 q 985 55 990 85 q 953 6 979 25 q 864 -12 928 -12 m 492 296 q 451 314 467 296 q 436 358 436 332 q 451 398 436 379 q 492 417 467 417 q 533 399 518 417 q 549 358 549 382 q 533 314 549 332 q 492 296 518 296 z "},"ש":{"ha":1265,"x_min":35,"x_max":1231,"o":"m 628 -28 q 360 15 472 -28 q 175 126 247 57 q 69 279 103 196 q 35 444 35 363 l 35 686 q 40 747 35 718 q 72 795 46 776 q 163 814 99 814 q 253 795 226 814 q 285 747 279 776 q 290 685 290 718 l 290 444 q 325 326 290 374 q 435 253 360 278 q 631 228 510 228 q 841 258 767 228 q 945 339 915 289 q 975 446 975 389 l 975 693 q 981 751 975 724 q 1015 796 988 778 q 1103 814 1042 814 q 1193 794 1167 814 q 1225 746 1219 775 q 1231 685 1231 717 l 1231 442 q 1196 276 1231 358 q 1088 124 1161 193 q 901 14 1015 56 q 628 -28 786 -28 m 344 193 l 339 261 l 406 261 q 442 275 426 261 q 468 317 457 289 q 485 388 479 346 q 494 486 492 431 l 504 694 q 512 752 506 725 q 544 797 518 779 q 633 814 571 814 q 724 795 697 814 q 756 747 750 776 q 760 683 761 717 l 754 550 q 733 388 750 456 q 681 278 717 321 q 587 214 646 235 q 439 193 528 193 l 344 193 z "},"שׁ":{"ha":1265,"x_min":35,"x_max":1231,"o":"m 628 -28 q 360 15 472 -28 q 175 126 247 57 q 69 279 103 196 q 35 444 35 363 l 35 686 q 40 747 35 718 q 72 795 46 776 q 163 814 99 814 q 253 795 226 814 q 285 747 279 776 q 290 685 290 718 l 290 444 q 325 326 290 374 q 435 253 360 278 q 631 228 510 228 q 841 258 767 228 q 945 339 915 289 q 975 446 975 389 l 975 693 q 981 751 975 724 q 1015 796 988 778 q 1103 814 1042 814 q 1193 794 1167 814 q 1225 746 1219 775 q 1231 685 1231 717 l 1231 442 q 1196 276 1231 358 q 1088 124 1161 193 q 901 14 1015 56 q 628 -28 786 -28 m 344 193 l 339 261 l 406 261 q 442 275 426 261 q 468 317 457 289 q 485 388 479 346 q 494 486 492 431 l 504 694 q 512 752 506 725 q 544 797 518 779 q 633 814 571 814 q 724 795 697 814 q 756 747 750 776 q 760 683 761 717 l 754 550 q 733 388 750 456 q 681 278 717 321 q 587 214 646 235 q 439 193 528 193 l 344 193 m 1101 892 q 1053 914 1074 892 q 1032 967 1032 936 q 1053 1017 1032 996 q 1101 1039 1074 1039 q 1151 1017 1129 1039 q 1172 967 1172 996 q 1151 914 1172 936 q 1101 892 1131 892 z "},"שׂ":{"ha":1265,"x_min":35,"x_max":1231,"o":"m 628 -28 q 360 15 472 -28 q 175 126 247 57 q 69 279 103 196 q 35 444 35 363 l 35 686 q 40 747 35 718 q 72 795 46 776 q 163 814 99 814 q 253 795 226 814 q 285 747 279 776 q 290 685 290 718 l 290 444 q 325 326 290 374 q 435 253 360 278 q 631 228 510 228 q 841 258 767 228 q 945 339 915 289 q 975 446 975 389 l 975 693 q 981 751 975 724 q 1015 796 988 778 q 1103 814 1042 814 q 1193 794 1167 814 q 1225 746 1219 775 q 1231 685 1231 717 l 1231 442 q 1196 276 1231 358 q 1088 124 1161 193 q 901 14 1015 56 q 628 -28 786 -28 m 344 193 l 339 261 l 406 261 q 442 275 426 261 q 468 317 457 289 q 485 388 479 346 q 494 486 492 431 l 504 694 q 512 752 506 725 q 544 797 518 779 q 633 814 571 814 q 724 795 697 814 q 756 747 750 776 q 760 683 761 717 l 754 550 q 733 388 750 456 q 681 278 717 321 q 587 214 646 235 q 439 193 528 193 l 344 193 m 164 892 q 115 914 136 892 q 94 967 94 936 q 115 1017 94 996 q 164 1039 136 1039 q 213 1017 192 1039 q 235 967 235 996 q 214 914 235 936 q 164 892 193 892 z "},"שּׁ":{"ha":1265,"x_min":35,"x_max":1231,"o":"m 628 -28 q 360 15 472 -28 q 175 126 247 57 q 69 279 103 196 q 35 444 35 363 l 35 686 q 40 747 35 718 q 72 795 46 776 q 163 814 99 814 q 253 795 226 814 q 285 747 279 776 q 290 685 290 718 l 290 444 q 325 326 290 374 q 435 253 360 278 q 631 228 510 228 q 841 258 767 228 q 945 339 915 289 q 975 446 975 389 l 975 693 q 981 751 975 724 q 1015 796 988 778 q 1103 814 1042 814 q 1193 794 1167 814 q 1225 746 1219 775 q 1231 685 1231 717 l 1231 442 q 1196 276 1231 358 q 1088 124 1161 193 q 901 14 1015 56 q 628 -28 786 -28 m 344 193 l 339 261 l 406 261 q 442 275 426 261 q 468 317 457 289 q 485 388 479 346 q 494 486 492 431 l 504 694 q 512 752 506 725 q 544 797 518 779 q 633 814 571 814 q 724 795 697 814 q 756 747 750 776 q 760 683 761 717 l 754 550 q 733 388 750 456 q 681 278 717 321 q 587 214 646 235 q 439 193 528 193 l 344 193 m 856 386 q 815 404 831 386 q 800 449 800 422 q 815 488 800 469 q 856 507 831 507 q 897 490 882 507 q 913 449 913 472 q 897 404 913 422 q 856 386 882 386 m 1101 892 q 1053 914 1074 892 q 1032 967 1032 936 q 1053 1017 1032 996 q 1101 1039 1074 1039 q 1151 1017 1129 1039 q 1172 967 1172 996 q 1151 914 1172 936 q 1101 892 1131 892 z "},"שּׂ":{"ha":1265,"x_min":35,"x_max":1231,"o":"m 628 -28 q 360 15 472 -28 q 175 126 247 57 q 69 279 103 196 q 35 444 35 363 l 35 686 q 40 747 35 718 q 72 795 46 776 q 163 814 99 814 q 253 795 226 814 q 285 747 279 776 q 290 685 290 718 l 290 444 q 325 326 290 374 q 435 253 360 278 q 631 228 510 228 q 841 258 767 228 q 945 339 915 289 q 975 446 975 389 l 975 693 q 981 751 975 724 q 1015 796 988 778 q 1103 814 1042 814 q 1193 794 1167 814 q 1225 746 1219 775 q 1231 685 1231 717 l 1231 442 q 1196 276 1231 358 q 1088 124 1161 193 q 901 14 1015 56 q 628 -28 786 -28 m 344 193 l 339 261 l 406 261 q 442 275 426 261 q 468 317 457 289 q 485 388 479 346 q 494 486 492 431 l 504 694 q 512 752 506 725 q 544 797 518 779 q 633 814 571 814 q 724 795 697 814 q 756 747 750 776 q 760 683 761 717 l 754 550 q 733 388 750 456 q 681 278 717 321 q 587 214 646 235 q 439 193 528 193 l 344 193 m 856 386 q 815 404 831 386 q 800 449 800 422 q 815 488 800 469 q 856 507 831 507 q 897 490 882 507 q 913 449 913 472 q 897 404 913 422 q 856 386 882 386 m 164 892 q 115 914 136 892 q 94 967 94 936 q 115 1017 94 996 q 164 1039 136 1039 q 213 1017 192 1039 q 235 967 235 996 q 214 914 235 936 q 164 892 193 892 z "},"שּ":{"ha":1265,"x_min":35,"x_max":1231,"o":"m 628 -28 q 360 15 472 -28 q 175 126 247 57 q 69 279 103 196 q 35 444 35 363 l 35 686 q 40 747 35 718 q 72 795 46 776 q 163 814 99 814 q 253 795 226 814 q 285 747 279 776 q 290 685 290 718 l 290 444 q 325 326 290 374 q 435 253 360 278 q 631 228 510 228 q 841 258 767 228 q 945 339 915 289 q 975 446 975 389 l 975 693 q 981 751 975 724 q 1015 796 988 778 q 1103 814 1042 814 q 1193 794 1167 814 q 1225 746 1219 775 q 1231 685 1231 717 l 1231 442 q 1196 276 1231 358 q 1088 124 1161 193 q 901 14 1015 56 q 628 -28 786 -28 m 344 193 l 339 261 l 406 261 q 442 275 426 261 q 468 317 457 289 q 485 388 479 346 q 494 486 492 431 l 504 694 q 512 752 506 725 q 544 797 518 779 q 633 814 571 814 q 724 795 697 814 q 756 747 750 776 q 760 683 761 717 l 754 550 q 733 388 750 456 q 681 278 717 321 q 587 214 646 235 q 439 193 528 193 l 344 193 m 856 386 q 815 404 831 386 q 800 449 800 422 q 815 488 800 469 q 856 507 831 507 q 897 490 882 507 q 913 449 913 472 q 897 404 913 422 q 856 386 882 386 z "},"ת":{"ha":1236,"x_min":35,"x_max":1201,"o":"m 164 -12 q 102 -7 132 -12 q 53 26 72 -1 q 35 115 35 53 q 53 206 35 179 q 102 238 72 232 q 163 243 132 243 l 214 243 l 214 647 l 386 564 q 281 551 335 556 q 181 552 226 546 q 107 583 135 558 q 79 657 79 607 q 118 775 79 739 q 247 811 157 811 l 756 814 q 1004 764 906 815 q 1152 608 1103 713 q 1201 343 1201 503 l 1201 117 q 1196 55 1201 85 q 1165 6 1190 25 q 1075 -12 1139 -12 q 986 5 1013 -12 q 953 50 960 22 q 947 107 947 78 l 947 340 q 928 465 947 417 q 872 535 910 513 q 772 558 833 558 l 471 558 l 471 140 q 438 27 471 67 q 342 -12 404 -12 l 164 -12 z "},"תּ":{"ha":1236,"x_min":35,"x_max":1201,"o":"m 164 -12 q 102 -7 132 -12 q 53 26 72 -1 q 35 115 35 53 q 53 206 35 179 q 102 238 72 232 q 163 243 132 243 l 214 243 l 214 647 l 386 564 q 281 551 335 556 q 181 552 226 546 q 107 583 135 558 q 79 657 79 607 q 118 775 79 739 q 247 811 157 811 l 756 814 q 1004 764 906 815 q 1152 608 1103 713 q 1201 343 1201 503 l 1201 117 q 1196 55 1201 85 q 1165 6 1190 25 q 1075 -12 1139 -12 q 986 5 1013 -12 q 953 50 960 22 q 947 107 947 78 l 947 340 q 928 465 947 417 q 872 535 910 513 q 772 558 833 558 l 471 558 l 471 140 q 438 27 471 67 q 342 -12 404 -12 l 164 -12 m 688 294 q 647 313 663 294 q 632 357 632 331 q 647 397 632 378 q 688 415 663 415 q 729 398 714 415 q 744 357 744 381 q 729 313 744 331 q 688 294 714 294 z "},"⁄":{"ha":560,"x_min":50,"x_max":675,"o":"m 90 -26 q 57 0 64 -11 q 54 22 50 11 q 65 46 58 33 l 561 983 q 575 1003 568 994 q 596 1012 582 1011 q 635 1000 610 1013 q 669 973 663 985 q 670 951 675 961 q 658 929 665 942 l 163 -10 q 149 -30 157 -21 q 128 -39 142 -39 q 90 -26 115 -39 z "},"½":{"ha":1039,"x_min":64,"x_max":961,"o":"m 189 -26 q 156 0 163 -11 q 153 22 149 11 q 164 46 157 33 l 660 983 q 674 1003 667 994 q 694 1013 681 1013 q 733 1000 708 1014 q 767 973 761 985 q 769 951 774 961 q 757 929 764 942 l 261 -10 q 248 -30 256 -21 q 227 -39 240 -39 q 189 -26 214 -39 m 260 453 q 210 462 225 453 q 191 485 194 471 q 188 511 188 499 l 188 751 q 166 740 178 746 q 139 735 154 735 q 117 742 131 735 q 92 761 104 749 q 66 811 68 783 q 92 863 64 839 l 210 969 q 234 986 221 981 q 263 992 247 992 q 322 972 308 992 q 336 931 336 951 l 336 511 q 333 484 336 497 q 314 462 329 471 q 260 453 299 453 m 621 1 q 588 7 608 1 q 553 30 568 13 q 538 82 538 47 q 550 135 538 113 q 584 174 563 157 q 631 206 606 192 q 686 236 658 221 q 738 269 714 251 q 776 308 761 286 q 790 357 790 329 q 787 369 790 358 q 773 389 783 379 q 740 399 763 399 q 704 385 715 399 q 690 358 693 372 q 688 343 688 344 q 683 307 688 324 q 661 281 678 290 q 606 271 644 271 q 558 283 572 271 q 540 312 543 294 q 538 344 538 329 q 563 442 538 396 q 633 518 588 489 q 739 547 679 547 q 842 519 797 547 q 914 446 888 492 q 940 343 940 400 q 918 256 940 293 q 867 194 896 219 q 818 158 839 169 q 801 147 797 146 l 746 150 l 900 150 q 929 147 915 150 q 952 128 943 144 q 961 75 961 113 q 953 23 961 39 q 931 4 944 7 q 900 1 917 1 l 621 1 z "},"¼":{"ha":1015,"x_min":64,"x_max":938,"o":"m 189 -25 q 156 0 163 -11 q 153 22 149 11 q 164 46 157 33 l 660 983 q 674 1003 667 994 q 694 1013 681 1013 q 733 1001 708 1014 q 767 973 761 985 q 769 951 774 961 q 757 929 764 942 l 261 -10 q 248 -30 256 -21 q 227 -39 240 -39 q 189 -25 214 -39 m 863 4 q 811 13 826 4 q 792 36 796 22 q 789 64 789 50 l 789 151 l 599 151 q 555 167 572 151 q 538 217 538 182 q 540 242 538 229 q 544 268 542 254 l 599 486 q 629 539 607 529 q 688 540 651 549 q 746 513 733 525 q 752 481 758 500 q 736 424 746 461 l 703 293 l 789 293 l 789 476 q 792 510 789 494 q 811 534 796 525 q 864 543 826 543 q 917 533 901 543 q 935 508 932 524 q 938 474 938 492 l 938 63 q 935 36 938 50 q 916 13 932 22 q 863 4 900 4 m 260 453 q 210 462 225 453 q 191 485 194 471 q 188 511 188 499 l 188 751 q 166 740 178 746 q 139 735 154 735 q 117 742 131 735 q 92 761 104 749 q 66 811 68 783 q 92 863 64 839 l 210 969 q 234 986 221 981 q 263 992 247 992 q 322 972 308 992 q 336 931 336 951 l 336 511 q 333 484 336 497 q 314 462 329 471 q 260 453 299 453 z "},"¾":{"ha":1088,"x_min":65,"x_max":1010,"o":"m 278 -25 q 244 0 251 -11 q 242 22 238 11 q 253 46 246 33 l 749 983 q 763 1003 756 994 q 783 1013 769 1013 q 822 1001 797 1014 q 856 973 850 985 q 858 951 863 961 q 846 929 853 942 l 350 -10 q 337 -30 344 -21 q 316 -39 329 -39 q 278 -25 303 -39 m 268 438 q 165 463 211 438 q 92 528 119 488 q 65 614 65 569 q 82 650 65 639 q 118 664 99 661 q 144 667 138 667 q 189 657 176 667 q 207 636 201 647 q 213 617 208 633 q 232 587 218 601 q 272 572 246 572 q 313 585 293 572 q 332 622 332 597 q 324 650 332 638 q 268 663 317 663 q 229 671 246 663 q 213 722 213 679 q 231 762 213 756 q 268 768 250 768 q 308 780 296 768 q 321 815 321 792 q 305 844 321 835 q 269 854 289 854 q 238 845 247 854 q 224 825 228 836 q 218 808 221 814 q 180 781 204 782 q 132 790 156 779 q 100 818 114 800 q 86 854 86 836 q 106 904 86 871 q 169 965 126 938 q 275 992 211 992 q 378 967 335 992 q 445 906 421 943 q 469 828 469 868 q 452 759 469 781 q 424 729 435 738 q 465 683 449 711 q 481 622 481 654 q 457 535 481 578 q 386 465 433 492 q 268 438 339 438 m 935 4 q 883 13 899 4 q 865 36 868 22 q 861 64 861 50 l 860 151 l 671 151 q 627 167 644 151 q 610 217 610 182 q 611 242 610 229 q 617 268 613 254 l 671 486 q 718 544 682 539 q 793 526 754 550 q 820 499 818 513 q 815 469 822 486 q 808 424 808 451 l 775 293 l 860 293 l 860 475 q 863 510 860 494 q 883 534 867 525 q 936 543 899 543 q 989 533 974 543 q 1007 508 1004 524 q 1010 474 1010 492 l 1010 63 q 1007 36 1010 50 q 988 13 1004 22 q 935 4 972 4 z "},"¹":{"ha":415,"x_min":14,"x_max":363,"o":"m 265 279 q 201 292 219 279 q 178 322 182 304 q 174 357 174 340 l 174 657 q 147 642 161 649 q 114 636 132 636 q 83 647 101 636 q 49 672 64 657 q 19 739 14 710 q 53 799 25 768 l 201 932 q 232 954 215 946 q 268 963 249 963 q 345 937 328 963 q 363 883 363 911 l 363 354 q 358 319 363 336 q 334 290 354 301 q 265 279 314 279 z "},"²":{"ha":588,"x_min":32,"x_max":568,"o":"m 139 279 q 97 287 122 279 q 53 316 72 294 q 33 381 33 338 q 46 440 33 414 q 79 486 58 465 q 126 525 100 507 q 201 571 163 550 q 276 615 240 592 q 333 665 311 638 q 354 729 354 692 q 349 744 354 731 q 331 770 344 757 q 289 783 317 783 q 242 766 257 783 q 225 731 228 749 q 222 713 222 714 q 216 667 222 689 q 188 633 210 646 q 119 621 167 621 q 58 635 76 621 q 35 672 39 650 q 32 713 32 693 q 64 837 32 778 q 153 933 96 896 q 288 969 211 969 q 419 935 361 969 q 510 842 476 900 q 544 711 544 783 q 525 622 544 663 q 478 550 506 582 q 422 496 450 518 q 374 462 393 474 q 357 450 356 450 l 356 468 l 492 468 q 527 464 510 468 q 556 440 544 460 q 568 372 568 421 q 557 307 568 326 q 528 283 546 288 q 492 279 511 279 l 139 279 z "},"³":{"ha":590,"x_min":32,"x_max":558,"o":"m 290 268 q 161 299 219 268 q 67 381 103 331 q 32 490 32 432 q 53 536 32 522 q 100 553 75 550 q 135 557 125 557 q 191 546 175 557 q 213 519 207 535 q 220 496 214 515 q 244 458 226 476 q 294 439 261 439 q 344 452 328 439 q 365 480 360 465 q 369 499 369 494 q 360 541 369 531 q 301 551 350 551 q 267 555 282 551 q 244 574 251 558 q 236 629 236 590 q 245 670 236 658 q 268 685 254 682 q 297 688 282 688 q 343 701 331 688 q 356 746 356 715 q 335 783 356 769 q 292 796 315 796 q 251 784 264 796 q 233 758 238 772 q 226 738 229 744 q 207 713 218 724 q 164 701 196 701 q 123 711 142 701 q 89 733 104 721 q 61 794 61 758 q 76 840 61 811 q 119 898 90 868 q 193 949 149 928 q 299 969 238 969 q 428 939 374 969 q 514 860 483 908 q 544 761 544 813 q 522 676 544 703 q 486 638 500 649 q 523 601 507 622 q 549 554 539 579 q 558 503 558 529 q 528 392 558 446 q 439 303 499 338 q 290 268 379 268 z "}," ":{"ha":326,"x_min":0,"x_max":0,"o":""}," ":{"ha":326,"x_min":0,"x_max":0,"o":""},"׳":{"ha":306,"x_min":21,"x_max":289,"o":"m 58 490 q 49 493 58 490 q 31 508 40 496 q 22 551 22 521 q 34 600 22 588 q 53 614 46 613 q 78 635 56 617 q 106 697 100 654 q 73 709 88 701 q 47 726 58 717 q 24 775 28 746 q 21 831 21 804 q 28 891 22 861 q 62 941 33 921 q 157 961 90 961 q 263 931 232 961 q 285 883 282 911 q 289 826 289 854 q 288 799 289 813 q 285 774 288 786 q 245 631 278 694 q 164 528 213 567 q 58 490 115 490 z "},"״":{"ha":622,"x_min":28,"x_max":589,"o":"m 65 490 q 56 493 65 490 q 38 508 47 496 q 29 551 29 521 q 41 600 29 588 q 60 614 53 613 q 85 635 63 617 q 113 697 107 654 q 80 709 94 701 q 54 726 65 717 q 31 775 35 746 q 28 831 28 804 q 35 891 29 861 q 69 941 40 921 q 164 961 97 961 q 269 931 239 961 q 292 883 289 911 q 296 826 296 854 q 295 799 296 813 q 292 774 294 786 q 252 631 285 694 q 171 528 219 567 q 65 490 122 490 m 358 490 q 349 493 358 490 q 331 508 340 496 q 322 551 322 521 q 334 600 322 588 q 353 614 346 613 q 378 635 356 617 q 406 697 400 654 q 373 709 388 701 q 347 726 358 717 q 324 775 328 746 q 321 831 321 804 q 328 891 322 861 q 362 941 333 921 q 457 961 390 961 q 563 931 532 961 q 585 883 582 911 q 589 826 589 854 q 588 799 589 813 q 585 774 588 786 q 545 631 578 694 q 464 528 513 567 q 358 490 415 490 z "},"־":{"ha":419,"x_min":46,"x_max":375,"o":"m 161 571 q 103 576 129 571 q 61 605 76 581 q 46 686 46 629 q 61 768 46 744 q 103 797 76 792 q 160 801 129 801 l 260 801 q 318 797 292 801 q 360 768 344 792 q 375 686 375 744 q 360 605 375 629 q 318 576 344 581 q 258 571 292 571 l 161 571 z "},".":{"ha":306,"x_min":32,"x_max":274,"o":"m 153 -1 q 55 26 78 -1 q 32 121 32 54 q 37 178 32 151 q 67 223 42 206 q 154 240 93 240 q 251 213 229 240 q 274 118 274 185 q 269 60 274 88 q 239 15 264 32 q 153 -1 214 -1 z "},",":{"ha":335,"x_min":33,"x_max":301,"o":"m 71 -218 q 62 -215 71 -218 q 44 -200 53 -212 q 35 -157 35 -187 q 47 -108 35 -121 q 65 -94 58 -96 q 90 -73 68 -92 q 118 -11 113 -54 q 85 1 100 -7 q 60 18 71 8 q 37 67 40 38 q 33 122 33 96 q 40 183 35 153 q 74 233 46 213 q 169 253 103 253 q 275 222 244 253 q 298 174 294 203 q 301 118 301 146 q 301 91 301 104 q 297 65 300 78 q 258 -78 290 -14 q 176 -180 225 -142 q 71 -218 128 -218 z "},":":{"ha":307,"x_min":32,"x_max":275,"o":"m 154 411 q 56 439 79 411 q 33 533 33 467 q 38 591 33 564 q 69 635 43 618 q 156 653 94 653 q 253 625 231 653 q 275 531 275 597 q 270 472 275 500 q 240 428 265 444 q 154 411 215 411 m 153 -1 q 55 26 78 -1 q 32 121 32 54 q 37 178 32 151 q 67 223 42 206 q 154 240 93 240 q 251 213 229 240 q 274 118 274 185 q 269 60 274 88 q 239 15 264 32 q 153 -1 214 -1 z "},";":{"ha":306,"x_min":24,"x_max":282,"o":"m 61 -210 q 53 -207 61 -210 q 35 -192 44 -204 q 26 -151 26 -181 q 38 -103 26 -115 q 56 -90 49 -92 q 79 -71 58 -89 q 106 -11 100 -53 q 75 -1 89 -7 q 50 17 61 6 q 28 63 32 36 q 25 117 24 90 q 32 176 26 147 q 65 224 38 204 q 156 243 92 243 q 257 214 228 243 q 279 168 276 194 q 282 114 282 142 q 281 88 282 100 q 278 63 281 75 q 240 -74 271 -12 q 162 -173 208 -136 q 61 -210 115 -210 m 153 413 q 55 440 78 413 q 32 535 32 468 q 37 592 32 565 q 67 637 42 619 q 154 654 93 654 q 251 626 229 654 q 274 532 274 599 q 269 474 274 501 q 239 429 264 446 q 153 413 214 413 z "},"…":{"ha":1117,"x_min":47,"x_max":1068,"o":"m 557 -1 q 459 26 482 -1 q 436 121 436 54 q 441 178 436 151 q 472 223 446 206 q 558 240 497 240 q 656 213 633 240 q 678 118 678 185 q 673 60 678 88 q 643 15 668 32 q 557 -1 618 -1 m 947 -1 q 849 26 872 -1 q 826 121 826 54 q 831 178 826 151 q 862 223 836 206 q 949 240 888 240 q 1046 213 1024 240 q 1068 118 1068 185 q 1063 60 1068 88 q 1033 15 1058 32 q 947 -1 1008 -1 m 168 -1 q 70 26 93 -1 q 47 121 47 54 q 52 178 47 151 q 83 223 57 206 q 169 240 108 240 q 267 213 244 240 q 289 118 289 185 q 284 60 289 88 q 254 15 279 32 q 168 -1 229 -1 z "},"!":{"ha":344,"x_min":51,"x_max":293,"o":"m 172 342 q 92 355 115 342 q 63 390 68 368 q 58 440 58 413 l 58 850 q 63 901 58 878 q 92 938 68 924 q 174 951 117 951 q 253 938 231 951 q 281 900 276 924 q 286 849 286 876 l 286 439 q 281 389 286 411 q 253 354 276 367 q 172 342 229 342 m 172 -1 q 75 26 99 -1 q 51 121 51 54 q 57 178 51 151 q 88 223 63 206 q 174 240 114 240 q 271 213 249 240 q 293 118 293 185 q 288 60 293 88 q 258 15 283 32 q 172 -1 233 -1 z "},"¡":{"ha":346,"x_min":51,"x_max":293,"o":"m 172 315 q 253 303 229 315 q 281 268 276 290 q 286 218 286 246 l 286 -192 q 281 -243 286 -219 q 253 -281 276 -267 q 174 -294 231 -294 q 92 -281 117 -294 q 63 -244 68 -267 q 58 -193 58 -221 l 58 217 q 63 267 58 244 q 92 302 68 289 q 172 315 115 315 m 172 658 q 258 642 233 658 q 288 598 283 625 q 293 539 293 571 q 271 444 293 472 q 174 417 249 417 q 88 434 114 417 q 57 478 63 451 q 51 536 51 506 q 75 631 51 603 q 172 658 99 658 z "},"?":{"ha":957,"x_min":35,"x_max":922,"o":"m 482 339 q 408 351 431 339 q 382 385 386 364 q 378 433 378 407 l 378 443 q 403 509 378 485 q 467 548 428 533 q 549 573 506 563 q 631 595 592 583 q 694 625 669 607 q 719 674 719 643 q 664 740 719 715 q 474 764 608 764 q 336 752 383 764 q 270 726 289 740 q 244 703 251 711 q 203 654 221 672 q 165 634 186 636 q 107 647 144 632 q 58 674 74 661 q 39 698 43 686 q 35 724 35 710 q 60 808 35 769 q 131 876 86 846 q 233 926 176 906 q 351 958 289 947 q 474 969 414 969 q 718 927 618 969 q 870 818 818 885 q 922 678 922 751 q 892 582 922 624 q 817 510 863 540 q 722 461 771 481 q 633 432 672 442 q 576 421 593 422 l 588 436 l 588 417 q 582 377 588 394 q 554 349 576 360 q 482 339 532 339 m 478 -1 q 381 26 403 -1 q 358 121 358 53 q 363 178 358 151 q 394 223 368 206 q 479 240 419 240 q 577 212 554 240 q 600 118 600 183 q 594 60 600 88 q 564 15 589 32 q 478 -1 539 -1 z "},"¿":{"ha":957,"x_min":35,"x_max":922,"o":"m 475 329 q 549 317 528 329 q 575 283 571 304 q 579 235 579 263 l 579 225 q 554 160 579 185 q 490 120 529 135 q 408 95 451 106 q 326 73 365 85 q 263 43 288 61 q 238 -6 238 25 q 293 -72 238 -47 q 483 -96 349 -96 q 621 -84 574 -96 q 688 -58 668 -72 q 713 -35 707 -43 q 754 15 738 -3 q 792 34 771 32 q 850 21 813 36 q 899 -5 885 7 q 918 -29 914 -17 q 922 -56 922 -42 q 897 -140 922 -101 q 826 -208 871 -178 q 724 -258 781 -237 q 606 -290 668 -279 q 483 -301 543 -301 q 240 -259 340 -301 q 87 -150 139 -217 q 35 -10 35 -83 q 65 86 35 44 q 140 158 94 128 q 235 207 186 188 q 324 236 285 226 q 381 247 364 246 l 369 232 l 369 251 q 375 291 369 274 q 403 319 381 308 q 475 329 425 329 m 479 669 q 576 642 554 669 q 599 547 599 615 q 594 490 599 517 q 564 445 589 463 q 478 428 539 428 q 380 456 403 428 q 357 550 357 485 q 363 609 357 582 q 394 653 368 636 q 479 669 419 669 z "},"·":{"ha":306,"x_min":32,"x_max":274,"o":"m 154 278 q 59 304 86 278 q 32 397 32 331 q 59 492 32 465 q 156 519 86 519 q 247 492 221 519 q 274 397 274 465 q 247 304 274 331 q 154 278 221 278 z "},"•":{"ha":442,"x_min":32,"x_max":410,"o":"m 221 219 q 106 245 147 219 q 49 314 65 271 q 32 408 32 357 q 49 503 32 460 q 106 572 65 546 q 221 597 147 597 q 335 572 294 597 q 393 503 376 546 q 410 408 410 460 q 392 314 410 357 q 333 245 374 271 q 221 219 292 219 z "},"*":{"ha":922,"x_min":28,"x_max":896,"o":"m 461 974 q 553 948 526 974 q 579 857 579 922 l 579 786 l 757 807 q 838 797 807 814 q 879 724 868 779 q 871 613 896 646 q 785 574 846 579 l 650 563 l 804 390 q 826 326 835 356 q 760 250 817 296 q 681 222 717 214 q 600 276 644 229 l 461 425 l 311 260 q 240 221 276 221 q 156 257 203 221 q 94 331 100 300 q 128 406 88 361 l 271 563 l 122 578 q 49 615 71 583 q 42 719 28 647 q 87 791 53 774 q 181 801 121 808 l 344 785 l 344 863 q 371 949 344 924 q 461 974 397 974 z "},"#":{"ha":1469,"x_min":43,"x_max":1426,"o":"m 408 -8 q 336 7 361 -8 q 317 53 311 22 l 340 204 l 131 204 q 60 227 78 204 q 53 306 43 250 q 78 372 61 353 q 117 396 96 392 q 161 400 139 400 l 372 400 l 392 517 l 182 517 q 113 539 131 517 q 104 617 94 561 q 130 683 113 664 q 169 707 147 703 q 213 711 190 711 l 424 711 l 444 833 q 454 892 450 864 q 481 938 458 919 q 565 957 504 957 q 642 940 615 957 q 664 888 669 922 l 635 711 l 940 711 l 960 833 q 969 892 965 864 q 997 938 974 919 q 1082 957 1021 957 q 1158 940 1132 957 q 1179 890 1185 924 l 1151 711 l 1340 711 q 1410 689 1393 711 q 1418 611 1426 667 q 1394 544 1411 564 q 1355 521 1376 525 q 1311 517 1333 517 l 1118 517 l 1100 400 l 1289 400 q 1359 378 1342 400 q 1367 300 1376 356 q 1341 233 1358 253 q 1303 208 1324 213 q 1260 204 1282 204 l 1067 204 l 1050 101 q 1038 49 1046 74 q 1004 8 1029 24 q 924 -8 979 -8 q 852 7 878 -8 q 832 53 826 22 l 856 204 l 551 204 l 535 101 q 522 49 531 74 q 489 8 514 24 q 408 -8 464 -8 m 583 400 l 889 400 l 907 517 l 604 517 l 583 400 z "},"/":{"ha":964,"x_min":10,"x_max":947,"o":"m 892 979 q 943 911 939 940 q 908 833 947 882 l 213 -24 q 167 -65 186 -56 q 126 -66 147 -75 q 68 -32 104 -57 q 21 12 32 -6 q 17 51 10 29 q 44 107 25 72 l 746 971 q 813 1017 782 1015 q 892 979 844 1019 z "},"\\":{"ha":957,"x_min":10,"x_max":953,"o":"m 889 -32 q 832 -65 854 -56 q 790 -65 810 -75 q 744 -24 771 -56 l 49 833 q 15 912 10 882 q 65 979 21 942 q 146 1017 114 1021 q 211 971 178 1013 l 913 107 q 947 32 953 58 q 889 -32 942 6 z "},"-":{"ha":842,"x_min":35,"x_max":807,"o":"m 128 254 q 85 258 107 254 q 49 285 64 263 q 35 358 35 307 q 49 429 35 408 q 86 454 64 450 q 129 458 108 458 l 714 458 q 758 454 736 458 q 793 429 779 450 q 807 357 807 408 q 794 284 807 306 q 760 258 781 263 q 714 254 739 254 l 128 254 z "},"–":{"ha":1033,"x_min":35,"x_max":999,"o":"m 128 249 q 84 253 106 249 q 49 281 63 258 q 35 356 35 303 q 49 428 35 407 q 87 454 64 450 q 132 458 110 458 l 901 458 q 947 454 925 458 q 984 428 969 450 q 999 354 999 407 q 985 281 999 303 q 950 253 972 258 q 900 249 928 249 l 128 249 z "},"—":{"ha":1204,"x_min":35,"x_max":1169,"o":"m 128 249 q 84 253 106 249 q 49 281 63 258 q 35 356 35 303 q 49 428 35 407 q 87 454 64 450 q 132 458 110 458 l 1074 458 q 1119 454 1097 458 q 1155 428 1140 450 q 1169 354 1169 407 q 1156 281 1169 303 q 1122 253 1143 258 q 1072 249 1100 249 l 128 249 z "},"_":{"ha":1401,"x_min":35,"x_max":1367,"o":"m 126 -307 q 84 -303 106 -307 q 49 -277 63 -299 q 35 -206 35 -256 q 49 -133 35 -154 q 85 -107 64 -111 q 128 -103 107 -103 l 1275 -103 q 1317 -107 1296 -103 q 1353 -133 1339 -111 q 1367 -207 1367 -154 q 1352 -278 1367 -257 q 1316 -303 1338 -299 q 1274 -307 1294 -307 l 126 -307 z "},"(":{"ha":788,"x_min":26,"x_max":767,"o":"m 671 -243 q 399 -202 511 -243 q 213 -92 286 -161 q 99 63 140 -22 q 42 240 58 149 q 26 415 26 332 q 42 588 26 496 q 97 766 57 679 q 210 924 138 853 q 395 1037 282 994 q 672 1079 508 1079 q 717 1074 696 1079 q 753 1048 739 1068 q 767 982 767 1028 q 753 915 767 935 q 720 890 740 894 q 678 886 700 886 l 671 886 q 413 838 506 886 q 283 686 319 789 q 246 418 246 583 q 263 235 246 319 q 324 86 279 150 q 453 -14 369 22 q 672 -50 538 -50 q 717 -54 696 -50 q 753 -78 739 -58 q 767 -147 767 -99 q 752 -215 767 -194 q 715 -239 738 -235 q 671 -243 693 -243 z "},")":{"ha":788,"x_min":26,"x_max":767,"o":"m 122 -243 q 78 -239 100 -243 q 41 -215 56 -235 q 26 -147 26 -194 q 40 -78 26 -99 q 76 -54 54 -58 q 121 -50 99 -50 q 340 -14 256 -50 q 469 86 424 22 q 531 235 514 150 q 547 418 547 319 q 510 686 547 583 q 381 838 474 789 q 122 886 289 886 l 115 886 q 74 890 94 886 q 40 915 53 894 q 26 982 26 935 q 40 1048 26 1028 q 76 1074 54 1068 q 121 1079 99 1079 q 398 1037 285 1079 q 583 924 511 994 q 696 766 656 853 q 751 588 736 679 q 767 415 767 497 q 751 240 767 332 q 694 63 735 149 q 580 -92 653 -22 q 395 -202 507 -161 q 122 -243 283 -243 z "},"{":{"ha":785,"x_min":21,"x_max":764,"o":"m 657 -240 q 547 -224 608 -240 q 427 -176 485 -208 q 332 -99 369 -144 q 294 4 294 -54 l 294 263 q 268 289 294 279 q 206 303 242 299 q 141 310 171 308 q 103 311 111 311 l 96 311 q 38 337 56 311 q 21 417 21 363 q 34 492 21 469 q 65 519 47 514 q 94 524 83 524 l 99 524 q 136 525 106 524 q 203 531 167 526 q 267 546 240 536 q 294 574 294 556 l 294 838 q 332 939 294 894 q 426 1014 369 983 q 545 1060 483 1044 q 656 1076 607 1076 q 708 1072 683 1076 q 748 1044 732 1067 q 764 971 764 1022 q 748 898 764 921 q 708 869 732 875 q 657 864 683 864 q 597 860 632 864 q 533 839 561 856 q 506 785 506 822 l 506 621 q 481 536 506 571 q 417 478 456 501 q 335 442 378 456 q 258 419 293 428 q 335 394 293 410 q 417 355 378 378 q 481 299 456 332 q 506 224 506 267 l 504 32 q 532 -8 504 6 q 595 -25 560 -21 q 656 -29 631 -29 q 706 -33 682 -29 q 747 -60 731 -37 q 764 -135 764 -82 q 747 -210 764 -187 q 706 -236 731 -232 q 657 -240 682 -240 z "},"}":{"ha":785,"x_min":21,"x_max":764,"o":"m 128 -240 q 79 -236 104 -240 q 38 -210 54 -232 q 21 -135 21 -187 q 38 -60 21 -82 q 79 -33 54 -37 q 129 -29 104 -29 q 190 -25 154 -29 q 253 -8 226 -21 q 281 32 281 6 l 279 224 q 304 299 279 267 q 368 355 329 332 q 449 394 407 378 q 526 419 492 410 q 449 442 492 428 q 368 478 407 456 q 304 536 329 501 q 279 621 279 571 l 279 785 q 252 839 279 822 q 189 860 225 856 q 128 864 153 864 q 78 869 103 864 q 37 898 53 875 q 21 971 21 921 q 37 1044 21 1022 q 78 1072 53 1067 q 129 1076 103 1076 q 240 1060 178 1076 q 358 1014 301 1044 q 453 939 415 983 q 490 838 490 894 l 490 574 q 517 546 490 556 q 581 531 544 536 q 649 525 618 526 q 686 524 679 524 l 690 524 q 720 519 703 524 q 751 492 738 514 q 764 417 764 469 q 747 337 764 363 q 689 311 729 311 l 682 311 q 644 310 674 311 q 578 303 614 308 q 517 289 543 299 q 490 263 490 279 l 490 4 q 453 -99 490 -54 q 358 -176 415 -144 q 238 -224 300 -208 q 128 -240 176 -240 z "},"[":{"ha":765,"x_min":63,"x_max":744,"o":"m 181 -240 q 97 -222 122 -240 q 67 -174 72 -203 q 63 -115 63 -144 l 63 951 q 67 1010 63 982 q 97 1058 72 1039 q 181 1076 122 1076 l 658 1076 q 699 1072 679 1076 q 731 1046 718 1068 q 744 969 744 1024 q 731 894 744 917 q 698 868 718 872 q 657 864 678 864 l 297 864 l 297 -28 l 658 -28 q 699 -32 679 -28 q 731 -59 718 -36 q 744 -136 744 -82 q 731 -210 744 -187 q 698 -236 718 -232 q 657 -240 678 -240 l 181 -240 z "},"]":{"ha":765,"x_min":21,"x_max":703,"o":"m 108 -240 q 67 -236 88 -240 q 34 -210 47 -232 q 21 -136 21 -187 q 34 -59 21 -82 q 67 -32 47 -36 q 107 -28 86 -28 l 468 -28 l 468 864 l 108 864 q 67 868 88 864 q 34 894 47 872 q 21 969 21 917 q 34 1046 21 1024 q 67 1072 47 1068 q 107 1076 86 1076 l 585 1076 q 669 1058 644 1076 q 698 1010 693 1039 q 703 951 703 982 l 703 -115 q 698 -174 703 -144 q 669 -222 693 -203 q 585 -240 644 -240 l 108 -240 z "},"‚":{"ha":335,"x_min":33,"x_max":301,"o":"m 71 -218 q 62 -215 71 -218 q 44 -200 53 -212 q 35 -157 35 -187 q 47 -108 35 -121 q 65 -94 58 -96 q 90 -73 68 -92 q 118 -11 113 -54 q 85 1 100 -7 q 60 18 71 8 q 37 67 40 38 q 33 122 33 96 q 40 183 35 153 q 74 233 46 213 q 169 253 103 253 q 275 222 244 253 q 298 174 294 203 q 301 118 301 146 q 301 91 301 104 q 297 65 300 78 q 258 -78 290 -14 q 176 -180 225 -142 q 71 -218 128 -218 z "},"„":{"ha":622,"x_min":31,"x_max":596,"o":"m 68 -218 q 59 -215 68 -218 q 41 -200 50 -212 q 32 -157 32 -187 q 44 -108 32 -121 q 63 -94 56 -96 q 88 -73 65 -92 q 115 -11 110 -54 q 83 1 97 -7 q 57 18 68 8 q 34 67 38 38 q 31 122 31 96 q 38 183 32 153 q 72 233 43 213 q 167 253 100 253 q 272 222 242 253 q 295 174 292 203 q 299 118 299 146 q 298 91 299 104 q 294 65 297 78 q 255 -78 288 -14 q 174 -180 222 -142 q 68 -218 125 -218 m 365 -218 q 356 -215 365 -218 q 338 -200 347 -212 q 329 -157 329 -187 q 341 -108 329 -121 q 360 -94 353 -96 q 385 -73 363 -92 q 413 -11 407 -54 q 380 1 394 -7 q 354 18 365 8 q 331 67 335 38 q 328 122 328 96 q 335 183 329 153 q 369 233 340 213 q 464 253 397 253 q 569 222 539 253 q 592 174 589 203 q 596 118 596 146 q 595 91 596 104 q 592 65 594 78 q 552 -78 585 -14 q 471 -180 519 -142 q 365 -218 422 -218 z "},"“":{"ha":622,"x_min":28,"x_max":589,"o":"m 551 961 q 560 958 551 961 q 578 943 569 956 q 588 900 588 931 q 576 852 588 864 q 557 838 564 840 q 533 817 554 836 q 504 754 511 799 q 537 743 522 750 q 563 725 551 736 q 585 677 582 706 q 589 621 589 649 q 583 560 589 590 q 549 510 576 531 q 453 490 521 490 q 347 521 378 490 q 324 569 328 540 q 321 625 321 597 q 322 652 321 639 q 325 678 324 665 q 365 822 333 757 q 447 924 397 886 q 551 961 496 961 m 258 961 q 267 958 258 961 q 285 943 276 956 q 294 900 294 931 q 283 852 294 864 q 264 838 271 840 q 240 817 261 836 q 211 754 218 799 q 244 743 229 750 q 269 725 258 736 q 292 677 289 706 q 296 621 296 649 q 290 560 296 590 q 256 510 283 531 q 160 490 228 490 q 54 521 85 490 q 31 569 35 540 q 28 625 28 597 q 29 652 28 639 q 32 678 31 665 q 72 822 40 757 q 153 924 104 886 q 258 961 203 961 z "},"”":{"ha":622,"x_min":28,"x_max":589,"o":"m 65 490 q 56 493 65 490 q 38 508 47 496 q 29 551 29 521 q 41 600 29 588 q 60 614 53 613 q 85 635 63 617 q 113 697 107 654 q 80 709 94 701 q 54 726 65 717 q 31 775 35 746 q 28 831 28 804 q 35 891 29 861 q 69 941 40 921 q 164 961 97 961 q 269 931 239 961 q 292 883 289 911 q 296 826 296 854 q 295 799 296 813 q 292 774 294 786 q 252 631 285 694 q 171 528 219 567 q 65 490 122 490 m 358 490 q 349 493 358 490 q 331 508 340 496 q 322 551 322 521 q 334 600 322 588 q 353 614 346 613 q 378 635 356 617 q 406 697 400 654 q 373 709 388 701 q 347 726 358 717 q 324 775 328 746 q 321 831 321 804 q 328 891 322 861 q 362 941 333 921 q 457 961 390 961 q 563 931 532 961 q 585 883 582 911 q 589 826 589 854 q 588 799 589 813 q 585 774 588 786 q 545 631 578 694 q 464 528 513 567 q 358 490 415 490 z "},"‘":{"ha":306,"x_min":18,"x_max":286,"o":"m 249 961 q 258 958 249 961 q 276 943 267 956 q 285 900 285 931 q 273 852 285 864 q 254 838 261 840 q 230 817 251 836 q 201 754 208 799 q 234 743 219 750 q 260 725 249 736 q 283 677 279 706 q 286 621 286 649 q 280 560 286 590 q 246 510 274 531 q 150 490 218 490 q 44 521 75 490 q 22 569 25 540 q 18 625 18 597 q 19 652 18 639 q 22 678 21 665 q 63 822 31 757 q 144 924 94 886 q 249 961 193 961 z "},"’":{"ha":306,"x_min":21,"x_max":289,"o":"m 58 489 q 49 492 58 489 q 31 507 40 494 q 22 550 22 519 q 34 599 22 586 q 53 613 46 611 q 78 634 56 615 q 106 696 100 653 q 73 708 88 700 q 47 725 58 715 q 24 774 28 744 q 21 829 21 803 q 28 890 22 860 q 62 940 33 919 q 157 960 90 960 q 263 929 232 960 q 285 881 282 910 q 289 825 289 853 q 288 798 289 811 q 285 772 288 785 q 245 629 278 693 q 164 527 213 565 q 58 489 115 489 z "},"«":{"ha":1390,"x_min":21,"x_max":1372,"o":"m 740 68 q 699 8 719 22 q 657 -1 678 -6 q 615 13 636 4 l 79 247 q 37 277 53 258 q 21 344 21 296 q 37 411 21 393 q 79 440 53 429 l 615 675 q 657 689 636 685 q 699 679 678 693 q 740 619 719 665 q 758 548 761 574 q 738 510 754 522 q 699 489 721 499 l 353 344 l 699 199 q 738 177 721 190 q 758 140 754 164 q 740 68 761 115 m 1351 68 q 1310 8 1331 22 q 1268 -1 1289 -6 q 1226 13 1247 4 l 690 247 q 648 277 664 258 q 632 344 632 296 q 648 411 632 393 q 690 440 664 429 l 1226 675 q 1268 689 1247 685 q 1310 679 1289 693 q 1351 619 1331 665 q 1369 548 1372 574 q 1349 510 1365 522 q 1310 489 1332 499 l 964 344 l 1310 199 q 1349 177 1332 190 q 1369 140 1365 164 q 1351 68 1372 115 z "},"»":{"ha":1386,"x_min":18,"x_max":1365,"o":"m 39 68 q 22 140 18 115 q 42 177 25 164 q 81 199 60 190 l 426 344 l 81 489 q 42 510 60 499 q 22 548 25 522 q 39 619 18 574 q 81 679 60 665 q 123 689 101 693 q 164 675 144 685 l 700 440 q 742 411 726 429 q 758 344 758 393 q 742 277 758 296 q 700 247 726 258 l 164 13 q 123 -1 144 4 q 81 8 101 -6 q 39 68 60 22 m 646 68 q 628 140 625 115 q 649 177 632 164 q 688 199 667 190 l 1033 344 l 688 489 q 649 510 667 499 q 628 548 632 522 q 646 619 625 574 q 688 679 667 665 q 730 689 708 693 q 771 675 751 685 l 1307 440 q 1349 411 1333 429 q 1365 344 1365 393 q 1349 277 1365 296 q 1307 247 1333 258 l 771 13 q 730 -1 751 4 q 688 8 708 -6 q 646 68 667 22 z "},"‹":{"ha":779,"x_min":21,"x_max":761,"o":"m 740 68 q 699 8 719 22 q 657 -1 678 -6 q 615 13 636 4 l 79 247 q 37 277 53 258 q 21 344 21 296 q 37 411 21 393 q 79 440 53 429 l 615 675 q 657 689 636 685 q 699 679 678 693 q 740 619 719 665 q 758 548 761 574 q 738 510 754 522 q 699 489 721 499 l 353 344 l 699 199 q 738 177 721 190 q 758 140 754 164 q 740 68 761 115 z "},"›":{"ha":779,"x_min":18,"x_max":758,"o":"m 39 68 q 22 140 18 115 q 42 177 25 164 q 81 199 60 190 l 426 344 l 81 489 q 42 510 60 499 q 22 548 25 522 q 39 619 18 574 q 81 679 60 665 q 123 689 101 693 q 164 675 144 685 l 700 440 q 742 411 726 429 q 758 344 758 393 q 742 277 758 296 q 700 247 726 258 l 164 13 q 123 -1 144 4 q 81 8 101 -6 q 39 68 60 22 z "},"\"":{"ha":554,"x_min":32,"x_max":522,"o":"m 418 492 q 383 517 399 492 q 354 581 367 542 q 334 665 342 619 q 322 751 326 710 q 318 821 318 793 q 322 883 318 854 q 348 929 326 911 q 421 947 369 947 q 493 929 472 947 q 518 882 514 911 q 522 821 522 853 q 518 751 522 793 q 506 665 514 710 q 485 581 497 619 q 456 517 472 542 q 418 492 439 492 m 133 492 q 97 517 113 492 q 68 581 81 542 q 48 665 56 619 q 36 751 40 710 q 32 821 32 793 q 36 883 32 854 q 62 929 40 911 q 135 947 83 947 q 207 929 186 947 q 232 882 228 911 q 236 821 236 853 q 232 751 236 793 q 220 665 228 710 q 200 581 213 619 q 171 517 188 542 q 133 492 154 492 z "},"'":{"ha":268,"x_min":32,"x_max":236,"o":"m 133 492 q 97 517 113 492 q 68 581 81 542 q 48 665 56 619 q 36 751 40 710 q 32 821 32 793 q 36 883 32 854 q 62 929 40 911 q 135 947 83 947 q 207 929 186 947 q 232 882 228 911 q 236 821 236 853 q 232 751 236 793 q 220 665 228 710 q 200 581 213 619 q 171 517 188 542 q 133 492 154 492 z "},"ƒ":{"ha":1008,"x_min":21,"x_max":988,"o":"m 138 -303 q 78 -299 106 -303 q 36 -276 51 -294 q 21 -217 21 -258 q 22 -199 21 -208 q 24 -179 22 -189 q 58 -89 26 -118 q 161 -60 89 -60 q 255 -54 215 -60 q 317 -34 294 -49 q 343 10 340 -19 l 390 403 l 236 403 q 183 408 210 403 q 140 433 157 413 q 122 500 122 454 q 122 515 122 507 q 124 529 122 522 q 151 617 131 592 q 201 648 172 643 q 261 653 231 653 l 414 651 l 422 701 q 474 841 431 788 q 582 922 517 894 q 723 960 647 950 q 874 971 799 971 q 928 967 901 971 q 971 943 954 963 q 988 876 988 924 q 988 862 988 869 q 986 844 988 854 q 959 759 979 785 q 911 728 939 733 q 853 722 883 722 q 813 721 842 722 q 752 715 785 719 q 696 705 719 711 q 671 688 672 699 l 665 647 l 874 653 q 928 649 901 653 q 971 625 954 644 q 988 557 988 606 q 988 542 988 550 q 986 526 988 535 q 958 442 979 468 q 909 409 938 415 q 850 403 881 403 l 640 407 l 590 -33 q 529 -156 575 -106 q 418 -240 483 -207 q 280 -287 353 -272 q 138 -303 207 -303 z "},"@":{"ha":1439,"x_min":35,"x_max":1404,"o":"m 678 -181 q 312 -116 454 -181 q 102 68 169 -51 q 35 349 35 188 q 82 560 35 464 q 219 728 129 657 q 442 838 310 799 q 746 876 575 876 q 1060 839 933 876 q 1262 732 1186 801 q 1371 564 1338 663 q 1404 342 1404 465 q 1378 161 1404 238 q 1303 35 1351 85 q 1192 -40 1256 -15 q 1054 -65 1129 -65 q 902 -11 961 -65 q 843 133 843 43 q 843 143 843 135 q 843 151 843 151 q 800 135 833 144 q 725 118 767 125 q 646 111 683 111 q 527 124 588 111 q 415 165 467 138 q 332 235 364 192 q 301 342 300 279 q 301 358 301 350 q 301 374 301 365 q 347 487 308 439 q 445 567 385 535 q 577 614 506 599 q 719 629 649 629 q 815 619 771 629 q 886 595 858 610 q 914 565 914 581 l 896 547 q 923 605 899 579 q 997 631 947 631 q 1065 615 1042 631 q 1085 565 1089 600 l 1029 136 q 1034 124 1029 126 q 1060 121 1039 121 q 1121 130 1092 121 q 1172 163 1150 139 q 1207 234 1194 188 q 1219 357 1219 281 q 1200 497 1219 435 q 1131 601 1181 558 q 990 667 1081 644 q 756 690 899 690 q 457 649 575 690 q 281 533 339 607 q 222 357 222 458 q 264 164 222 242 q 406 47 306 86 q 679 7 506 7 q 738 1 718 7 q 765 -26 757 -6 q 772 -87 772 -46 q 758 -153 772 -133 q 722 -176 743 -172 q 678 -181 700 -181 m 676 274 q 726 278 696 274 q 789 292 757 282 q 843 322 821 303 q 867 371 865 342 l 867 378 q 848 424 867 407 q 801 451 829 442 q 748 464 774 461 q 710 467 722 467 q 642 463 679 467 q 572 448 606 458 q 515 418 538 438 q 490 368 493 399 l 490 360 q 521 305 490 324 q 595 280 551 286 q 676 274 639 274 z "},"&":{"ha":1139,"x_min":35,"x_max":1104,"o":"m 439 -32 q 203 2 292 -32 q 74 103 114 36 q 35 265 35 169 q 67 371 35 319 q 148 467 99 422 q 246 550 197 513 q 195 608 222 574 q 150 681 168 642 q 132 754 132 719 q 163 890 132 835 q 269 976 194 946 q 478 1006 344 1006 q 653 972 583 1006 q 756 883 722 938 q 790 767 790 829 q 771 686 790 724 q 718 617 751 649 q 645 558 685 586 q 565 504 606 529 q 622 442 588 476 q 694 372 657 407 q 763 308 732 336 q 792 366 778 332 q 811 425 806 400 q 851 476 818 460 q 939 492 883 492 q 1015 478 993 492 q 1043 445 1038 464 q 1047 411 1049 426 q 1010 315 1046 365 q 933 229 974 265 q 949 228 936 229 q 976 227 963 228 q 990 226 989 226 q 1076 197 1047 226 q 1104 111 1104 168 q 1079 13 1104 39 q 989 -14 1054 -14 q 910 -4 951 -14 q 829 22 869 6 q 753 56 789 38 q 667 15 713 35 q 565 -19 621 -6 q 439 -32 508 -32 m 449 171 q 517 178 489 171 q 583 194 546 185 q 542 235 569 208 q 485 292 515 261 q 427 351 454 324 q 386 397 400 379 q 348 367 365 383 q 317 333 331 350 q 295 300 303 317 q 288 268 288 283 q 299 222 288 244 q 346 185 311 199 q 449 171 381 171 m 438 651 q 488 678 465 664 q 528 708 511 693 q 553 738 544 724 q 563 767 563 753 q 541 809 563 799 q 475 819 519 819 q 413 814 438 819 q 374 794 388 808 q 361 754 361 779 q 369 723 361 742 q 395 685 378 704 q 438 651 413 667 z "},"¶":{"ha":1051,"x_min":35,"x_max":1017,"o":"m 504 -312 q 433 -294 454 -312 q 407 -246 411 -275 q 403 -186 403 -217 l 403 328 q 191 355 272 331 q 72 431 110 379 q 35 565 35 483 q 56 675 35 629 q 123 749 78 721 q 241 791 168 778 q 415 804 314 804 l 917 804 q 988 785 967 804 q 1013 738 1008 767 q 1017 679 1017 710 l 1017 -189 q 1013 -247 1017 -218 q 988 -294 1008 -275 q 915 -312 967 -312 q 844 -294 865 -312 q 818 -246 822 -275 q 814 -186 814 -217 l 814 649 l 606 649 l 606 -189 q 601 -247 606 -218 q 576 -294 597 -275 q 504 -312 556 -312 z "},"§":{"ha":1060,"x_min":44,"x_max":1011,"o":"m 528 -304 q 349 -285 428 -304 q 213 -240 269 -267 q 123 -191 156 -214 q 83 -160 90 -168 q 49 -72 44 -107 q 106 13 54 -36 q 194 44 157 57 q 275 -10 232 31 q 338 -49 300 -33 q 423 -70 375 -64 q 525 -76 471 -76 q 663 -68 610 -76 q 740 -41 715 -60 q 765 6 765 -22 q 731 41 765 26 q 642 67 697 56 q 519 89 586 78 q 383 114 451 100 q 227 158 300 131 q 110 237 154 186 q 65 371 65 288 q 72 433 65 403 q 92 490 79 463 q 125 542 106 518 q 80 622 94 576 q 65 722 65 667 q 121 867 65 803 q 278 968 176 931 q 518 1006 379 1006 q 685 997 610 1006 q 818 969 760 988 q 915 921 876 950 q 960 856 958 885 q 926 775 963 826 q 847 708 886 717 q 758 735 808 700 q 717 753 747 743 q 637 769 686 763 q 517 776 588 776 q 403 769 450 776 q 333 749 357 761 q 308 721 308 736 q 347 676 308 692 q 447 651 385 660 q 585 635 510 643 q 735 610 660 626 q 872 565 810 594 q 973 487 935 536 q 1011 360 1011 438 q 998 264 1011 308 q 957 182 985 219 q 998 106 985 150 q 1011 10 1011 63 q 969 -137 1011 -78 q 858 -234 928 -197 q 702 -287 788 -271 q 528 -304 617 -304 m 729 278 q 750 296 742 285 q 762 323 758 307 q 765 356 765 339 q 747 380 765 369 q 683 401 729 390 q 552 426 636 413 q 336 461 468 440 q 313 423 317 443 q 308 383 308 403 q 344 354 308 368 q 433 328 379 340 q 547 307 488 317 q 656 290 606 297 q 729 278 706 283 z "},"©":{"ha":1199,"x_min":35,"x_max":1164,"o":"m 599 111 q 354 135 460 111 q 178 211 249 160 q 71 344 107 263 q 35 542 35 426 q 71 741 35 658 q 178 876 107 824 q 355 953 249 929 q 600 978 461 978 q 844 953 739 978 q 1021 877 950 929 q 1128 742 1092 825 q 1164 543 1164 660 q 1128 346 1164 428 q 1021 212 1092 264 q 844 135 950 160 q 599 111 739 111 m 615 289 q 442 322 517 289 q 327 413 368 354 q 286 547 286 471 q 327 680 286 624 q 443 767 368 736 q 617 799 518 799 q 696 790 657 799 q 767 769 735 782 q 819 744 799 757 q 857 702 853 722 q 843 656 861 682 q 813 624 828 633 q 785 618 799 615 q 753 633 771 621 q 700 655 739 642 q 613 668 661 668 q 510 653 554 668 q 441 610 465 638 q 417 544 417 582 q 441 480 417 508 q 510 436 465 451 q 613 421 554 421 q 674 427 646 421 q 725 442 703 433 q 757 458 747 451 q 803 470 785 476 q 842 432 821 464 q 856 383 861 403 q 818 343 850 363 q 769 318 800 331 q 698 297 738 306 q 615 289 658 289 m 600 247 q 782 264 703 247 q 915 316 861 281 q 998 408 969 351 q 1026 544 1026 465 q 998 681 1026 624 q 915 773 969 738 q 781 825 860 808 q 599 842 701 842 q 417 825 497 842 q 283 772 338 808 q 201 678 229 736 q 172 540 172 621 q 201 406 172 461 q 284 315 229 350 q 418 264 339 281 q 600 247 497 247 z "},"®":{"ha":1199,"x_min":35,"x_max":1164,"o":"m 600 978 q 844 953 739 978 q 1021 877 950 929 q 1128 742 1092 825 q 1164 543 1164 660 q 1128 346 1164 428 q 1021 212 1092 264 q 844 135 950 160 q 599 111 739 111 q 354 135 460 111 q 178 211 249 160 q 71 344 107 263 q 35 542 35 426 q 71 741 35 658 q 178 876 107 824 q 355 953 249 929 q 600 978 461 978 m 600 247 q 782 264 703 247 q 915 316 861 281 q 998 408 969 351 q 1026 544 1026 465 q 998 681 1026 624 q 915 773 969 738 q 781 825 860 808 q 599 842 701 842 q 417 825 497 842 q 283 772 338 808 q 201 678 229 736 q 172 540 172 621 q 201 406 172 461 q 284 315 229 350 q 418 264 339 281 q 600 247 497 247 m 826 475 l 897 374 q 897 354 900 364 q 886 335 894 344 q 864 317 878 326 q 814 298 832 293 q 774 331 796 303 l 699 433 l 489 433 l 489 364 q 486 333 489 349 q 470 309 483 318 q 424 300 457 300 q 378 310 392 300 q 361 335 364 319 q 358 365 358 350 l 358 732 q 361 762 358 747 q 378 786 364 776 q 424 796 392 796 l 710 796 q 788 776 746 796 q 860 717 829 757 q 890 614 890 676 q 874 535 890 571 q 826 475 857 500 m 489 667 l 489 563 l 710 563 q 741 574 722 563 q 760 614 760 585 q 744 651 760 636 q 707 667 729 667 l 489 667 z "},"™":{"ha":1400,"x_min":35,"x_max":1365,"o":"m 350 294 q 286 308 306 294 q 262 342 267 322 q 257 378 257 361 l 257 653 l 111 653 q 79 656 97 653 q 48 678 61 660 q 35 742 35 697 q 47 806 35 788 q 76 828 60 825 q 107 832 93 832 l 590 832 q 625 828 608 832 q 653 806 642 825 q 664 742 664 788 q 590 653 664 653 l 443 653 l 443 376 q 439 340 443 360 q 415 308 435 321 q 350 294 396 294 m 768 294 q 705 307 724 294 q 683 339 686 319 q 679 376 679 358 l 681 743 q 685 777 681 756 q 709 816 689 799 q 776 833 729 833 q 826 823 813 833 q 850 801 840 813 l 1031 594 l 1192 794 q 1216 819 1201 806 q 1267 832 1231 832 q 1337 815 1317 832 q 1361 773 1357 797 q 1365 729 1365 749 l 1365 376 q 1361 338 1365 357 q 1339 307 1357 319 q 1278 294 1321 294 q 1211 306 1232 294 q 1185 336 1190 318 q 1181 375 1181 354 l 1181 557 l 1064 424 q 1044 404 1053 411 q 1029 397 1036 397 q 1015 403 1022 397 q 992 424 1007 410 l 865 558 l 865 379 q 861 339 865 358 q 837 307 857 319 q 768 294 817 294 z "},"°":{"ha":808,"x_min":35,"x_max":774,"o":"m 406 526 q 206 554 289 526 q 79 633 124 582 q 35 757 35 685 q 78 883 35 831 q 206 964 122 936 q 404 992 289 992 q 603 964 521 992 q 730 884 686 936 q 774 758 774 832 q 730 634 774 686 q 604 554 686 582 q 406 526 522 526 m 404 661 q 567 685 508 661 q 625 760 625 710 q 567 832 625 808 q 404 856 508 856 q 242 832 300 856 q 183 758 183 808 q 242 685 183 708 q 404 661 300 661 z "},"|":{"ha":281,"x_min":51,"x_max":229,"o":"m 139 -300 q 77 -285 96 -300 q 55 -243 58 -269 q 51 -186 51 -217 l 51 888 q 55 943 51 918 q 77 983 58 968 q 140 999 96 999 q 203 983 185 999 q 226 942 222 968 q 229 886 229 917 l 229 -189 q 226 -244 229 -218 q 203 -285 222 -269 q 139 -300 185 -300 z "},"¦":{"ha":278,"x_min":51,"x_max":226,"o":"m 139 413 q 77 428 96 413 q 55 463 58 443 q 51 494 51 482 l 51 889 q 56 944 51 919 q 78 984 60 969 q 139 999 96 999 q 201 983 183 999 q 223 943 219 968 q 226 888 226 918 l 226 494 q 223 463 226 482 q 201 428 219 443 q 139 413 183 413 m 139 -287 q 77 -272 96 -287 q 55 -232 58 -257 q 51 -176 51 -207 l 51 215 q 55 249 51 229 q 77 284 58 268 q 140 300 96 300 q 201 284 183 300 q 223 249 219 268 q 226 215 226 229 l 226 -178 q 223 -233 226 -208 q 201 -273 219 -258 q 139 -287 183 -287 z "},"†":{"ha":989,"x_min":35,"x_max":954,"o":"m 494 -244 q 417 -229 440 -244 q 388 -188 393 -214 q 383 -132 383 -162 l 383 858 q 388 912 383 888 q 417 951 393 936 q 496 965 440 965 q 574 950 551 965 q 602 909 597 935 q 607 853 607 883 l 607 -133 q 602 -189 607 -164 q 574 -229 597 -214 q 494 -244 551 -244 m 133 457 q 87 462 110 457 q 49 488 64 467 q 35 561 35 510 q 50 633 35 613 q 90 658 65 654 q 138 663 114 663 l 496 653 l 853 663 q 901 658 878 663 q 939 633 924 654 q 954 560 954 611 q 940 488 954 510 q 903 462 926 467 q 851 457 881 457 l 494 467 l 133 457 z "},"‡":{"ha":989,"x_min":35,"x_max":954,"o":"m 494 -244 q 417 -229 440 -244 q 388 -188 393 -214 q 383 -132 383 -162 l 383 858 q 388 912 383 888 q 417 951 393 936 q 496 965 440 965 q 574 950 551 965 q 602 909 597 935 q 607 853 607 883 l 607 -133 q 602 -189 607 -164 q 574 -229 597 -214 q 494 -244 551 -244 m 133 57 q 87 61 110 57 q 49 88 64 65 q 35 161 35 110 q 50 233 35 213 q 90 259 65 254 q 138 263 114 264 l 496 253 l 853 263 q 901 259 878 264 q 939 233 924 254 q 954 160 954 211 q 940 88 954 110 q 903 61 926 65 q 851 57 881 57 l 494 67 l 133 57 m 133 457 q 87 462 110 457 q 49 488 64 467 q 35 561 35 510 q 50 633 35 613 q 90 658 65 654 q 138 663 114 663 l 496 653 l 853 663 q 901 658 878 663 q 939 633 924 654 q 954 560 954 611 q 940 488 954 510 q 903 462 926 467 q 851 457 881 457 l 494 467 l 133 457 z "},"€":{"ha":1083,"x_min":21,"x_max":1063,"o":"m 642 -10 q 519 5 585 -10 q 388 47 453 19 q 269 117 324 75 q 181 213 215 158 q 140 333 146 267 q 135 420 138 368 q 133 534 132 472 q 138 657 133 596 q 187 806 144 744 q 291 907 229 868 q 420 968 353 946 q 547 999 488 990 q 642 1007 606 1007 l 942 1007 q 1000 1001 972 1007 q 1045 969 1028 996 q 1063 881 1063 943 q 1044 792 1063 818 q 997 760 1025 765 q 936 756 968 756 l 642 756 q 606 754 633 756 q 544 749 579 753 q 476 735 510 744 q 422 710 443 726 q 400 667 400 693 q 389 554 393 615 q 387 434 385 493 q 397 329 389 375 q 419 288 397 304 q 472 262 440 271 q 540 248 504 253 q 603 242 575 243 q 642 240 631 240 l 938 240 q 998 235 969 240 q 1044 203 1026 229 q 1063 114 1063 176 q 1045 28 1063 54 q 1001 -4 1028 1 q 944 -10 974 -10 l 642 -10 m 101 311 q 63 315 82 311 q 33 335 44 318 q 21 394 21 353 q 34 451 21 435 q 66 469 47 467 q 100 472 85 472 l 910 472 q 945 469 926 472 q 977 449 964 465 q 990 392 990 432 q 978 335 990 353 q 948 315 967 318 q 910 311 929 311 l 101 311 m 101 524 q 63 527 82 524 q 33 548 44 531 q 21 606 21 565 q 34 663 21 646 q 66 683 47 679 q 100 686 85 686 l 910 686 q 945 683 926 686 q 977 662 964 679 q 990 603 990 644 q 978 547 990 564 q 948 527 967 531 q 910 524 929 524 l 101 524 z "},"¢":{"ha":653,"x_min":21,"x_max":632,"o":"m 349 -118 q 287 -101 306 -118 q 265 -60 268 -85 q 261 -10 261 -35 l 261 83 q 142 137 197 100 q 54 233 88 174 q 21 371 21 292 q 54 508 21 450 q 142 602 88 565 q 261 654 197 639 l 261 765 q 265 818 261 793 q 287 859 268 843 q 349 875 306 875 q 411 858 393 875 q 433 817 429 842 q 436 765 436 792 l 436 658 q 508 640 479 651 q 552 619 538 629 q 568 608 567 610 q 612 576 592 594 q 632 529 632 558 q 625 499 632 515 q 607 464 618 483 q 525 401 568 401 q 481 414 500 401 q 433 439 461 426 q 357 451 406 451 q 294 441 322 451 q 251 412 267 431 q 235 369 235 393 q 251 326 235 346 q 294 297 267 307 q 354 286 321 286 q 406 292 382 286 q 444 303 429 297 q 458 310 458 310 q 488 327 474 319 q 518 335 503 335 q 560 322 538 335 q 604 275 583 310 q 625 195 632 231 q 568 128 618 160 q 550 117 565 126 q 506 97 535 108 q 436 79 478 86 l 436 -10 q 433 -61 436 -36 q 411 -102 429 -86 q 349 -118 393 -118 z "},"¤":{"ha":1156,"x_min":17,"x_max":1139,"o":"m 81 15 q 23 76 29 43 q 43 153 17 110 q 64 188 53 171 q 90 222 75 206 q 121 251 104 239 q 92 299 110 267 q 60 381 74 332 q 47 496 47 431 q 67 639 47 574 q 121 753 86 704 q 82 794 106 767 q 43 850 58 822 q 27 926 21 894 q 78 986 33 957 q 160 1008 131 1019 q 217 950 190 996 q 228 932 222 940 q 239 914 233 924 q 276 899 242 906 q 383 888 310 892 q 574 883 456 883 l 590 883 q 782 888 713 883 q 883 899 851 892 q 918 915 914 906 q 928 932 924 924 q 939 949 933 940 q 998 1004 969 997 q 1076 985 1026 1011 q 1132 924 1128 954 q 1113 847 1136 893 q 1078 796 1097 822 q 1033 750 1060 769 q 1088 639 1069 703 q 1107 499 1107 575 q 1099 406 1107 450 q 1075 322 1090 361 q 1036 250 1060 282 q 1062 221 1047 239 q 1090 185 1076 203 q 1111 156 1104 167 q 1133 79 1139 108 q 1076 18 1126 50 q 997 -6 1025 -17 q 940 53 968 6 q 929 70 935 61 q 918 86 924 79 q 882 103 915 96 q 776 115 849 111 q 582 119 704 119 l 556 119 q 406 117 465 119 q 311 111 346 115 q 259 101 276 107 q 236 88 242 94 q 226 69 231 78 q 217 51 222 61 q 161 -6 189 0 q 81 15 133 -12 m 571 328 q 773 345 704 328 q 865 401 842 363 q 889 500 889 439 q 865 599 889 561 q 775 654 842 636 q 578 672 708 672 q 382 654 449 672 q 292 599 315 636 q 268 501 268 561 q 292 405 268 443 q 381 347 315 367 q 571 328 447 328 z "},"$":{"ha":899,"x_min":17,"x_max":878,"o":"m 878 314 q 848 219 878 261 q 769 145 818 176 q 661 94 721 114 q 540 64 601 74 l 540 -10 q 536 -61 540 -36 q 513 -102 532 -86 q 450 -118 494 -118 q 388 -101 407 -118 q 366 -60 369 -85 q 363 -10 363 -35 l 363 61 q 240 84 301 68 q 128 122 178 100 q 54 172 79 144 q 22 243 17 214 q 69 314 26 272 q 114 344 96 338 q 154 338 132 350 q 214 297 176 326 q 310 257 251 268 q 447 246 369 246 q 555 253 504 246 q 637 274 606 260 q 668 311 668 289 q 633 340 668 329 q 540 358 597 350 q 415 375 482 365 q 283 401 350 385 q 161 444 217 417 q 72 513 106 471 q 39 617 39 554 q 56 708 39 667 q 110 778 72 749 q 210 825 149 807 q 363 849 272 843 l 363 907 q 366 958 363 933 q 388 998 369 982 q 451 1014 407 1014 q 513 997 494 1014 q 536 956 532 981 q 540 906 540 932 l 540 844 q 685 812 614 835 q 793 760 757 789 q 835 704 833 729 q 807 632 838 679 q 769 590 786 599 q 730 588 751 581 q 674 610 708 596 q 610 635 643 624 q 538 653 578 646 q 440 660 497 660 q 339 656 378 660 q 280 647 300 653 q 253 632 260 640 q 246 615 246 624 q 281 579 246 592 q 375 560 317 567 q 500 544 433 553 q 632 524 565 538 q 754 487 699 511 q 844 421 810 463 q 878 314 878 379 z "},"₪":{"ha":1683,"x_min":90,"x_max":1621,"o":"m 1057 -28 q 738 17 858 -28 q 563 149 617 61 q 508 364 508 236 l 508 385 q 513 436 508 410 q 544 481 518 463 q 633 499 569 499 q 723 481 697 499 q 753 436 749 463 q 758 383 758 410 l 758 376 q 765 309 758 338 q 800 263 772 281 q 889 236 828 244 q 1057 228 950 228 q 1251 250 1185 228 q 1342 321 1318 272 q 1367 446 1367 369 l 1367 693 q 1372 751 1367 724 q 1405 796 1378 778 q 1494 814 1432 814 q 1584 794 1558 814 q 1615 746 1610 775 q 1621 685 1621 717 l 1621 439 q 1594 274 1621 357 q 1503 124 1567 192 q 1331 14 1440 56 q 1057 -28 1222 -28 m 218 -12 q 128 6 154 -12 q 96 54 101 25 q 90 115 90 83 l 90 686 q 96 746 90 717 q 128 794 101 775 q 218 813 154 813 l 749 814 q 939 800 858 814 q 1073 747 1019 786 q 1153 632 1126 707 q 1179 436 1179 557 l 1179 429 q 1174 374 1179 404 q 1144 322 1169 343 q 1057 300 1118 300 q 967 320 993 300 q 935 369 940 340 q 931 419 931 397 l 931 432 q 917 518 931 492 q 875 551 904 544 q 794 558 846 558 l 347 558 l 347 117 q 341 54 347 83 q 308 6 335 25 q 218 -12 282 -12 z "},"£":{"ha":1192,"x_min":35,"x_max":1143,"o":"m 278 -12 q 192 20 225 -12 q 160 106 160 53 q 172 160 160 139 q 202 199 185 181 q 232 244 219 218 q 244 311 244 269 q 241 331 244 314 q 235 363 238 349 l 126 363 q 83 367 104 363 q 49 394 63 372 q 35 463 35 415 q 50 533 35 513 q 88 558 65 554 q 135 563 111 563 l 192 563 l 192 590 q 201 685 192 642 q 231 769 210 728 q 319 872 260 829 q 460 939 379 915 q 631 963 540 963 q 799 951 725 963 q 930 919 874 939 q 1024 878 986 900 q 1081 836 1061 856 q 1119 754 1117 799 q 1078 671 1121 710 q 994 639 1035 632 q 911 672 953 646 q 851 699 888 688 q 760 719 814 711 q 635 726 707 726 q 526 710 572 726 q 453 664 479 694 q 428 589 428 633 l 428 563 l 757 563 q 802 558 781 563 q 838 533 824 554 q 851 461 851 513 q 838 393 851 414 q 802 367 824 372 q 758 363 781 363 l 463 363 q 467 331 465 349 q 468 306 468 313 q 467 279 468 293 q 463 251 465 265 q 457 224 461 238 l 1025 224 q 1081 219 1054 224 q 1126 189 1108 214 q 1143 104 1143 164 q 1125 22 1143 46 q 1080 -8 1107 -3 q 1024 -12 1053 -12 l 278 -12 z "},"¥":{"ha":1208,"x_min":32,"x_max":1176,"o":"m 1129 919 q 1174 828 1176 867 q 1122 744 1171 789 l 742 406 l 742 111 q 736 51 742 81 q 704 3 731 22 q 614 -15 678 -15 q 524 3 550 -15 q 492 52 497 22 q 486 114 486 82 l 486 390 l 86 744 q 34 828 36 789 q 79 919 32 867 q 171 977 132 978 q 260 931 210 976 l 606 611 l 949 931 q 1039 978 1000 978 q 1129 919 1078 978 m 408 90 q 363 94 386 90 q 322 115 339 97 q 306 174 306 133 q 324 231 306 214 q 367 251 342 247 q 414 254 392 254 l 824 254 q 872 251 847 254 q 913 231 896 247 q 931 172 931 214 q 915 115 931 132 q 875 94 899 97 q 828 90 851 90 l 408 90 m 408 314 q 363 317 386 314 q 322 339 339 321 q 306 397 306 357 q 332 463 306 446 q 408 479 358 479 l 829 479 q 906 462 882 479 q 931 396 931 444 q 915 338 931 356 q 875 317 899 321 q 828 314 851 314 l 408 314 z "},"+":{"ha":961,"x_min":19,"x_max":939,"o":"m 479 33 q 399 51 422 33 q 370 94 375 68 q 365 149 365 121 l 365 561 q 370 615 365 589 q 399 657 375 640 q 481 674 424 674 q 561 657 538 674 q 590 614 585 640 q 594 560 594 588 l 594 147 q 590 93 594 119 q 561 50 585 67 q 479 33 538 33 m 126 239 q 76 244 101 239 q 35 273 51 249 q 19 354 19 297 q 37 436 19 413 q 81 465 54 460 q 136 469 108 469 l 825 469 q 879 465 853 469 q 922 435 906 460 q 939 353 939 411 q 923 272 939 296 q 883 244 907 249 q 832 239 858 239 l 126 239 z "},"−":{"ha":1033,"x_min":19,"x_max":1008,"o":"m 128 236 q 81 241 106 236 q 38 271 56 246 q 19 356 19 296 q 38 438 19 414 q 81 466 56 461 q 129 471 107 471 l 899 471 q 948 466 922 471 q 991 437 974 461 q 1008 354 1008 413 q 991 270 1008 294 q 949 241 974 246 q 897 236 924 236 l 128 236 z "},"×":{"ha":950,"x_min":17,"x_max":933,"o":"m 710 339 l 867 249 q 907 220 888 238 q 930 174 926 203 q 904 93 933 144 q 847 29 875 42 q 795 25 819 17 q 749 46 771 33 l 475 204 l 201 46 q 155 25 179 33 q 103 29 131 17 q 46 93 76 42 q 20 174 17 144 q 44 220 24 203 q 83 249 64 238 l 240 339 l 82 431 q 42 458 63 442 q 19 506 22 475 q 47 589 17 538 q 104 651 76 639 q 156 654 132 663 q 200 635 181 646 l 475 475 l 750 635 q 794 654 769 646 q 846 651 818 663 q 903 589 874 639 q 931 506 933 538 q 908 458 928 475 q 868 431 888 442 l 710 339 z "},"÷":{"ha":931,"x_min":21,"x_max":910,"o":"m 124 263 q 78 267 103 263 q 38 294 54 272 q 21 369 21 317 q 39 444 21 422 q 82 469 57 465 q 129 474 107 474 l 803 474 q 850 469 825 474 q 892 443 875 465 q 910 368 910 421 q 894 294 910 317 q 853 267 878 272 q 801 263 828 263 l 124 263 m 464 -10 q 372 16 399 -10 q 346 106 346 42 q 372 200 346 174 q 465 226 399 226 q 556 200 531 226 q 582 107 582 174 q 556 16 582 42 q 464 -10 529 -10 m 464 510 q 372 535 399 510 q 346 625 346 561 q 372 719 346 693 q 465 746 399 746 q 556 719 531 746 q 582 626 582 693 q 556 535 582 561 q 464 510 529 510 z "},"=":{"ha":897,"x_min":19,"x_max":876,"o":"m 121 385 q 78 389 101 385 q 38 417 54 393 q 21 496 21 440 q 38 572 21 550 q 78 599 54 594 q 122 604 101 604 l 774 604 q 819 599 796 604 q 860 572 843 594 q 876 494 876 550 q 860 416 876 439 q 820 389 844 393 q 772 385 796 385 l 121 385 m 121 111 q 76 115 100 111 q 36 143 53 119 q 19 222 19 167 q 37 299 19 276 q 78 326 54 322 q 122 331 101 331 l 774 331 q 818 326 794 331 q 858 299 842 321 q 875 221 875 276 q 859 142 875 165 q 819 115 843 119 q 772 111 796 111 l 121 111 z "},">":{"ha":1117,"x_min":32,"x_max":1096,"o":"m 208 15 q 139 1 168 0 q 89 22 110 1 q 50 86 68 43 q 38 144 36 121 q 59 187 39 168 q 119 221 79 206 l 697 444 l 121 669 q 53 708 75 688 q 33 756 32 729 q 53 822 33 783 q 92 874 71 857 q 141 890 113 890 q 210 874 169 889 l 1039 546 q 1083 513 1071 535 q 1096 447 1096 492 q 1084 379 1096 401 q 1040 344 1072 357 l 208 15 z "},"<":{"ha":1117,"x_min":32,"x_max":1096,"o":"m 919 15 l 88 344 q 44 379 57 357 q 32 447 32 401 q 45 513 32 492 q 89 546 58 535 l 918 874 q 987 890 958 889 q 1036 874 1015 890 q 1075 822 1057 857 q 1096 756 1096 783 q 1074 708 1096 729 q 1007 669 1053 688 l 431 444 l 1008 221 q 1069 187 1049 206 q 1090 144 1089 168 q 1078 86 1092 121 q 1040 22 1061 43 q 990 1 1018 1 q 919 15 961 0 z "},"±":{"ha":925,"x_min":35,"x_max":890,"o":"m 136 372 q 92 376 115 372 q 51 400 68 379 q 35 472 35 421 q 52 544 35 524 q 93 569 69 565 q 138 574 117 574 l 788 574 q 833 569 810 574 q 874 544 857 565 q 890 471 890 522 q 874 400 890 421 q 835 376 858 379 q 786 372 811 372 l 136 372 m 461 228 q 381 245 404 228 q 352 289 357 263 q 347 343 347 315 l 347 617 q 352 670 347 644 q 381 713 357 696 q 463 729 406 729 q 543 713 519 729 q 572 669 567 696 q 576 615 576 643 l 576 342 q 572 288 576 314 q 543 244 567 261 q 461 228 519 228 m 136 -11 q 92 -8 115 -11 q 51 17 68 -4 q 35 89 35 38 q 52 161 35 140 q 93 186 69 182 q 138 190 117 190 l 788 190 q 833 186 810 190 q 874 160 857 182 q 890 88 890 139 q 874 17 890 38 q 835 -8 858 -4 q 786 -11 811 -11 l 136 -11 z "},"~":{"ha":1050,"x_min":24,"x_max":1015,"o":"m 350 501 q 444 490 404 501 q 517 464 485 479 q 578 433 550 449 q 633 406 606 417 q 693 394 661 394 q 772 411 742 394 q 822 451 803 428 q 854 490 840 474 q 883 507 868 507 q 918 498 900 507 q 954 475 936 489 q 1002 430 989 450 q 1015 389 1015 410 q 990 331 1015 364 q 922 266 965 297 q 822 214 878 235 q 703 193 765 193 q 601 204 644 193 q 524 231 558 215 q 463 263 490 247 q 409 290 435 279 q 356 301 383 301 q 310 285 331 301 q 271 247 290 268 q 227 208 251 225 q 169 192 203 192 q 146 195 158 192 q 120 207 133 199 q 93 228 107 215 q 37 295 50 263 q 61 365 24 328 q 87 390 65 369 q 146 438 108 411 q 235 483 183 464 q 350 501 286 501 z "},"¬":{"ha":1014,"x_min":21,"x_max":965,"o":"m 864 149 q 793 166 814 149 q 768 207 772 183 q 764 251 764 231 l 764 333 l 119 333 q 76 339 99 333 q 37 370 53 344 q 21 457 21 396 q 38 545 21 519 q 78 576 54 571 q 124 582 103 582 l 858 582 q 942 558 918 582 q 965 482 965 533 l 965 247 q 960 203 965 226 q 935 165 956 181 q 864 149 914 149 z "},"^":{"ha":879,"x_min":18,"x_max":861,"o":"m 440 701 q 480 692 460 701 q 517 671 500 682 l 818 479 q 849 453 836 468 q 858 417 861 439 q 828 358 856 394 q 783 323 804 326 q 742 331 761 319 q 707 353 724 342 l 440 522 l 174 353 q 138 331 157 342 q 99 323 119 319 q 51 358 78 326 q 22 416 25 393 q 31 453 18 439 q 61 479 43 468 l 364 671 q 400 692 381 682 q 440 701 419 701 z "},"µ":{"ha":1136,"x_min":76,"x_max":1060,"o":"m 200 -297 q 113 -278 139 -297 q 81 -231 86 -260 q 76 -172 76 -201 l 76 569 q 82 630 76 601 q 114 676 88 658 q 203 694 140 694 q 293 676 267 694 q 325 628 319 657 q 331 568 331 599 l 331 356 q 348 294 331 324 q 417 247 365 265 q 568 228 468 228 q 720 247 668 228 q 790 296 772 267 q 808 356 808 325 l 808 569 q 814 630 808 601 q 846 676 819 658 q 935 694 872 694 q 1023 676 997 694 q 1054 628 1049 657 q 1060 568 1060 600 l 1060 111 q 1054 53 1060 81 q 1022 8 1049 25 q 933 -10 996 -10 q 871 0 894 -10 q 835 25 847 10 q 817 57 822 40 q 811 88 813 74 l 811 101 q 786 66 808 85 q 723 30 764 47 q 625 1 682 13 q 497 -10 568 -10 q 405 -4 447 -10 q 326 11 363 1 l 326 -174 q 321 -231 326 -203 q 289 -278 315 -260 q 200 -297 263 -297 z "},"%":{"ha":1547,"x_min":28,"x_max":1519,"o":"m 354 -33 q 328 -6 338 -19 q 320 24 318 8 q 336 56 322 39 l 1121 1000 q 1149 1024 1135 1018 q 1180 1026 1164 1031 q 1214 1006 1196 1022 q 1241 974 1233 989 q 1246 947 1249 960 q 1231 918 1243 933 l 442 -32 q 415 -53 428 -49 q 388 -53 401 -58 q 354 -33 374 -47 m 397 456 q 126 523 224 456 q 28 708 28 590 q 125 897 28 829 q 396 964 222 964 q 669 897 571 964 q 767 710 767 829 q 669 523 767 590 q 397 456 571 456 m 396 608 q 546 632 492 608 q 600 711 600 656 q 546 789 600 767 q 396 811 492 811 q 247 789 300 811 q 193 711 193 767 q 247 632 193 656 q 396 608 300 608 m 1150 -15 q 878 52 976 -15 q 781 238 781 119 q 878 426 781 358 q 1149 493 975 493 q 1422 426 1324 493 q 1519 239 1519 358 q 1422 52 1519 119 q 1150 -15 1324 -15 m 1149 138 q 1299 161 1244 138 q 1353 240 1353 185 q 1299 318 1353 296 q 1149 340 1244 340 q 999 318 1053 340 q 946 240 946 296 q 999 161 946 185 q 1149 138 1053 138 z "},"‰":{"ha":2339,"x_min":28,"x_max":2311,"o":"m 357 -33 q 331 -6 340 -19 q 323 24 321 8 q 339 56 325 39 l 1124 1000 q 1152 1024 1138 1018 q 1183 1026 1167 1031 q 1217 1006 1199 1022 q 1244 974 1236 989 q 1249 947 1251 960 q 1233 918 1246 933 l 444 -32 q 417 -53 431 -49 q 390 -53 404 -58 q 357 -33 376 -47 m 397 456 q 126 523 224 456 q 28 708 28 590 q 125 897 28 829 q 396 964 222 964 q 669 897 571 964 q 767 710 767 829 q 669 523 767 590 q 397 456 571 456 m 396 608 q 546 632 492 608 q 600 711 600 656 q 546 789 600 767 q 396 811 492 811 q 247 789 300 811 q 193 711 193 767 q 247 632 193 656 q 396 608 300 608 m 1150 -15 q 878 52 976 -15 q 781 238 781 119 q 878 426 781 358 q 1149 493 975 493 q 1422 426 1324 493 q 1519 239 1519 358 q 1422 52 1519 119 q 1150 -15 1324 -15 m 1149 138 q 1299 161 1244 138 q 1353 240 1353 185 q 1299 318 1353 296 q 1149 340 1244 340 q 999 318 1053 340 q 946 240 946 296 q 999 161 946 185 q 1149 138 1053 138 m 1942 -15 q 1670 52 1768 -15 q 1572 238 1572 119 q 1666 426 1572 358 q 1933 493 1760 493 q 2210 426 2108 493 q 2311 239 2311 358 q 2213 52 2311 119 q 1942 -15 2115 -15 m 1940 138 q 2090 161 2036 138 q 2144 240 2144 185 q 2090 318 2144 296 q 1940 340 2036 340 q 1791 318 1844 340 q 1738 240 1738 296 q 1791 161 1738 185 q 1940 138 1844 138 z "}}}
